<svg width="245" height="64" viewBox="0 0 245 64" fill="none" xmlns="http://www.w3.org/2000/svg">
<path d="M132.706 9.58327C125.683 9.50379 118.647 9.62092 111.628 9.46614C109.57 9.42013 107.006 9.58745 105.441 9.58327C80.6805 9.49682 55.9213 9.48148 31.1634 9.53726C30.4231 9.53726 29.6157 9.8217 28.8084 9.71294C28.7633 9.70635 28.7173 9.70952 28.6736 9.72225C28.6298 9.73498 28.5893 9.75696 28.5548 9.78672C28.5203 9.81647 28.4926 9.85329 28.4736 9.89469C28.4545 9.93609 28.4446 9.9811 28.4445 10.0267V26.2358C28.443 26.2659 28.4316 26.2947 28.4122 26.3177C28.3928 26.3408 28.3664 26.3568 28.337 26.3635C28.3076 26.3701 28.2769 26.367 28.2495 26.3545C28.222 26.342 28.1994 26.3209 28.1851 26.2944L20.1245 9.81333C20.052 9.66275 19.9321 9.58745 19.7648 9.58745L5.279 9.52471C5.1061 9.52192 5.01965 9.60837 5.01965 9.78405L5.02384 55.2157C5.02384 55.5615 5.19673 55.7344 5.54253 55.7344L19.2586 55.7469C19.412 55.7469 19.4887 55.6702 19.4887 55.5169L19.4719 38.8894C19.473 38.8496 19.4871 38.8113 19.5122 38.7805C19.5373 38.7496 19.572 38.728 19.6107 38.7189C19.6494 38.7098 19.69 38.7138 19.7262 38.7303C19.7625 38.7468 19.7922 38.7748 19.8108 38.8099L27.9718 55.3495C28.0295 55.4662 28.1184 55.5645 28.2285 55.6333C28.3386 55.702 28.4656 55.7385 28.5951 55.7386H42.65C42.7615 55.7386 42.8187 55.6814 42.8215 55.5671C43.1017 44.1642 42.7253 32.7822 43.0181 21.3793C43.0203 21.3109 43.049 21.246 43.0982 21.1984C43.1474 21.1508 43.2131 21.1241 43.2816 21.1242H122.152" stroke="#1E415C" style="stroke:#1E415C;stroke:color(display-p3 0.1176 0.2549 0.3608);stroke-opacity:1;" stroke-width="0.836601"/>
<path d="M122.152 21.1242L220.629 21.1325C220.782 21.1325 220.859 21.2106 220.859 21.3668L220.854 27.428" stroke="#354D5F" style="stroke:#354D5F;stroke:color(display-p3 0.2078 0.3020 0.3725);stroke-opacity:1;" stroke-width="0.836601"/>
<path d="M220.854 27.428C216.153 27.2356 210.577 27.3945 205.846 29.2685C203.152 30.3352 201.734 31.9289 200.391 34.3216C200.321 34.4415 200.287 34.4331 200.287 34.2965L200.253 28.3524C200.25 28.1405 200.143 28.0345 199.931 28.0345L187.788 28.0094C187.74 28.0094 187.694 28.0284 187.661 28.0621C187.627 28.0958 187.608 28.1416 187.608 28.1893C187.611 32.7069 187.609 37.2357 187.604 41.7757C187.6 43.3987 187.244 44.4695 185.617 44.8586C183.588 45.348 178.234 45.7161 177.033 43.8044C176.774 43.3973 176.639 42.6876 176.627 41.6753C176.572 37.1632 176.53 32.6512 176.502 28.1391C176.502 28.0136 176.439 27.9508 176.314 27.9508L164.175 28.0429C164.093 28.044 164.016 28.0766 163.959 28.1338C163.901 28.1909 163.869 28.268 163.869 28.3482V36.4967C163.868 36.5132 163.862 36.5288 163.851 36.5413C163.84 36.5537 163.826 36.5623 163.809 36.5656C163.793 36.5689 163.776 36.5668 163.762 36.5597C163.747 36.5525 163.735 36.5407 163.727 36.526C163.606 36.2708 163.627 35.9529 163.514 35.6894C161.075 30.0298 155.963 28.2186 150.07 27.6288C142.176 26.834 132.196 27.6915 128.745 36.0031C128.68 36.1565 128.623 36.1537 128.573 35.9948C126.544 29.7956 122.11 27.9969 116.104 28.0136C93.1723 28.0666 69.8395 28.0401 46.1051 27.9341C45.6952 27.9313 45.4902 28.1349 45.4902 28.5448V55.4248C45.4902 55.5671 45.56 55.6382 45.6994 55.6382L57.8719 55.6465C58.0476 55.6465 58.1355 55.5587 58.1355 55.383L58.148 39.2115C58.148 39.0749 58.2177 39.0065 58.3572 39.0065H69.0196C69.1591 39.0065 69.2288 39.0763 69.2288 39.2157V55.4332C69.2288 55.581 69.3013 55.6549 69.4463 55.6549L81.5645 55.6382C81.7764 55.6382 81.8824 55.5322 81.8824 55.3203V39.2157C81.8824 39.0763 81.9521 39.0065 82.0915 39.0065H92.8712C93.0162 39.0065 93.0887 39.079 93.0887 39.224L93.1974 55.542C93.1974 55.673 93.2644 55.7386 93.3982 55.7386H105.546C105.707 55.7386 105.788 55.6591 105.788 55.5001L105.851 50.0288C105.851 49.9345 105.888 49.844 105.955 49.7773C106.022 49.7107 106.112 49.6732 106.207 49.6732H111.657C111.799 49.6732 111.914 49.729 112 49.8405L116.434 55.5838C116.509 55.6814 116.61 55.7302 116.735 55.7302L130.121 55.6256C130.383 55.6228 130.435 55.5169 130.276 55.3077L124.574 47.8661C124.555 47.8416 124.542 47.8137 124.534 47.784C124.526 47.7543 124.524 47.7234 124.527 47.6931C124.531 47.6628 124.541 47.6336 124.556 47.6074C124.572 47.5811 124.592 47.5581 124.616 47.5399C125.946 46.5192 126.998 45.2671 127.77 43.7835C127.882 43.566 127.955 43.5786 127.992 43.8212C128.268 45.6896 128.515 46.9082 128.732 47.4771C132.141 56.3744 143.297 56.822 151.186 55.8975C157.34 55.1739 162.46 52.4214 164.062 46.0047C164.123 45.7565 164.186 45.7551 164.25 46.0005C165.781 51.8651 170.181 54.9563 176.339 55.8097C184.333 56.914 196.806 56.5668 199.755 46.8497C199.817 46.6545 199.871 46.6559 199.918 46.8539C202.173 55.7971 209.937 56.0606 217.558 56.228C224.945 56.3911 237.98 54.8016 235.717 43.9216C235.303 41.9263 232.998 40.412 231.061 39.4123C230.804 39.2812 230.82 39.2157 231.107 39.2157H235.913C236.05 39.2157 236.117 39.146 236.114 39.0065C235.859 30.4105 229.944 28.3482 222.586 27.4823" stroke="#8A8B8B" style="stroke:#8A8B8B;stroke:color(display-p3 0.5412 0.5451 0.5451);stroke-opacity:1;" stroke-width="0.836601"/>
<path d="M222.586 27.4824L235.223 15.4771C235.246 15.4549 235.264 15.4282 235.277 15.3988C235.289 15.3693 235.296 15.3376 235.296 15.3056C235.296 15.2736 235.289 15.2419 235.277 15.2125C235.264 15.183 235.246 15.1564 235.223 15.1341L221.038 1.60209C221.024 1.58833 221.005 1.57917 220.985 1.57572C220.965 1.57227 220.945 1.57467 220.926 1.58264C220.908 1.59061 220.892 1.6038 220.88 1.62062C220.869 1.63744 220.863 1.65716 220.863 1.67739V9.31556C220.863 9.38878 220.834 9.459 220.782 9.51077C220.73 9.56255 220.66 9.59163 220.587 9.59163L132.706 9.58327" stroke="#354D5F" style="stroke:#354D5F;stroke:color(display-p3 0.2078 0.3020 0.3725);stroke-opacity:1;" stroke-width="0.836601"/>
<path d="M222.586 27.4823L220.854 27.428" stroke="#ABC2D3" style="stroke:#ABC2D3;stroke:color(display-p3 0.6706 0.7608 0.8275);stroke-opacity:1;" stroke-width="0.836601"/>
<path d="M122.152 21.1242L120.27 20.3085C120.125 20.2444 120.096 20.1454 120.182 20.0115L120.471 19.5639" stroke="#3F78A5" style="stroke:#3F78A5;stroke:color(display-p3 0.2471 0.4706 0.6471);stroke-opacity:1;" stroke-width="0.836601"/>
<path d="M120.471 19.5639L222.218 19.5597C222.36 19.5597 222.431 19.6308 222.431 19.7731V25.1064C222.432 25.1313 222.44 25.1555 222.454 25.1761C222.468 25.1967 222.487 25.2128 222.51 25.2225C222.533 25.2322 222.559 25.2351 222.583 25.2308C222.608 25.2266 222.631 25.2153 222.649 25.1984L232.86 15.452C232.883 15.429 232.903 15.4014 232.916 15.3708C232.929 15.3403 232.935 15.3074 232.935 15.2742C232.935 15.2411 232.929 15.2082 232.916 15.1777C232.903 15.1471 232.883 15.1195 232.86 15.0965L222.64 5.38771C222.501 5.25386 222.431 5.28314 222.431 5.47556V10.9762C222.431 11.1296 222.353 11.2063 222.197 11.2063L103.864 11.1854" stroke="#ABC2D3" style="stroke:#ABC2D3;stroke:color(display-p3 0.6706 0.7608 0.8275);stroke-opacity:1;" stroke-width="0.836601"/>
<path d="M103.864 11.1854C104.285 10.2428 104.801 9.76732 105.412 9.75895C110.983 9.69203 120.082 9.63346 132.706 9.58327" stroke="#3F78A5" style="stroke:#3F78A5;stroke:color(display-p3 0.2471 0.4706 0.6471);stroke-opacity:1;" stroke-width="0.836601"/>
<path d="M120.471 19.5639L42.0225 19.4677C41.5456 19.4677 41.3072 19.7061 41.3072 20.183V53.8562C41.3072 53.9956 41.2375 54.0654 41.098 54.0654H29.348C29.1918 54.0654 29.0789 53.9956 29.0091 53.8562L18.1835 31.9289C18.1711 31.9034 18.1505 31.8828 18.1249 31.8705C18.0993 31.8582 18.0703 31.8549 18.0427 31.8612C18.015 31.8676 17.9903 31.8831 17.9726 31.9052C17.9548 31.9274 17.9452 31.9549 17.9451 31.9833L17.8782 53.8604C17.8771 53.9151 17.8545 53.9673 17.8154 54.0056C17.7763 54.0439 17.7238 54.0654 17.669 54.0654H7.1111C6.7653 54.0654 6.59241 53.8911 6.59241 53.5425V11.909C6.59241 11.4851 6.80435 11.2732 7.22822 11.2732L18.8152 11.2565C18.9434 11.2565 19.0355 11.3122 19.0912 11.4238L29.8959 33.3804C29.9025 33.392 29.9126 33.4013 29.9248 33.4068C29.937 33.4123 29.9506 33.4137 29.9637 33.4109C29.9768 33.4081 29.9886 33.4012 29.9975 33.3912C30.0064 33.3812 30.0118 33.3686 30.0131 33.3553V11.4112C30.0131 11.2802 30.0772 11.2146 30.2055 11.2146L103.864 11.1854" stroke="#93B5D1" style="stroke:#93B5D1;stroke:color(display-p3 0.5765 0.7098 0.8196);stroke-opacity:1;" stroke-width="0.836601"/>
<path d="M159.163 16.0544C159.083 16.2635 158.896 16.3751 158.603 16.389C157.306 16.4601 154.541 16.7362 155.42 14.3101C155.467 14.1762 155.552 14.0758 155.675 14.0089C156.573 13.5069 157.475 13.4219 158.381 13.7537C159.64 14.2097 160.268 14.1427 161.477 14.1093C161.636 14.1065 161.693 14.0284 161.648 13.875C160.673 10.3362 150.329 10.3404 153.299 17.234C153.359 17.3697 153.462 17.4816 153.592 17.5519C155.75 18.712 157.935 18.7719 160.146 17.7318C160.389 17.6202 160.517 17.6969 160.531 17.9618C160.556 18.4666 160.87 18.6409 161.472 18.4847C161.601 18.4512 161.666 18.369 161.669 18.2379L161.686 15.0003C161.686 14.8302 161.602 14.7451 161.435 14.7451L157.578 14.7409C157.391 14.7409 157.295 14.8343 157.289 15.0212L157.277 15.5231C157.274 15.7016 157.36 15.7909 157.536 15.7909H158.984C159.17 15.7909 159.23 15.8787 159.163 16.0544Z" stroke="#8A8B8B" style="stroke:#8A8B8B;stroke:color(display-p3 0.5412 0.5451 0.5451);stroke-opacity:1;" stroke-width="0.836601"/>
<path d="M172.528 15.8578C172.605 15.8681 172.676 15.9032 172.731 15.9578C172.786 16.0124 172.822 16.0835 172.833 16.1602C172.844 16.2369 172.829 16.3151 172.791 16.3828C172.754 16.4505 172.695 16.5041 172.624 16.5354C171.408 17.0792 170.241 17.0053 169.123 16.3137C169.014 16.244 168.894 16.2091 168.763 16.2091H166.898C166.73 16.2091 166.665 16.2914 166.701 16.4559C167.295 19.1289 171.867 18.4889 173.779 18.1501C174.376 18.0469 174.843 17.7373 175.18 17.2214C177.088 14.3101 170.884 14.2933 169.721 14.239C169.634 14.2342 169.552 14.1981 169.49 14.1373C169.428 14.0765 169.389 13.9952 169.382 13.9085C169.363 13.6519 169.502 13.4735 169.801 13.3731C170.952 12.9854 172.015 13.0858 172.988 13.6742C173.094 13.7384 173.21 13.776 173.335 13.7872L175.168 13.9294C175.214 13.9336 175.261 13.9262 175.304 13.908C175.347 13.8897 175.385 13.8611 175.414 13.8247C175.444 13.7883 175.464 13.7452 175.472 13.6993C175.481 13.6533 175.478 13.606 175.465 13.5613C174.695 10.9511 169.817 11.4782 167.977 12.0638C166.622 12.4905 166.141 14.1678 167.287 15.0839C168.303 15.8996 171.123 15.6612 172.528 15.8578Z" stroke="#8A8B8B" style="stroke:#8A8B8B;stroke:color(display-p3 0.5412 0.5451 0.5451);stroke-opacity:1;" stroke-width="0.836601"/>
<path d="M177.958 12.1014C175.377 13.0677 175.653 17.6899 178.514 18.2295C180.769 18.6562 184.588 18.8654 185.111 15.8327C185.136 15.6932 185.077 15.6249 184.935 15.6277L182.697 15.6821C182.566 15.6849 182.467 15.7434 182.4 15.8578C182.203 16.205 182.074 16.3054 181.647 16.3514C180.94 16.4267 180.074 16.6442 179.459 16.3012C178.439 15.7323 178.405 13.9085 179.769 13.6868C180.441 13.578 181.114 13.5892 181.789 13.7203C181.948 13.7509 182.074 13.8095 182.166 13.8959C182.258 13.9852 182.33 14.0953 182.383 14.2264C182.407 14.286 182.448 14.3372 182.501 14.3737C182.554 14.4101 182.616 14.4302 182.68 14.4314L184.989 14.4356C185.148 14.4356 185.211 14.3589 185.178 14.2055C184.512 11.1603 180.145 11.2816 177.958 12.1014Z" stroke="#8A8B8B" style="stroke:#8A8B8B;stroke:color(display-p3 0.5412 0.5451 0.5451);stroke-opacity:1;" stroke-width="0.836601"/>
<path d="M191.9 13.8834C191.9 13.9178 191.886 13.9508 191.862 13.9751C191.837 13.9994 191.804 14.0131 191.77 14.0131H188.026C188.009 14.0131 187.992 14.0096 187.976 14.0028C187.96 13.996 187.945 13.9861 187.933 13.9736C187.921 13.9611 187.911 13.9463 187.905 13.9301C187.899 13.9139 187.896 13.8966 187.896 13.8792L187.984 11.9718C187.985 11.9544 187.983 11.937 187.977 11.9205C187.972 11.9041 187.963 11.889 187.951 11.8761C187.939 11.8632 187.925 11.8528 187.909 11.8456C187.893 11.8383 187.876 11.8343 187.859 11.8337L185.592 11.7835C185.574 11.783 185.557 11.7859 185.541 11.7922C185.524 11.7984 185.51 11.8079 185.497 11.82C185.485 11.8321 185.475 11.8466 185.468 11.8626C185.461 11.8786 185.458 11.8958 185.458 11.9132L185.508 18.171C185.508 18.2054 185.522 18.2384 185.546 18.2627C185.57 18.287 185.603 18.3007 185.638 18.3007H187.825C187.843 18.3007 187.86 18.2972 187.876 18.2904C187.892 18.2836 187.906 18.2737 187.919 18.2612C187.931 18.2487 187.94 18.2339 187.946 18.2177C187.953 18.2015 187.956 18.1842 187.955 18.1668L187.909 16.2092C187.908 16.1918 187.911 16.1745 187.918 16.1582C187.924 16.142 187.933 16.1272 187.945 16.1147C187.958 16.1023 187.972 16.0923 187.988 16.0855C188.004 16.0788 188.021 16.0753 188.039 16.0753L191.766 16.1088C191.8 16.1088 191.833 16.1224 191.857 16.1467C191.882 16.1711 191.895 16.204 191.895 16.2384V18.171C191.895 18.2054 191.909 18.2384 191.933 18.2627C191.958 18.287 191.991 18.3007 192.025 18.3007H194.276C194.31 18.3007 194.343 18.287 194.367 18.2627C194.392 18.2384 194.405 18.2054 194.405 18.171V11.9467C194.405 11.9123 194.392 11.8793 194.367 11.855C194.343 11.8307 194.31 11.817 194.276 11.817H192.021C191.987 11.817 191.954 11.8307 191.929 11.855C191.905 11.8793 191.891 11.9123 191.891 11.9467L191.9 13.8834Z" stroke="#8A8B8B" style="stroke:#8A8B8B;stroke:color(display-p3 0.5412 0.5451 0.5451);stroke-opacity:1;" stroke-width="0.836601"/>
<path d="M204.388 14.6511C204.39 14.2639 204.316 13.88 204.169 13.5214C204.023 13.1629 203.807 12.8366 203.535 12.5614C203.263 12.2861 202.939 12.0672 202.582 11.9171C202.225 11.767 201.842 11.6887 201.454 11.6867L198.51 11.6713C197.727 11.6672 196.976 11.974 196.42 12.5241C195.864 13.0743 195.549 13.8227 195.545 14.6048L195.541 15.3996C195.539 15.7868 195.613 16.1707 195.76 16.5293C195.906 16.8878 196.121 17.2141 196.394 17.4894C196.666 17.7646 196.99 17.9836 197.347 18.1336C197.704 18.2837 198.087 18.362 198.475 18.364L201.419 18.3794C202.201 18.3835 202.953 18.0767 203.509 17.5266C204.065 16.9765 204.38 16.228 204.384 15.4459L204.388 14.6511Z" stroke="#8A8B8B" style="stroke:#8A8B8B;stroke:color(display-p3 0.5412 0.5451 0.5451);stroke-opacity:1;" stroke-width="0.836601"/>
<path d="M214.017 14.7056C214.021 13.9068 213.708 13.1391 213.146 12.5713C212.584 12.0036 211.82 11.6823 211.021 11.6781L208.185 11.6632C207.386 11.659 206.618 11.9723 206.051 12.5342C205.483 13.096 205.162 13.8604 205.157 14.6592L205.154 15.3452C205.15 16.1439 205.463 16.9116 206.025 17.4794C206.587 18.0471 207.351 18.3685 208.15 18.3726L210.986 18.3875C211.785 18.3917 212.552 18.0784 213.12 17.5165C213.688 16.9547 214.009 16.1903 214.013 15.3915L214.017 14.7056Z" stroke="#8A8B8B" style="stroke:#8A8B8B;stroke:color(display-p3 0.5412 0.5451 0.5451);stroke-opacity:1;" stroke-width="0.836601"/>
<path d="M107.717 11.8714L107.675 18.1877C107.675 18.202 107.678 18.2161 107.683 18.2293C107.689 18.2425 107.697 18.2545 107.707 18.2646C107.717 18.2747 107.729 18.2827 107.742 18.2882C107.755 18.2937 107.769 18.2965 107.784 18.2965L113.226 18.3341C113.664 18.3369 114.098 18.2554 114.503 18.0943C114.909 17.9331 115.278 17.6954 115.589 17.3947C115.901 17.0941 116.149 16.7364 116.319 16.342C116.489 15.9477 116.578 15.5244 116.58 15.0965V15.0797C116.586 14.2156 116.24 13.3847 115.619 12.7696C114.997 12.1546 114.152 11.8059 113.267 11.8003L107.825 11.7626C107.797 11.7626 107.769 11.7741 107.748 11.7945C107.728 11.8149 107.717 11.8425 107.717 11.8714Z" stroke="#8A8B8B" style="stroke:#8A8B8B;stroke:color(display-p3 0.5412 0.5451 0.5451);stroke-opacity:1;" stroke-width="0.836601"/>
<path d="M134.404 16.0586C134.393 16.0835 134.375 16.1047 134.352 16.1196C134.329 16.1345 134.302 16.1424 134.275 16.1424C134.247 16.1424 134.22 16.1345 134.197 16.1196C134.174 16.1047 134.156 16.0835 134.145 16.0586L132.329 11.9007C132.318 11.8757 132.3 11.8545 132.277 11.8397C132.254 11.8249 132.227 11.817 132.2 11.817H129.753C129.729 11.8174 129.705 11.8238 129.684 11.8357C129.664 11.8475 129.646 11.8645 129.634 11.8849C129.621 11.9054 129.614 11.9287 129.613 11.9526C129.612 11.9766 129.617 12.0004 129.627 12.022L132.723 18.2212C132.734 18.2447 132.752 18.2646 132.774 18.2786C132.796 18.2926 132.822 18.3003 132.848 18.3007H135.701C135.727 18.3003 135.753 18.2926 135.775 18.2786C135.797 18.2646 135.815 18.2447 135.826 18.2212L138.98 11.9885C138.991 11.9667 138.996 11.9424 138.995 11.9181C138.993 11.8938 138.986 11.8703 138.973 11.8497C138.96 11.8291 138.942 11.8123 138.92 11.8007C138.899 11.7891 138.875 11.7832 138.851 11.7835L136.324 11.8337C136.297 11.8337 136.27 11.8416 136.247 11.8564C136.224 11.8713 136.206 11.8924 136.195 11.9174L134.404 16.0586Z" stroke="#8A8B8B" style="stroke:#8A8B8B;stroke:color(display-p3 0.5412 0.5451 0.5451);stroke-opacity:1;" stroke-width="0.836601"/>
<path d="M145.673 14.4356C145.673 14.4087 145.681 14.3823 145.696 14.3602C145.711 14.3381 145.733 14.3213 145.759 14.3121C145.784 14.3029 145.811 14.3018 145.837 14.3089C145.863 14.3161 145.886 14.3311 145.903 14.3519L149.199 18.2546C149.211 18.2687 149.226 18.2801 149.243 18.288C149.259 18.2959 149.277 18.3002 149.296 18.3007H152.027C152.062 18.3007 152.095 18.287 152.119 18.2627C152.143 18.2384 152.157 18.2054 152.157 18.171V11.9258C152.157 11.9087 152.153 11.8919 152.147 11.8761C152.14 11.8604 152.131 11.8461 152.119 11.8341C152.107 11.822 152.093 11.8125 152.077 11.8059C152.061 11.7994 152.044 11.7961 152.027 11.7961L149.777 11.8254C149.742 11.8254 149.709 11.839 149.685 11.8633C149.661 11.8877 149.647 11.9206 149.647 11.955V14.9333C149.647 14.9599 149.638 14.9856 149.622 15.0071C149.607 15.0285 149.585 15.0447 149.56 15.0533C149.535 15.062 149.508 15.0628 149.482 15.0555C149.456 15.0483 149.434 15.0334 149.417 15.0128L146.819 11.863C146.807 11.8484 146.792 11.8367 146.774 11.8288C146.757 11.8208 146.738 11.8168 146.719 11.817H143.364C143.33 11.817 143.297 11.8307 143.272 11.855C143.248 11.8793 143.234 11.9123 143.234 11.9467L143.285 18.171C143.285 18.2054 143.298 18.2384 143.323 18.2627C143.347 18.287 143.38 18.3007 143.414 18.3007H145.544C145.578 18.3007 145.611 18.287 145.635 18.2627C145.66 18.2384 145.673 18.2054 145.673 18.171V14.4356Z" stroke="#8A8B8B" style="stroke:#8A8B8B;stroke:color(display-p3 0.5412 0.5451 0.5451);stroke-opacity:1;" stroke-width="0.836601"/>
<path d="M124.842 16.3179C126.431 15.6152 126.268 13.2559 125.151 12.365C123.913 11.3736 119.161 11.8128 117.476 11.8212C117.358 11.8212 117.3 11.8811 117.3 12.001L117.342 18.058C117.344 18.2198 117.427 18.3007 117.588 18.3007H119.513C119.55 18.3007 119.588 18.2931 119.622 18.2782C119.657 18.2633 119.688 18.2414 119.714 18.214C119.74 18.1865 119.76 18.1541 119.773 18.1186C119.786 18.0832 119.791 18.0455 119.789 18.0078L119.722 16.8533C119.72 16.8245 119.723 16.7955 119.733 16.7682C119.743 16.7409 119.758 16.7158 119.778 16.6946C119.798 16.6734 119.822 16.6565 119.849 16.6449C119.876 16.6333 119.906 16.6274 119.935 16.6275H121.838C122.014 16.6275 122.154 16.6986 122.257 16.8408L123.202 18.1375C123.24 18.1882 123.289 18.2294 123.345 18.2577C123.4 18.2861 123.462 18.3008 123.524 18.3007H125.708C125.906 18.3007 125.946 18.2212 125.829 18.0622L124.758 16.6275C124.74 16.6026 124.727 16.574 124.722 16.5437C124.716 16.5134 124.717 16.4823 124.725 16.4525C124.733 16.4228 124.748 16.3952 124.768 16.3719C124.788 16.3486 124.814 16.3302 124.842 16.3179Z" stroke="#8A8B8B" style="stroke:#8A8B8B;stroke:color(display-p3 0.5412 0.5451 0.5451);stroke-opacity:1;" stroke-width="0.836601"/>
<path d="M129.353 11.9257C129.353 11.9114 129.35 11.8973 129.344 11.8841C129.339 11.8709 129.331 11.859 129.321 11.8489C129.31 11.8389 129.298 11.8309 129.285 11.8255C129.272 11.82 129.258 11.8173 129.244 11.8173L127.035 11.8251C127.021 11.8251 127.007 11.828 126.993 11.8335C126.98 11.839 126.968 11.8471 126.958 11.8572C126.948 11.8673 126.94 11.8793 126.935 11.8926C126.929 11.9058 126.927 11.9199 126.927 11.9342L126.948 18.1919C126.948 18.2062 126.951 18.2204 126.957 18.2335C126.962 18.2467 126.97 18.2587 126.981 18.2687C126.991 18.2788 127.003 18.2868 127.016 18.2922C127.029 18.2976 127.043 18.3004 127.058 18.3003L129.266 18.2926C129.28 18.2925 129.295 18.2897 129.308 18.2842C129.321 18.2786 129.333 18.2706 129.343 18.2605C129.353 18.2503 129.361 18.2383 129.366 18.2251C129.372 18.2119 129.375 18.1977 129.375 18.1834L129.353 11.9257Z" stroke="#8A8B8B" style="stroke:#8A8B8B;stroke:color(display-p3 0.5412 0.5451 0.5451);stroke-opacity:1;" stroke-width="0.836601"/>
<path d="M141.891 11.9215C141.891 11.9072 141.888 11.8931 141.882 11.8799C141.877 11.8668 141.869 11.8548 141.858 11.8448C141.848 11.8348 141.836 11.8268 141.823 11.8215C141.81 11.8161 141.796 11.8134 141.781 11.8135L139.556 11.829C139.527 11.8292 139.5 11.8409 139.479 11.8614C139.459 11.882 139.448 11.9097 139.448 11.9386L139.492 18.1962C139.492 18.2104 139.495 18.2246 139.5 18.2377C139.506 18.2509 139.514 18.2628 139.524 18.2728C139.534 18.2829 139.546 18.2908 139.56 18.2962C139.573 18.3016 139.587 18.3043 139.601 18.3042L141.826 18.2886C141.855 18.2884 141.883 18.2767 141.903 18.2562C141.923 18.2357 141.935 18.2079 141.934 18.1791L141.891 11.9215Z" stroke="#8A8B8B" style="stroke:#8A8B8B;stroke:color(display-p3 0.5412 0.5451 0.5451);stroke-opacity:1;" stroke-width="0.836601"/>
<path d="M217.345 16.2092C217.326 16.2092 217.308 16.2055 217.29 16.1983C217.273 16.1912 217.257 16.1807 217.244 16.1675C217.231 16.1543 217.221 16.1386 217.213 16.1214C217.206 16.1041 217.203 16.0856 217.203 16.0669V11.9592C217.203 11.9215 217.188 11.8853 217.161 11.8587C217.134 11.832 217.098 11.817 217.06 11.817H214.927C214.889 11.817 214.853 11.832 214.826 11.8587C214.8 11.8853 214.785 11.9215 214.785 11.9592L214.793 18.1584C214.793 18.1962 214.808 18.2323 214.835 18.259C214.862 18.2857 214.898 18.3007 214.935 18.3007H222.226C222.245 18.3007 222.264 18.2969 222.282 18.2894C222.299 18.282 222.315 18.2712 222.328 18.2575C222.342 18.2439 222.352 18.2277 222.359 18.21C222.366 18.1922 222.369 18.1733 222.369 18.1542L222.314 16.3472C222.313 16.3102 222.298 16.2751 222.271 16.2493C222.245 16.2235 222.209 16.2091 222.172 16.2092H217.345Z" stroke="#8A8B8B" style="stroke:#8A8B8B;stroke:color(display-p3 0.5412 0.5451 0.5451);stroke-opacity:1;" stroke-width="0.836601"/>
<path d="M202.031 15.0078C202.029 14.8145 201.973 14.6236 201.867 14.446C201.761 14.2685 201.606 14.1078 201.412 13.9731C201.218 13.8384 200.988 13.7323 200.736 13.661C200.483 13.5896 200.213 13.5544 199.941 13.5572C199.39 13.563 198.864 13.7236 198.478 14.0038C198.092 14.284 197.877 14.6608 197.881 15.0513C197.883 15.2446 197.939 15.4355 198.045 15.613C198.151 15.7906 198.306 15.9513 198.5 16.086C198.694 16.2207 198.924 16.3268 199.176 16.3981C199.429 16.4695 199.699 16.5047 199.971 16.5019C200.522 16.4961 201.048 16.3355 201.434 16.0553C201.82 15.7751 202.035 15.3983 202.031 15.0078Z" stroke="#8A8B8B" style="stroke:#8A8B8B;stroke:color(display-p3 0.5412 0.5451 0.5451);stroke-opacity:1;" stroke-width="0.836601"/>
<path d="M211.652 15.0385C211.651 14.8473 211.597 14.6581 211.492 14.4817C211.387 14.3052 211.233 14.145 211.04 14.0102C210.846 13.8754 210.616 13.7685 210.363 13.6958C210.111 13.6231 209.84 13.5859 209.566 13.5864C209.293 13.5869 209.022 13.625 208.769 13.6986C208.516 13.7722 208.287 13.8798 208.094 14.0153C207.901 14.1508 207.747 14.3116 207.643 14.4884C207.539 14.6652 207.485 14.8546 207.485 15.0457C207.486 15.2369 207.54 15.4261 207.645 15.6025C207.75 15.7789 207.904 15.9392 208.097 16.074C208.291 16.2088 208.521 16.3157 208.774 16.3884C209.027 16.4611 209.298 16.4983 209.571 16.4978C209.845 16.4973 210.116 16.4592 210.368 16.3856C210.621 16.312 210.85 16.2044 211.043 16.0688C211.237 15.9333 211.39 15.7726 211.494 15.5958C211.599 15.419 211.652 15.2296 211.652 15.0385Z" stroke="#8A8B8B" style="stroke:#8A8B8B;stroke:color(display-p3 0.5412 0.5451 0.5451);stroke-opacity:1;" stroke-width="0.836601"/>
<path d="M110.134 14.0173L110.084 15.862C110.083 15.9032 110.09 15.9442 110.105 15.9827C110.12 16.0212 110.142 16.0564 110.17 16.0863C110.199 16.1162 110.232 16.1402 110.27 16.157C110.308 16.1738 110.348 16.183 110.39 16.1841L112.778 16.2468C112.946 16.2515 113.114 16.2248 113.271 16.1682C113.428 16.1116 113.572 16.0263 113.694 15.9171C113.816 15.808 113.914 15.6771 113.982 15.5319C114.05 15.3868 114.087 15.2303 114.092 15.0714V15.0128C114.099 14.6932 113.972 14.3834 113.738 14.1514C113.505 13.9193 113.183 13.7839 112.845 13.7746L110.457 13.7119C110.415 13.7108 110.374 13.7178 110.336 13.7325C110.297 13.7473 110.262 13.7695 110.232 13.7978C110.202 13.8262 110.178 13.8602 110.161 13.8978C110.145 13.9355 110.135 13.9761 110.134 14.0173Z" stroke="#8A8B8B" style="stroke:#8A8B8B;stroke:color(display-p3 0.5412 0.5451 0.5451);stroke-opacity:1;" stroke-width="0.836601"/>
<path d="M123.474 13.8416C123.474 13.8092 123.468 13.7771 123.455 13.7471C123.443 13.7172 123.425 13.69 123.402 13.6671C123.379 13.6441 123.352 13.626 123.322 13.6136C123.292 13.6012 123.26 13.5948 123.227 13.5948H119.99C119.924 13.5948 119.861 13.6208 119.815 13.6671C119.769 13.7133 119.743 13.7761 119.743 13.8416V14.6029C119.743 14.6353 119.749 14.6674 119.762 14.6973C119.774 14.7273 119.792 14.7545 119.815 14.7774C119.838 14.8003 119.865 14.8185 119.895 14.8309C119.925 14.8433 119.957 14.8497 119.99 14.8497H123.227C123.26 14.8497 123.292 14.8433 123.322 14.8309C123.352 14.8185 123.379 14.8003 123.402 14.7774C123.425 14.7545 123.443 14.7273 123.455 14.6973C123.468 14.6674 123.474 14.6353 123.474 14.6029V13.8416Z" stroke="#8A8B8B" style="stroke:#8A8B8B;stroke:color(display-p3 0.5412 0.5451 0.5451);stroke-opacity:1;" stroke-width="0.836601"/>
<path d="M217.512 44.5407L223.615 45.1597C223.832 45.1808 224.036 45.2832 224.194 45.4498C224.351 45.6164 224.452 45.8373 224.481 46.0758C224.816 48.9161 215.801 48.2468 214.488 48.0167C213.58 47.8536 212.94 47.4646 212.154 46.9752" stroke="#A5C4E1" style="stroke:#A5C4E1;stroke:color(display-p3 0.6471 0.7686 0.8824);stroke-opacity:1;" stroke-width="0.836601"/>
<path d="M212.154 46.9752L211.434 46.1762C211.337 46.0675 211.215 46.0131 211.07 46.0131H201.725C201.564 46.0131 201.493 46.0926 201.512 46.2515C202.102 51.3882 206.222 53.5132 210.836 54.195" stroke="#8CB9E3" style="stroke:#8CB9E3;stroke:color(display-p3 0.5490 0.7255 0.8902);stroke-opacity:1;" stroke-width="0.836601"/>
<path d="M210.836 54.195C217.06 54.9689 236.147 56.1067 234.215 44.641C233.345 39.4583 220.959 39.0902 217.052 39.0233" stroke="#A5C4E1" style="stroke:#A5C4E1;stroke:color(display-p3 0.6471 0.7686 0.8824);stroke-opacity:1;" stroke-width="0.836601"/>
<path d="M217.052 39.0233L212.392 38.4795C212.146 38.4497 211.919 38.3341 211.752 38.1532C211.194 37.5397 211.299 36.9345 212.066 36.3378C213.793 35.0034 218.353 35.0954 220.516 35.4259" stroke="#8CB9E3" style="stroke:#8CB9E3;stroke:color(display-p3 0.5490 0.7255 0.8902);stroke-opacity:1;" stroke-width="0.836601"/>
<path d="M220.516 35.4259C222.069 35.557 223.414 36.2597 224.552 37.5341C224.578 37.5643 224.611 37.5884 224.647 37.605C224.683 37.6216 224.722 37.6302 224.761 37.6303L233.847 37.6554C233.908 37.6552 233.968 37.6422 234.023 37.6174C234.078 37.5926 234.128 37.5566 234.168 37.5115C234.208 37.4665 234.238 37.4136 234.257 37.3562C234.275 37.2988 234.281 37.2383 234.273 37.1786C233.483 30.4858 226.468 29.2267 221.072 29.1095" stroke="#A5C4E1" style="stroke:#A5C4E1;stroke:color(display-p3 0.6471 0.7686 0.8824);stroke-opacity:1;" stroke-width="0.836601"/>
<path d="M221.072 29.1095C216.111 28.7874 209.309 28.9004 204.892 31.5022C201.349 33.5854 199.759 39.2659 203.746 41.8091C207.398 44.1391 213.137 44.3608 217.512 44.5407" stroke="#8CB9E3" style="stroke:#8CB9E3;stroke:color(display-p3 0.5490 0.7255 0.8902);stroke-opacity:1;" stroke-width="0.836601"/>
<path d="M221.072 29.1095L221.465 29.2225C221.47 29.2236 221.475 29.2267 221.479 29.231C221.482 29.2353 221.484 29.2405 221.484 29.2455C221.484 29.2505 221.482 29.2549 221.479 29.2576C221.475 29.2603 221.47 29.2613 221.465 29.2601L221.277 29.2852C221.238 29.2905 221.203 29.3103 221.179 29.3407C221.155 29.3711 221.144 29.4097 221.147 29.4484C221.331 31.459 221.121 33.4515 220.516 35.4259" stroke="#327EC5" style="stroke:#327EC5;stroke:color(display-p3 0.1961 0.4941 0.7725);stroke-opacity:1;" stroke-width="0.836601"/>
<path d="M217.052 39.0233L217.349 43.9676C217.357 44.1098 217.43 44.2032 217.567 44.2478C217.603 44.2618 217.633 44.2869 217.659 44.3231C217.692 44.3761 217.679 44.4152 217.621 44.4403C217.557 44.4681 217.52 44.5016 217.512 44.5407" stroke="#327EC5" style="stroke:#327EC5;stroke:color(display-p3 0.1961 0.4941 0.7725);stroke-opacity:1;" stroke-width="0.836601"/>
<path d="M210.836 54.195C210.808 51.6629 211.247 49.2563 212.154 46.9752" stroke="#327EC5" style="stroke:#327EC5;stroke:color(display-p3 0.1961 0.4941 0.7725);stroke-opacity:1;" stroke-width="0.836601"/>
<path d="M141.98 29.281C136.098 29.6324 130.518 32.5689 129.774 38.9814C128.581 49.2214 133.693 54.2912 143.711 54.5004" stroke="#8CB9E3" style="stroke:#8CB9E3;stroke:color(display-p3 0.5490 0.7255 0.8902);stroke-opacity:1;" stroke-width="0.836601"/>
<path d="M143.711 54.5004C151.329 55.1027 162.409 53.6931 162.723 43.6078C162.81 40.8777 162.761 39.0735 162.577 38.195C160.648 28.9171 149.312 28.4821 141.98 29.281" stroke="#A5C4E1" style="stroke:#A5C4E1;stroke:color(display-p3 0.6471 0.7686 0.8824);stroke-opacity:1;" stroke-width="0.836601"/>
<path d="M143.711 54.5004C144.091 54.6231 144.347 54.3624 144.481 53.7182C144.489 53.668 144.469 53.6443 144.418 53.6471C144.385 53.6471 144.346 53.6498 144.301 53.6554C144.237 53.661 144.206 53.6303 144.209 53.5634L144.368 49.0876C144.371 49.0279 144.361 48.9682 144.34 48.9122C144.32 48.8561 144.288 48.8048 144.247 48.7613C143.664 48.1394 143.433 47.4409 143.552 46.6656" stroke="#327EC5" style="stroke:#327EC5;stroke:color(display-p3 0.1961 0.4941 0.7725);stroke-opacity:1;" stroke-width="0.836601"/>
<path d="M143.552 46.6656C146.317 47.1299 152.261 47.2261 153.077 43.6204C154.775 36.1203 147.083 36.1077 142.398 37.1953" stroke="#A5C4E1" style="stroke:#A5C4E1;stroke:color(display-p3 0.6471 0.7686 0.8824);stroke-opacity:1;" stroke-width="0.836601"/>
<path d="M142.398 37.1953C141.938 36.8718 141.784 36.4772 141.938 36.0115C141.966 35.9223 141.934 35.8763 141.842 35.8735C141.758 35.8735 141.727 35.8442 141.75 35.7856C142.62 33.7276 142.696 31.5594 141.98 29.281" stroke="#327EC5" style="stroke:#327EC5;stroke:color(display-p3 0.1961 0.4941 0.7725);stroke-opacity:1;" stroke-width="0.836601"/>
<path d="M142.398 37.1953C140.739 37.6024 139.739 38.4502 139.399 39.7386C138.339 43.7682 139.724 46.0772 143.552 46.6656" stroke="#8CB9E3" style="stroke:#8CB9E3;stroke:color(display-p3 0.5490 0.7255 0.8902);stroke-opacity:1;" stroke-width="0.836601"/>
<path d="M52.2625 54.0612L56.1317 54.0779C56.352 54.0779 56.4622 53.9664 56.4622 53.7433L56.4747 29.9963C56.4747 29.8151 56.3827 29.7244 56.1987 29.7244L52.3879 29.7161" stroke="#A5C4E1" style="stroke:#A5C4E1;stroke:color(display-p3 0.6471 0.7686 0.8824);stroke-opacity:1;" stroke-width="0.836601"/>
<path d="M52.388 29.7161L47.2596 29.7119C47.1258 29.7119 47.0588 29.7788 47.0588 29.9127V53.852C47.0588 53.9887 47.1272 54.057 47.2638 54.057L52.2625 54.0612" stroke="#8CB9E3" style="stroke:#8CB9E3;stroke:color(display-p3 0.5490 0.7255 0.8902);stroke-opacity:1;" stroke-width="0.836601"/>
<path d="M52.388 29.7161C52.6194 30.1037 52.6041 30.483 52.342 30.8539C52.2667 30.957 52.2444 31.07 52.275 31.1927L52.5511 32.3095C52.5678 32.3793 52.6111 32.4155 52.6808 32.4183C52.717 32.4183 52.7561 32.4183 52.7979 32.4183C52.8844 32.4127 52.9262 32.4532 52.9234 32.5396C52.9067 33.7401 52.7017 34.9574 52.7017 36.091C52.7073 40.5333 52.7073 44.9729 52.7017 49.4097C52.7017 49.5017 52.6543 49.7889 52.5595 50.2714C52.4842 50.6562 52.5804 50.995 52.8481 51.2878C52.9485 51.3994 52.9834 51.5277 52.9527 51.6727L52.7352 52.7059C52.7017 52.8648 52.6153 52.9848 52.4758 53.0656C51.9348 53.3891 51.8637 53.721 52.2625 54.0612" stroke="#327EC5" style="stroke:#327EC5;stroke:color(display-p3 0.1961 0.4941 0.7725);stroke-opacity:1;" stroke-width="0.836601"/>
<path d="M70.6008 37.3543C70.653 37.3543 70.703 37.375 70.7398 37.4118C70.7767 37.4487 70.7974 37.4987 70.7974 37.5509V53.8688C70.7974 53.9209 70.8181 53.9709 70.855 54.0078C70.8919 54.0446 70.9419 54.0654 70.994 54.0654H80.0377C80.0898 54.0654 80.1398 54.0446 80.1767 54.0078C80.2136 53.9709 80.2343 53.9209 80.2343 53.8688L80.2928 37.5299C80.2928 37.4778 80.3136 37.4278 80.3504 37.3909C80.3873 37.354 80.4373 37.3333 80.4894 37.3333H91.3067C91.3588 37.3333 91.4088 37.3126 91.4457 37.2758C91.4826 37.2389 91.5033 37.1889 91.5033 37.1367V29.896C91.5033 29.8438 91.4826 29.7938 91.4457 29.7569C91.4088 29.7201 91.3588 29.6993 91.3067 29.6993H59.6832C59.631 29.6993 59.581 29.7201 59.5442 29.7569C59.5073 29.7938 59.4866 29.8438 59.4866 29.896L59.5368 37.1242C59.5368 37.1763 59.5575 37.2263 59.5944 37.2632C59.6312 37.3001 59.6812 37.3208 59.7334 37.3208L70.6008 37.3543Z" stroke="#9ABFE2" style="stroke:#9ABFE2;stroke:color(display-p3 0.6039 0.7490 0.8863);stroke-opacity:1;" stroke-width="0.836601"/>
<path d="M107.896 48.1004L112.519 48.1297C112.582 48.1295 112.645 48.1442 112.703 48.1725C112.76 48.2008 112.81 48.2419 112.849 48.2928L117.124 53.898C117.211 54.0096 117.325 54.0654 117.467 54.0654H126.875C126.915 54.0658 126.954 54.0549 126.988 54.0341C127.022 54.0132 127.05 53.9832 127.068 53.9474C127.086 53.9117 127.093 53.8716 127.089 53.8318C127.085 53.792 127.071 53.7541 127.046 53.7223L122.219 47.4102C122.13 47.2931 122.148 47.1983 122.273 47.1258C129.146 43.2314 128.996 33.1169 121.395 30.239C118.362 29.0886 113.025 29.6993 109.72 29.7035" stroke="#A5C4E1" style="stroke:#A5C4E1;stroke:color(display-p3 0.6471 0.7686 0.8824);stroke-opacity:1;" stroke-width="0.836601"/>
<path d="M109.72 29.7035L94.9501 29.7077C94.8134 29.7077 94.7451 29.776 94.7451 29.9127V53.8646C94.7451 53.9212 94.768 53.9754 94.8088 54.0154C94.8496 54.0554 94.9049 54.0779 94.9626 54.0779L103.952 54.057C104.089 54.057 104.157 53.9887 104.157 53.852V48.6651C104.158 48.5161 104.218 48.3735 104.323 48.2685C104.428 48.1635 104.569 48.1046 104.717 48.1046L107.896 48.1004" stroke="#8CB9E3" style="stroke:#8CB9E3;stroke:color(display-p3 0.5490 0.7255 0.8902);stroke-opacity:1;" stroke-width="0.836601"/>
<path d="M109.72 29.7035L109.591 30.5192C109.579 30.584 109.588 30.6509 109.614 30.7118C109.641 30.7727 109.685 30.825 109.741 30.8622C110.979 31.6779 110.406 34.9992 110.62 36.2708C110.634 36.3434 110.608 36.3977 110.544 36.434L110.423 36.5093C110.317 36.5706 110.325 36.6013 110.448 36.6013H111.586C111.661 36.6013 111.675 36.6292 111.628 36.685C111.619 36.6933 107.219 36.7393 106.767 36.7561" stroke="#327EC5" style="stroke:#327EC5;stroke:color(display-p3 0.1961 0.4941 0.7725);stroke-opacity:1;" stroke-width="0.836601"/>
<path d="M106.767 36.7561L104.496 36.777C104.303 36.7798 104.207 36.876 104.207 37.0656L104.199 40.7299C104.199 40.9028 104.285 40.9893 104.458 40.9893L110.381 40.9935" stroke="#8CB9E3" style="stroke:#8CB9E3;stroke:color(display-p3 0.5490 0.7255 0.8902);stroke-opacity:1;" stroke-width="0.836601"/>
<path d="M110.381 40.9935C110.571 42.3348 110.576 43.7319 110.398 45.1848C110.302 45.9629 110.703 46.9208 109.833 47.7072C109.727 47.802 109.605 47.8369 109.465 47.8118C108.852 47.703 108.329 47.7992 107.896 48.1004" stroke="#327EC5" style="stroke:#327EC5;stroke:color(display-p3 0.1961 0.4941 0.7725);stroke-opacity:1;" stroke-width="0.836601"/>
<path d="M110.381 40.9935C112.226 41.0018 117.94 41.8928 117.819 38.8267C117.714 36.1955 114.962 36.8356 113.326 36.8314C111.134 36.8258 108.948 36.8007 106.767 36.7561" stroke="#A5C4E1" style="stroke:#A5C4E1;stroke:color(display-p3 0.6471 0.7686 0.8824);stroke-opacity:1;" stroke-width="0.836601"/>
<path d="M186.717 54.2829C193.297 53.7265 198.726 50.1082 198.739 42.8675C198.747 38.5701 198.719 34.2463 198.655 29.896C198.652 29.7649 198.587 29.6993 198.459 29.6993H189.503C189.349 29.6993 189.273 29.7746 189.273 29.9252C189.27 32.6135 189.248 35.3018 189.206 37.9901C189.156 41.257 190.151 45.5069 185.813 46.4607" stroke="#A5C4E1" style="stroke:#A5C4E1;stroke:color(display-p3 0.6471 0.7686 0.8824);stroke-opacity:1;" stroke-width="0.836601"/>
<path d="M185.813 46.4607C182.178 47.2471 174.988 47.6152 174.971 42.1438C174.96 38.0695 174.953 33.9925 174.95 29.9127C174.95 29.7705 174.88 29.6993 174.741 29.6993H165.764C165.608 29.6993 165.529 29.7774 165.526 29.9336C165.473 33.2103 165.457 36.4926 165.48 39.7804C165.505 43.4893 165.77 46.0173 166.275 47.3642C168.989 54.6217 180.078 55.2659 186.717 54.2829" stroke="#8CB9E3" style="stroke:#8CB9E3;stroke:color(display-p3 0.5490 0.7255 0.8902);stroke-opacity:1;" stroke-width="0.836601"/>
<path d="M185.813 46.4607L186.186 53.8144C186.194 53.9705 186.272 54.0235 186.42 53.9733C186.478 53.951 186.536 53.951 186.591 53.9733C186.675 54.004 186.717 54.064 186.717 54.1532C186.72 54.1922 186.72 54.2355 186.717 54.2829" stroke="#327EC5" style="stroke:#327EC5;stroke:color(display-p3 0.1961 0.4941 0.7725);stroke-opacity:1;" stroke-width="0.836601"/>
<path d="M222.105 37.3903C222.109 37.3039 221.725 37.2013 221.037 37.1052C220.349 37.0091 219.414 36.9273 218.436 36.8778C217.953 36.8533 217.473 36.8374 217.025 36.8312C216.577 36.8249 216.17 36.8283 215.826 36.8413C215.482 36.8542 215.209 36.8764 215.022 36.9065C214.835 36.9367 214.737 36.9742 214.735 37.017C214.731 37.1034 215.115 37.206 215.803 37.3021C216.491 37.3982 217.426 37.48 218.403 37.5295C218.887 37.554 219.367 37.5699 219.815 37.5761C220.263 37.5824 220.67 37.579 221.014 37.5661C221.357 37.5531 221.631 37.531 221.818 37.5008C222.005 37.4706 222.102 37.4331 222.105 37.3903Z" stroke="#93B5D1" style="stroke:#93B5D1;stroke:color(display-p3 0.5765 0.7098 0.8196);stroke-opacity:1;" stroke-width="0.836601"/>
<path d="M200.366 40.7509L200.274 44.1349C200.273 44.1754 200.281 44.2155 200.296 44.253C200.311 44.2906 200.333 44.3247 200.362 44.3535C200.39 44.3823 200.424 44.4052 200.461 44.4208C200.499 44.4364 200.539 44.4445 200.579 44.4444H204.026C205.094 44.4444 205.136 44.2367 204.152 43.8212C202.609 43.1714 201.417 42.1299 200.575 40.6965C200.441 40.4678 200.372 40.4859 200.366 40.7509Z" stroke="#8A8B8B" style="stroke:#8A8B8B;stroke:color(display-p3 0.5412 0.5451 0.5451);stroke-opacity:1;" stroke-width="0.836601"/>
<path d="M221.114 46.2808C218.939 45.9294 216.228 46.0256 214.019 45.9461C213.986 45.9466 213.954 45.9588 213.929 45.9805C213.903 46.0022 213.887 46.0321 213.881 46.065C213.876 46.0978 213.882 46.1316 213.899 46.1603C213.916 46.1891 213.942 46.211 213.973 46.2222C216.33 46.9668 218.713 47.0505 221.122 46.4732C221.443 46.3951 221.44 46.331 221.114 46.2808Z" stroke="#93B5D1" style="stroke:#93B5D1;stroke:color(display-p3 0.5765 0.7098 0.8196);stroke-opacity:1;" stroke-width="0.836601"/>
<path d="M116.183 38.6552C116.183 38.5819 116.154 38.5117 116.102 38.4599C116.05 38.4082 115.98 38.3791 115.907 38.3791H106.102C106.029 38.3791 105.958 38.4082 105.907 38.4599C105.855 38.5117 105.826 38.5819 105.826 38.6552V39.0484C105.826 39.1216 105.855 39.1918 105.907 39.2436C105.958 39.2954 106.029 39.3244 106.102 39.3244H115.907C115.98 39.3244 116.05 39.2954 116.102 39.2436C116.154 39.1918 116.183 39.1216 116.183 39.0484V38.6552Z" stroke="#8A8B8B" style="stroke:#8A8B8B;stroke:color(display-p3 0.5412 0.5451 0.5451);stroke-opacity:1;" stroke-width="0.836601"/>
<path d="M141.896 39.0818C140.616 39.521 140.582 41.7506 140.746 42.7587C141.277 46.0507 147.53 45.3521 149.643 44.8418C152.747 44.0931 152.563 39.4206 149.258 38.6719C146.771 38.1114 144.316 38.248 141.896 39.0818Z" stroke="#8A8B8B" style="stroke:#8A8B8B;stroke:color(display-p3 0.5412 0.5451 0.5451);stroke-opacity:1;" stroke-width="0.836601"/>
<path d="M222.586 27.4824L220.854 27.428L220.859 21.3668C220.859 21.2106 220.782 21.1326 220.628 21.1326L122.152 21.1242L120.27 20.3085C120.125 20.2444 120.095 20.1454 120.182 20.0115L120.471 19.5639L222.218 19.5597C222.36 19.5597 222.431 19.6309 222.431 19.7731V25.1064C222.432 25.1313 222.44 25.1555 222.454 25.1761C222.468 25.1967 222.487 25.2128 222.51 25.2225C222.533 25.2322 222.559 25.2351 222.583 25.2308C222.608 25.2266 222.631 25.2153 222.649 25.1984L232.86 15.452C232.883 15.429 232.903 15.4014 232.916 15.3708C232.929 15.3403 232.935 15.3074 232.935 15.2742C232.935 15.2411 232.929 15.2082 232.916 15.1777C232.903 15.1471 232.883 15.1195 232.86 15.0965L222.64 5.38771C222.501 5.25386 222.431 5.28314 222.431 5.47556V10.9762C222.431 11.1296 222.353 11.2063 222.197 11.2063L103.864 11.1854C104.285 10.2428 104.801 9.76732 105.412 9.75896C110.983 9.69203 120.082 9.63346 132.706 9.58327L220.587 9.59163C220.66 9.59163 220.73 9.56255 220.782 9.51077C220.834 9.459 220.863 9.38878 220.863 9.31556V1.67739C220.863 1.65716 220.869 1.63744 220.88 1.62062C220.892 1.6038 220.907 1.59061 220.926 1.58264C220.945 1.57467 220.965 1.57227 220.985 1.57572C221.005 1.57917 221.024 1.58833 221.038 1.60209L235.223 15.1341C235.246 15.1564 235.264 15.183 235.277 15.2125C235.289 15.2419 235.296 15.2736 235.296 15.3056C235.296 15.3376 235.289 15.3693 235.277 15.3988C235.264 15.4282 235.246 15.4549 235.223 15.4771L222.586 27.4824Z" fill="#5684A7" style="fill:#5684A7;fill:color(display-p3 0.3373 0.5176 0.6549);fill-opacity:1;"/>
<path d="M120.471 19.5639L42.0225 19.4677C41.5456 19.4677 41.3072 19.7061 41.3072 20.183V53.8562C41.3072 53.9956 41.2375 54.0654 41.098 54.0654H29.348C29.1918 54.0654 29.0789 53.9956 29.0091 53.8562L18.1835 31.9289C18.1711 31.9033 18.1505 31.8828 18.1249 31.8705C18.0993 31.8582 18.0703 31.8549 18.0427 31.8612C18.015 31.8675 17.9903 31.8831 17.9726 31.9052C17.9548 31.9274 17.9452 31.9549 17.9451 31.9833L17.8782 53.8604C17.8771 53.9151 17.8545 53.9673 17.8154 54.0056C17.7763 54.0439 17.7238 54.0654 17.669 54.0654H7.1111C6.7653 54.0654 6.59241 53.8911 6.59241 53.5425V11.909C6.59241 11.4851 6.80435 11.2732 7.22822 11.2732L18.8152 11.2565C18.9434 11.2565 19.0355 11.3122 19.0912 11.4238L29.8959 33.3804C29.9025 33.392 29.9126 33.4013 29.9248 33.4068C29.937 33.4123 29.9506 33.4137 29.9637 33.4109C29.9768 33.4081 29.9886 33.4012 29.9975 33.3912C30.0064 33.3812 30.0118 33.3686 30.0131 33.3553V11.4112C30.0131 11.2802 30.0772 11.2146 30.2055 11.2146L103.864 11.1854L222.197 11.2063C222.353 11.2063 222.431 11.1296 222.431 10.9762V5.47556C222.431 5.28314 222.501 5.25386 222.641 5.38771L232.86 15.0965C232.884 15.1195 232.903 15.1471 232.916 15.1777C232.929 15.2082 232.935 15.2411 232.935 15.2742C232.935 15.3074 232.929 15.3403 232.916 15.3708C232.903 15.4014 232.884 15.429 232.86 15.452L222.649 25.1984C222.631 25.2153 222.608 25.2266 222.583 25.2308C222.559 25.2351 222.533 25.2322 222.51 25.2225C222.488 25.2128 222.468 25.1967 222.454 25.1761C222.44 25.1555 222.432 25.1313 222.431 25.1064V19.7731C222.431 19.6308 222.36 19.5597 222.218 19.5597L120.471 19.5639ZM159.163 16.0544C159.083 16.2635 158.896 16.3751 158.603 16.389C157.306 16.4601 154.541 16.7362 155.42 14.3101C155.467 14.1762 155.552 14.0758 155.675 14.0089C156.573 13.5069 157.475 13.4219 158.381 13.7537C159.64 14.2097 160.268 14.1427 161.477 14.1093C161.636 14.1065 161.693 14.0284 161.648 13.875C160.673 10.3362 150.329 10.3404 153.299 17.234C153.359 17.3697 153.462 17.4816 153.592 17.5519C155.75 18.712 157.935 18.7719 160.146 17.7318C160.389 17.6202 160.517 17.6969 160.531 17.9618C160.556 18.4666 160.87 18.6409 161.472 18.4847C161.601 18.4512 161.666 18.369 161.669 18.2379L161.686 15.0003C161.686 14.8302 161.602 14.7451 161.435 14.7451L157.578 14.7409C157.391 14.7409 157.295 14.8343 157.289 15.0212L157.277 15.5231C157.274 15.7016 157.361 15.7909 157.536 15.7909H158.984C159.17 15.7909 159.23 15.8787 159.163 16.0544ZM172.528 15.8578C172.605 15.8681 172.676 15.9032 172.731 15.9578C172.786 16.0124 172.822 16.0835 172.833 16.1602C172.844 16.2369 172.829 16.3151 172.792 16.3828C172.754 16.4505 172.695 16.5041 172.624 16.5354C171.408 17.0792 170.241 17.0053 169.123 16.3137C169.014 16.244 168.894 16.2092 168.763 16.2092H166.898C166.73 16.2092 166.665 16.2914 166.701 16.4559C167.295 19.1289 171.867 18.4889 173.779 18.1501C174.376 18.0469 174.843 17.7373 175.18 17.2214C177.088 14.3101 170.884 14.2933 169.721 14.239C169.634 14.2342 169.552 14.1981 169.49 14.1373C169.428 14.0765 169.389 13.9952 169.382 13.9085C169.363 13.6519 169.502 13.4735 169.801 13.3731C170.952 12.9854 172.015 13.0858 172.988 13.6742C173.094 13.7384 173.21 13.776 173.335 13.7872L175.168 13.9294C175.214 13.9336 175.261 13.9262 175.304 13.908C175.347 13.8897 175.385 13.8611 175.414 13.8247C175.444 13.7883 175.464 13.7452 175.472 13.6993C175.481 13.6533 175.479 13.606 175.465 13.5613C174.695 10.9511 169.818 11.4782 167.977 12.0638C166.622 12.4905 166.141 14.1678 167.287 15.0839C168.303 15.8996 171.123 15.6612 172.528 15.8578ZM177.958 12.1014C175.377 13.0677 175.653 17.6899 178.514 18.2295C180.769 18.6562 184.588 18.8654 185.111 15.8327C185.136 15.6932 185.077 15.6249 184.935 15.6277L182.697 15.6821C182.566 15.6849 182.467 15.7434 182.4 15.8578C182.203 16.205 182.074 16.3054 181.647 16.3514C180.94 16.4267 180.074 16.6442 179.459 16.3012C178.439 15.7323 178.405 13.9085 179.769 13.6868C180.441 13.578 181.114 13.5892 181.789 13.7203C181.948 13.7509 182.074 13.8095 182.166 13.8959C182.258 13.9852 182.33 14.0953 182.383 14.2264C182.407 14.286 182.448 14.3372 182.501 14.3737C182.554 14.4101 182.616 14.4302 182.68 14.4314L184.989 14.4356C185.148 14.4356 185.211 14.3589 185.178 14.2055C184.512 11.1603 180.145 11.2816 177.958 12.1014ZM191.9 13.8834C191.9 13.9178 191.886 13.9508 191.862 13.9751C191.837 13.9994 191.804 14.0131 191.77 14.0131H188.026C188.009 14.0131 187.992 14.0096 187.976 14.0028C187.96 13.996 187.945 13.9861 187.933 13.9736C187.921 13.9611 187.911 13.9463 187.905 13.9301C187.899 13.9139 187.896 13.8966 187.896 13.8792L187.984 11.9718C187.985 11.9544 187.983 11.937 187.977 11.9205C187.972 11.9041 187.963 11.889 187.951 11.8761C187.939 11.8632 187.925 11.8528 187.909 11.8456C187.893 11.8383 187.876 11.8343 187.859 11.8337L185.592 11.7835C185.574 11.783 185.557 11.7859 185.541 11.7922C185.524 11.7984 185.51 11.8079 185.497 11.82C185.485 11.8321 185.475 11.8466 185.468 11.8626C185.461 11.8786 185.458 11.8958 185.458 11.9132L185.508 18.171C185.508 18.2054 185.522 18.2384 185.546 18.2627C185.57 18.287 185.603 18.3007 185.638 18.3007H187.825C187.843 18.3007 187.86 18.2972 187.876 18.2904C187.892 18.2836 187.906 18.2737 187.919 18.2612C187.931 18.2487 187.94 18.2339 187.946 18.2177C187.953 18.2015 187.956 18.1842 187.955 18.1668L187.909 16.2092C187.908 16.1918 187.911 16.1745 187.918 16.1582C187.924 16.142 187.933 16.1272 187.945 16.1147C187.958 16.1023 187.972 16.0923 187.988 16.0856C188.004 16.0788 188.021 16.0753 188.039 16.0753L191.766 16.1088C191.8 16.1088 191.833 16.1224 191.857 16.1467C191.882 16.1711 191.895 16.204 191.895 16.2384V18.171C191.895 18.2054 191.909 18.2384 191.933 18.2627C191.958 18.287 191.991 18.3007 192.025 18.3007H194.276C194.31 18.3007 194.343 18.287 194.367 18.2627C194.392 18.2384 194.405 18.2054 194.405 18.171V11.9467C194.405 11.9123 194.392 11.8793 194.367 11.855C194.343 11.8307 194.31 11.817 194.276 11.817H192.021C191.987 11.817 191.954 11.8307 191.929 11.855C191.905 11.8793 191.891 11.9123 191.891 11.9467L191.9 13.8834ZM204.388 14.6511C204.39 14.2639 204.316 13.88 204.169 13.5214C204.023 13.1629 203.807 12.8366 203.535 12.5614C203.263 12.2861 202.939 12.0672 202.582 11.9171C202.225 11.767 201.842 11.6887 201.454 11.6867L198.51 11.6713C197.727 11.6672 196.976 11.974 196.42 12.5241C195.864 13.0743 195.549 13.8227 195.545 14.6048L195.541 15.3996C195.539 15.7868 195.613 16.1707 195.76 16.5293C195.906 16.8879 196.121 17.2141 196.394 17.4894C196.666 17.7646 196.99 17.9836 197.347 18.1336C197.704 18.2837 198.087 18.362 198.475 18.364L201.419 18.3794C202.201 18.3835 202.953 18.0767 203.509 17.5266C204.065 16.9765 204.38 16.228 204.384 15.4459L204.388 14.6511ZM214.017 14.7056C214.021 13.9068 213.708 13.1391 213.146 12.5713C212.584 12.0036 211.82 11.6823 211.021 11.6781L208.185 11.6632C207.386 11.659 206.618 11.9723 206.051 12.5342C205.483 13.096 205.162 13.8604 205.157 14.6592L205.154 15.3452C205.15 16.1439 205.463 16.9116 206.025 17.4794C206.587 18.0471 207.351 18.3685 208.15 18.3726L210.986 18.3875C211.785 18.3917 212.552 18.0784 213.12 17.5165C213.688 16.9547 214.009 16.1903 214.013 15.3915L214.017 14.7056ZM107.717 11.8714L107.675 18.1877C107.675 18.202 107.678 18.2161 107.683 18.2293C107.689 18.2425 107.697 18.2545 107.707 18.2646C107.717 18.2747 107.729 18.2827 107.742 18.2882C107.755 18.2937 107.769 18.2965 107.784 18.2965L113.226 18.3341C113.663 18.3369 114.098 18.2554 114.503 18.0943C114.909 17.9331 115.278 17.6954 115.589 17.3947C115.901 17.0941 116.149 16.7364 116.319 16.342C116.489 15.9477 116.578 15.5244 116.58 15.0965V15.0797C116.586 14.2156 116.24 13.3847 115.619 12.7696C114.997 12.1546 114.152 11.8059 113.267 11.8003L107.825 11.7626C107.797 11.7626 107.769 11.7741 107.748 11.7945C107.728 11.8149 107.717 11.8425 107.717 11.8714ZM134.404 16.0586C134.393 16.0835 134.375 16.1047 134.352 16.1196C134.329 16.1345 134.302 16.1424 134.274 16.1424C134.247 16.1424 134.22 16.1345 134.197 16.1196C134.174 16.1047 134.156 16.0835 134.145 16.0586L132.329 11.9007C132.318 11.8757 132.3 11.8545 132.277 11.8397C132.254 11.8249 132.227 11.817 132.2 11.817H129.753C129.729 11.8174 129.705 11.8238 129.684 11.8357C129.664 11.8475 129.646 11.8645 129.634 11.8849C129.621 11.9054 129.614 11.9287 129.613 11.9526C129.612 11.9766 129.617 12.0004 129.627 12.022L132.723 18.2212C132.734 18.2447 132.752 18.2646 132.774 18.2786C132.796 18.2926 132.822 18.3003 132.848 18.3007H135.701C135.727 18.3003 135.753 18.2926 135.775 18.2786C135.797 18.2646 135.815 18.2447 135.826 18.2212L138.98 11.9885C138.991 11.9667 138.996 11.9424 138.995 11.9181C138.993 11.8938 138.986 11.8703 138.973 11.8497C138.96 11.8291 138.942 11.8122 138.92 11.8007C138.899 11.7891 138.875 11.7832 138.851 11.7835L136.324 11.8337C136.297 11.8337 136.27 11.8416 136.247 11.8564C136.224 11.8713 136.206 11.8924 136.194 11.9174L134.404 16.0586ZM145.673 14.4356C145.673 14.4087 145.681 14.3823 145.696 14.3602C145.711 14.3381 145.733 14.3213 145.759 14.3121C145.784 14.3029 145.811 14.3018 145.837 14.3089C145.863 14.3161 145.886 14.3311 145.903 14.3519L149.199 18.2546C149.211 18.2687 149.226 18.2801 149.243 18.288C149.259 18.2959 149.277 18.3002 149.296 18.3007H152.027C152.062 18.3007 152.095 18.287 152.119 18.2627C152.143 18.2384 152.157 18.2054 152.157 18.171V11.9258C152.157 11.9087 152.153 11.8919 152.147 11.8761C152.14 11.8604 152.131 11.8461 152.119 11.8341C152.107 11.822 152.093 11.8125 152.077 11.8059C152.061 11.7994 152.044 11.7961 152.027 11.7961L149.777 11.8254C149.742 11.8254 149.709 11.839 149.685 11.8633C149.661 11.8877 149.647 11.9206 149.647 11.955V14.9333C149.647 14.9599 149.638 14.9856 149.622 15.0071C149.607 15.0285 149.585 15.0447 149.56 15.0533C149.535 15.062 149.508 15.0628 149.482 15.0555C149.456 15.0483 149.434 15.0334 149.417 15.0128L146.819 11.863C146.807 11.8484 146.792 11.8367 146.774 11.8288C146.757 11.8208 146.738 11.8168 146.719 11.817H143.364C143.33 11.817 143.297 11.8307 143.272 11.855C143.248 11.8793 143.235 11.9123 143.235 11.9467L143.285 18.171C143.285 18.2054 143.298 18.2384 143.323 18.2627C143.347 18.287 143.38 18.3007 143.414 18.3007H145.544C145.578 18.3007 145.611 18.287 145.635 18.2627C145.66 18.2384 145.673 18.2054 145.673 18.171V14.4356ZM124.842 16.3179C126.431 15.6152 126.268 13.2559 125.151 12.365C123.913 11.3736 119.161 11.8128 117.476 11.8212C117.358 11.8212 117.3 11.8811 117.3 12.001L117.342 18.058C117.344 18.2198 117.427 18.3007 117.588 18.3007H119.513C119.55 18.3007 119.588 18.2931 119.622 18.2782C119.657 18.2633 119.688 18.2414 119.714 18.214C119.74 18.1865 119.76 18.1541 119.773 18.1186C119.786 18.0832 119.791 18.0455 119.789 18.0078L119.722 16.8533C119.719 16.8245 119.723 16.7955 119.733 16.7682C119.743 16.7409 119.758 16.7158 119.778 16.6946C119.798 16.6734 119.822 16.6565 119.849 16.6449C119.876 16.6333 119.906 16.6274 119.935 16.6275H121.838C122.014 16.6275 122.154 16.6986 122.257 16.8408L123.202 18.1375C123.24 18.1882 123.289 18.2294 123.345 18.2577C123.4 18.2861 123.462 18.3008 123.524 18.3007H125.708C125.906 18.3007 125.946 18.2212 125.829 18.0622L124.758 16.6275C124.74 16.6026 124.727 16.574 124.722 16.5437C124.716 16.5134 124.717 16.4823 124.725 16.4525C124.733 16.4228 124.748 16.3952 124.768 16.3719C124.788 16.3486 124.814 16.3302 124.842 16.3179ZM129.353 11.9257C129.353 11.9114 129.35 11.8973 129.344 11.8841C129.339 11.8709 129.331 11.859 129.321 11.8489C129.31 11.8389 129.298 11.8309 129.285 11.8255C129.272 11.82 129.258 11.8173 129.244 11.8173L127.035 11.8251C127.021 11.8251 127.007 11.828 126.993 11.8335C126.98 11.839 126.968 11.8471 126.958 11.8572C126.948 11.8673 126.94 11.8793 126.935 11.8926C126.929 11.9058 126.927 11.9199 126.927 11.9342L126.948 18.1919C126.948 18.2062 126.951 18.2204 126.957 18.2335C126.962 18.2467 126.97 18.2587 126.981 18.2687C126.991 18.2788 127.003 18.2868 127.016 18.2922C127.029 18.2976 127.043 18.3004 127.058 18.3003L129.266 18.2926C129.28 18.2925 129.295 18.2897 129.308 18.2842C129.321 18.2786 129.333 18.2706 129.343 18.2605C129.353 18.2503 129.361 18.2383 129.366 18.2251C129.372 18.2119 129.375 18.1977 129.375 18.1834L129.353 11.9257ZM141.891 11.9215C141.891 11.9072 141.888 11.8931 141.882 11.8799C141.877 11.8668 141.869 11.8548 141.858 11.8448C141.848 11.8348 141.836 11.8268 141.823 11.8215C141.81 11.8161 141.796 11.8134 141.781 11.8135L139.556 11.829C139.527 11.8293 139.5 11.8409 139.479 11.8614C139.459 11.882 139.448 11.9097 139.448 11.9386L139.492 18.1962C139.492 18.2104 139.495 18.2246 139.5 18.2377C139.506 18.2509 139.514 18.2628 139.524 18.2728C139.534 18.2829 139.546 18.2908 139.559 18.2962C139.573 18.3016 139.587 18.3043 139.601 18.3042L141.826 18.2886C141.855 18.2884 141.883 18.2767 141.903 18.2562C141.923 18.2357 141.935 18.2079 141.934 18.1791L141.891 11.9215ZM217.345 16.2092C217.326 16.2092 217.308 16.2055 217.29 16.1983C217.273 16.1912 217.257 16.1807 217.244 16.1675C217.231 16.1543 217.221 16.1386 217.213 16.1214C217.206 16.1041 217.203 16.0856 217.203 16.0669V11.9592C217.203 11.9215 217.188 11.8853 217.161 11.8587C217.134 11.832 217.098 11.817 217.06 11.817H214.927C214.889 11.817 214.853 11.832 214.826 11.8587C214.8 11.8853 214.785 11.9215 214.785 11.9592L214.793 18.1584C214.793 18.1962 214.808 18.2323 214.835 18.259C214.862 18.2857 214.898 18.3007 214.935 18.3007H222.226C222.245 18.3007 222.264 18.2969 222.282 18.2894C222.299 18.282 222.315 18.2712 222.328 18.2575C222.342 18.2439 222.352 18.2277 222.359 18.21C222.366 18.1922 222.369 18.1733 222.369 18.1542L222.314 16.3472C222.313 16.3102 222.298 16.2751 222.271 16.2493C222.245 16.2235 222.209 16.2091 222.172 16.2092H217.345Z" fill="white" style="fill:white;fill-opacity:1;"/>
<path d="M132.706 9.58327C120.082 9.63346 110.984 9.69203 105.412 9.75895C104.801 9.76732 104.285 10.2428 103.864 11.1854L30.2055 11.2146C30.0773 11.2146 30.0131 11.2802 30.0131 11.4112V33.3553C30.0119 33.3686 30.0064 33.3812 29.9976 33.3912C29.9887 33.4012 29.9769 33.4081 29.9638 33.4109C29.9507 33.4137 29.9371 33.4123 29.9249 33.4068C29.9127 33.4013 29.9026 33.392 29.896 33.3804L19.0913 11.4238C19.0355 11.3122 18.9435 11.2565 18.8152 11.2565L7.22828 11.2732C6.8044 11.2732 6.59246 11.4851 6.59246 11.909V53.5425C6.59246 53.8911 6.76536 54.0654 7.11116 54.0654H17.6691C17.7238 54.0654 17.7764 54.0439 17.8155 54.0056C17.8546 53.9673 17.8771 53.9151 17.8782 53.8604L17.9451 31.9833C17.9452 31.9549 17.9549 31.9274 17.9726 31.9052C17.9904 31.883 18.0151 31.8675 18.0427 31.8612C18.0704 31.8549 18.0994 31.8582 18.125 31.8705C18.1505 31.8828 18.1712 31.9033 18.1836 31.9289L29.0092 53.8562C29.0789 53.9956 29.1919 54.0654 29.348 54.0654H41.0981C41.2375 54.0654 41.3072 53.9956 41.3072 53.8562V20.183C41.3072 19.7061 41.5457 19.4677 42.0225 19.4677L120.471 19.5639L120.182 20.0115C120.096 20.1454 120.125 20.2444 120.27 20.3085L122.152 21.1242H43.2816C43.2131 21.1241 43.1474 21.1508 43.0982 21.1984C43.049 21.246 43.0203 21.3109 43.0181 21.3793C42.7253 32.7822 43.1017 44.1642 42.8215 55.5671C42.8187 55.6814 42.7615 55.7386 42.65 55.7386H28.5951C28.4656 55.7385 28.3386 55.702 28.2285 55.6333C28.1184 55.5645 28.0295 55.4662 27.9718 55.3495L19.8108 38.8099C19.7922 38.7748 19.7625 38.7468 19.7262 38.7303C19.69 38.7138 19.6494 38.7098 19.6107 38.7189C19.572 38.728 19.5373 38.7496 19.5122 38.7805C19.4871 38.8113 19.473 38.8496 19.4719 38.8894L19.4887 55.5169C19.4887 55.6702 19.412 55.7469 19.2586 55.7469L5.54253 55.7344C5.19673 55.7344 5.02384 55.5615 5.02384 55.2157L5.01965 9.78405C5.01965 9.60837 5.1061 9.52192 5.279 9.52471L19.7648 9.58745C19.9321 9.58745 20.052 9.66275 20.1245 9.81333L28.1851 26.2944C28.1994 26.3209 28.222 26.342 28.2495 26.3545C28.2769 26.367 28.3076 26.3701 28.337 26.3635C28.3664 26.3568 28.3928 26.3408 28.4122 26.3177C28.4316 26.2947 28.443 26.2659 28.4445 26.2358V10.0267C28.4446 9.9811 28.4545 9.93609 28.4736 9.89469C28.4926 9.85329 28.5203 9.81647 28.5548 9.78672C28.5893 9.75696 28.6298 9.73498 28.6736 9.72225C28.7173 9.70952 28.7633 9.70635 28.8084 9.71294C29.6157 9.8217 30.4231 9.53726 31.1634 9.53726C55.9213 9.48148 80.6805 9.49682 105.441 9.58327C107.006 9.58745 109.57 9.42013 111.628 9.46614C118.647 9.62092 125.683 9.50379 132.706 9.58327Z" fill="#276BA2" style="fill:#276BA2;fill:color(display-p3 0.1529 0.4196 0.6353);fill-opacity:1;"/>
<path d="M158.984 15.7909H157.536C157.36 15.7909 157.274 15.7016 157.277 15.5231L157.289 15.0212C157.295 14.8343 157.391 14.7409 157.578 14.7409L161.435 14.7451C161.602 14.7451 161.686 14.8302 161.686 15.0003L161.669 18.2379C161.666 18.369 161.601 18.4512 161.472 18.4847C160.87 18.6409 160.556 18.4666 160.531 17.9618C160.517 17.6969 160.389 17.6202 160.146 17.7318C157.935 18.7719 155.75 18.712 153.592 17.5519C153.462 17.4816 153.359 17.3697 153.299 17.234C150.329 10.3404 160.673 10.3362 161.648 13.875C161.693 14.0284 161.636 14.1065 161.477 14.1093C160.268 14.1427 159.64 14.2097 158.381 13.7537C157.475 13.4219 156.573 13.5069 155.675 14.0089C155.552 14.0758 155.467 14.1762 155.42 14.3101C154.541 16.7362 157.306 16.4601 158.603 16.389C158.896 16.3751 159.083 16.2635 159.163 16.0544C159.23 15.8787 159.17 15.7909 158.984 15.7909Z" fill="#141616" style="fill:#141616;fill:color(display-p3 0.0784 0.0863 0.0863);fill-opacity:1;"/>
<path d="M172.528 15.8578C171.123 15.6612 168.303 15.8996 167.287 15.0839C166.141 14.1678 166.622 12.4905 167.977 12.0638C169.817 11.4782 174.695 10.9511 175.465 13.5613C175.478 13.606 175.481 13.6533 175.472 13.6993C175.464 13.7452 175.444 13.7883 175.414 13.8247C175.385 13.8611 175.347 13.8897 175.304 13.908C175.261 13.9262 175.214 13.9336 175.168 13.9294L173.335 13.7872C173.21 13.776 173.094 13.7384 172.988 13.6742C172.015 13.0858 170.952 12.9854 169.801 13.3731C169.502 13.4735 169.363 13.6519 169.382 13.9085C169.389 13.9952 169.428 14.0765 169.49 14.1373C169.552 14.1981 169.634 14.2342 169.721 14.239C170.884 14.2933 177.088 14.3101 175.18 17.2214C174.843 17.7373 174.376 18.0469 173.779 18.1501C171.867 18.4889 167.295 19.1289 166.701 16.4559C166.665 16.2914 166.73 16.2091 166.898 16.2091H168.763C168.894 16.2091 169.014 16.244 169.123 16.3137C170.241 17.0053 171.408 17.0792 172.624 16.5354C172.695 16.5041 172.754 16.4505 172.791 16.3828C172.829 16.3151 172.844 16.2369 172.833 16.1602C172.822 16.0835 172.786 16.0124 172.731 15.9578C172.676 15.9032 172.605 15.8681 172.528 15.8578Z" fill="#141616" style="fill:#141616;fill:color(display-p3 0.0784 0.0863 0.0863);fill-opacity:1;"/>
<path d="M178.514 18.2295C175.653 17.6899 175.377 13.0677 177.958 12.1014C180.145 11.2816 184.512 11.1603 185.178 14.2055C185.211 14.3589 185.148 14.4356 184.989 14.4356L182.68 14.4314C182.616 14.4302 182.554 14.4101 182.501 14.3737C182.448 14.3372 182.407 14.286 182.383 14.2264C182.33 14.0953 182.258 13.9852 182.166 13.8959C182.074 13.8095 181.948 13.7509 181.789 13.7203C181.114 13.5892 180.441 13.578 179.769 13.6868C178.405 13.9085 178.439 15.7323 179.459 16.3012C180.074 16.6442 180.94 16.4267 181.647 16.3514C182.074 16.3054 182.203 16.205 182.4 15.8578C182.467 15.7434 182.566 15.6849 182.697 15.6821L184.935 15.6277C185.077 15.6249 185.136 15.6932 185.111 15.8327C184.588 18.8654 180.769 18.6562 178.514 18.2295Z" fill="#141616" style="fill:#141616;fill:color(display-p3 0.0784 0.0863 0.0863);fill-opacity:1;"/>
<path d="M191.9 13.8834L191.891 11.9467C191.891 11.9123 191.905 11.8793 191.929 11.855C191.954 11.8307 191.987 11.817 192.021 11.817H194.276C194.31 11.817 194.343 11.8307 194.367 11.855C194.392 11.8793 194.405 11.9123 194.405 11.9467V18.171C194.405 18.2054 194.392 18.2384 194.367 18.2627C194.343 18.287 194.31 18.3007 194.276 18.3007H192.025C191.991 18.3007 191.958 18.287 191.933 18.2627C191.909 18.2384 191.895 18.2054 191.895 18.171V16.2384C191.895 16.204 191.882 16.1711 191.857 16.1467C191.833 16.1224 191.8 16.1088 191.766 16.1088L188.039 16.0753C188.021 16.0753 188.004 16.0788 187.988 16.0855C187.972 16.0923 187.958 16.1023 187.945 16.1147C187.933 16.1272 187.924 16.142 187.918 16.1582C187.911 16.1745 187.908 16.1918 187.909 16.2092L187.955 18.1668C187.956 18.1842 187.953 18.2015 187.946 18.2177C187.94 18.2339 187.931 18.2487 187.919 18.2612C187.906 18.2737 187.892 18.2836 187.876 18.2904C187.86 18.2972 187.843 18.3007 187.825 18.3007H185.638C185.603 18.3007 185.57 18.287 185.546 18.2627C185.522 18.2384 185.508 18.2054 185.508 18.171L185.458 11.9132C185.458 11.8958 185.461 11.8786 185.468 11.8626C185.475 11.8466 185.485 11.8321 185.497 11.82C185.51 11.8079 185.524 11.7984 185.541 11.7922C185.557 11.7859 185.574 11.783 185.592 11.7835L187.859 11.8337C187.876 11.8343 187.893 11.8383 187.909 11.8456C187.925 11.8528 187.939 11.8632 187.951 11.8761C187.963 11.889 187.972 11.9041 187.977 11.9205C187.983 11.937 187.985 11.9544 187.984 11.9718L187.896 13.8792C187.896 13.8966 187.899 13.9139 187.905 13.9301C187.911 13.9463 187.921 13.9611 187.933 13.9736C187.945 13.9861 187.96 13.996 187.976 14.0028C187.992 14.0096 188.009 14.0131 188.026 14.0131H191.77C191.804 14.0131 191.837 13.9994 191.862 13.9751C191.886 13.9508 191.9 13.9178 191.9 13.8834Z" fill="#141616" style="fill:#141616;fill:color(display-p3 0.0784 0.0863 0.0863);fill-opacity:1;"/>
<path d="M204.384 15.4459C204.38 16.228 204.065 16.9765 203.509 17.5266C202.953 18.0767 202.201 18.3835 201.419 18.3794L198.475 18.364C198.087 18.362 197.704 18.2837 197.347 18.1336C196.99 17.9836 196.666 17.7646 196.394 17.4894C196.121 17.2141 195.906 16.8878 195.76 16.5293C195.613 16.1707 195.539 15.7868 195.541 15.3996L195.545 14.6048C195.549 13.8227 195.864 13.0743 196.42 12.5241C196.976 11.974 197.727 11.6672 198.51 11.6713L201.454 11.6867C201.842 11.6887 202.225 11.767 202.582 11.9171C202.939 12.0672 203.263 12.2861 203.535 12.5614C203.807 12.8366 204.023 13.1629 204.169 13.5214C204.316 13.88 204.39 14.2639 204.388 14.6511L204.384 15.4459ZM202.031 15.0078C202.029 14.8145 201.973 14.6236 201.867 14.446C201.761 14.2685 201.606 14.1078 201.412 13.9731C201.218 13.8384 200.988 13.7323 200.736 13.661C200.483 13.5896 200.213 13.5544 199.941 13.5572C199.39 13.563 198.864 13.7236 198.478 14.0038C198.092 14.284 197.877 14.6608 197.881 15.0513C197.883 15.2446 197.939 15.4355 198.045 15.613C198.151 15.7906 198.306 15.9513 198.5 16.086C198.694 16.2207 198.924 16.3268 199.176 16.3981C199.429 16.4695 199.699 16.5047 199.971 16.5019C200.522 16.4961 201.048 16.3355 201.434 16.0553C201.82 15.7751 202.035 15.3983 202.031 15.0078Z" fill="#141616" style="fill:#141616;fill:color(display-p3 0.0784 0.0863 0.0863);fill-opacity:1;"/>
<path d="M214.013 15.3915C214.009 16.1903 213.688 16.9547 213.12 17.5165C212.552 18.0784 211.785 18.3917 210.986 18.3875L208.15 18.3726C207.351 18.3685 206.587 18.0471 206.025 17.4794C205.463 16.9116 205.15 16.1439 205.154 15.3452L205.157 14.6592C205.162 13.8604 205.483 13.096 206.051 12.5342C206.618 11.9723 207.386 11.659 208.185 11.6632L211.021 11.6781C211.82 11.6823 212.584 12.0036 213.146 12.5713C213.708 13.1391 214.021 13.9068 214.017 14.7056L214.013 15.3915ZM211.652 15.0385C211.651 14.8473 211.597 14.6581 211.492 14.4817C211.387 14.3052 211.234 14.145 211.04 14.0102C210.846 13.8754 210.616 13.7685 210.363 13.6958C210.111 13.6231 209.84 13.5859 209.566 13.5864C209.293 13.5869 209.022 13.625 208.769 13.6986C208.516 13.7722 208.287 13.8798 208.094 14.0153C207.901 14.1509 207.747 14.3116 207.643 14.4884C207.539 14.6652 207.485 14.8546 207.485 15.0457C207.486 15.2369 207.54 15.4261 207.645 15.6025C207.75 15.779 207.904 15.9392 208.097 16.074C208.291 16.2088 208.521 16.3157 208.774 16.3884C209.027 16.4611 209.298 16.4983 209.571 16.4978C209.845 16.4973 210.116 16.4592 210.368 16.3856C210.621 16.312 210.85 16.2044 211.043 16.0688C211.237 15.9333 211.39 15.7726 211.494 15.5958C211.599 15.419 211.652 15.2296 211.652 15.0385Z" fill="#141616" style="fill:#141616;fill:color(display-p3 0.0784 0.0863 0.0863);fill-opacity:1;"/>
<path d="M107.717 11.8714C107.717 11.8425 107.728 11.8149 107.748 11.7945C107.769 11.7741 107.797 11.7626 107.825 11.7626L113.267 11.8003C114.152 11.8059 114.997 12.1546 115.619 12.7696C116.24 13.3847 116.586 14.2156 116.58 15.0797V15.0965C116.578 15.5244 116.489 15.9477 116.319 16.342C116.149 16.7364 115.901 17.0941 115.589 17.3947C115.278 17.6954 114.909 17.9331 114.503 18.0943C114.098 18.2554 113.664 18.3369 113.226 18.3341L107.784 18.2965C107.769 18.2965 107.755 18.2937 107.742 18.2882C107.729 18.2827 107.717 18.2747 107.707 18.2646C107.697 18.2545 107.689 18.2425 107.683 18.2293C107.678 18.2161 107.675 18.202 107.675 18.1877L107.717 11.8714ZM110.134 14.0173L110.084 15.862C110.083 15.9032 110.09 15.9442 110.105 15.9827C110.12 16.0212 110.142 16.0564 110.17 16.0863C110.199 16.1162 110.232 16.1402 110.27 16.157C110.308 16.1738 110.348 16.183 110.39 16.1841L112.778 16.2468C112.946 16.2515 113.114 16.2248 113.271 16.1682C113.428 16.1116 113.572 16.0263 113.694 15.9171C113.816 15.808 113.914 15.6771 113.982 15.5319C114.05 15.3868 114.087 15.2303 114.092 15.0714V15.0128C114.099 14.6932 113.972 14.3834 113.738 14.1514C113.505 13.9193 113.183 13.7839 112.845 13.7746L110.457 13.7119C110.415 13.7108 110.374 13.7178 110.336 13.7325C110.297 13.7473 110.262 13.7695 110.232 13.7978C110.202 13.8262 110.178 13.8602 110.161 13.8978C110.145 13.9355 110.135 13.9761 110.134 14.0173Z" fill="#141616" style="fill:#141616;fill:color(display-p3 0.0784 0.0863 0.0863);fill-opacity:1;"/>
<path d="M134.404 16.0586L136.195 11.9174C136.206 11.8924 136.224 11.8713 136.247 11.8564C136.27 11.8416 136.297 11.8337 136.324 11.8337L138.851 11.7835C138.875 11.7832 138.899 11.7891 138.92 11.8007C138.942 11.8123 138.96 11.8291 138.973 11.8497C138.986 11.8703 138.993 11.8938 138.995 11.9181C138.996 11.9424 138.991 11.9667 138.98 11.9885L135.826 18.2212C135.815 18.2447 135.797 18.2646 135.775 18.2786C135.753 18.2926 135.727 18.3003 135.701 18.3007H132.848C132.822 18.3003 132.796 18.2926 132.774 18.2786C132.752 18.2646 132.734 18.2447 132.723 18.2212L129.627 12.022C129.617 12.0004 129.612 11.9766 129.613 11.9526C129.614 11.9287 129.621 11.9054 129.634 11.8849C129.646 11.8645 129.664 11.8475 129.684 11.8357C129.705 11.8238 129.729 11.8174 129.753 11.817H132.2C132.227 11.817 132.254 11.8249 132.277 11.8397C132.3 11.8545 132.318 11.8757 132.329 11.9007L134.145 16.0586C134.156 16.0835 134.174 16.1047 134.197 16.1196C134.22 16.1345 134.247 16.1424 134.275 16.1424C134.302 16.1424 134.329 16.1345 134.352 16.1196C134.375 16.1047 134.393 16.0835 134.404 16.0586Z" fill="#141616" style="fill:#141616;fill:color(display-p3 0.0784 0.0863 0.0863);fill-opacity:1;"/>
<path d="M145.673 14.4356V18.171C145.673 18.2054 145.66 18.2384 145.635 18.2627C145.611 18.287 145.578 18.3007 145.544 18.3007H143.414C143.38 18.3007 143.347 18.287 143.323 18.2627C143.298 18.2384 143.285 18.2054 143.285 18.171L143.234 11.9467C143.234 11.9123 143.248 11.8793 143.272 11.855C143.297 11.8307 143.33 11.817 143.364 11.817H146.719C146.738 11.8168 146.757 11.8208 146.774 11.8288C146.792 11.8367 146.807 11.8484 146.819 11.863L149.417 15.0128C149.434 15.0334 149.456 15.0483 149.482 15.0555C149.508 15.0628 149.535 15.062 149.56 15.0533C149.585 15.0447 149.607 15.0285 149.622 15.0071C149.638 14.9856 149.647 14.9599 149.647 14.9333V11.955C149.647 11.9206 149.661 11.8877 149.685 11.8633C149.709 11.839 149.742 11.8254 149.777 11.8254L152.027 11.7961C152.044 11.7961 152.061 11.7994 152.077 11.8059C152.093 11.8125 152.107 11.822 152.119 11.8341C152.131 11.8461 152.14 11.8604 152.147 11.8761C152.153 11.8919 152.157 11.9087 152.157 11.9258V18.171C152.157 18.2054 152.143 18.2384 152.119 18.2627C152.095 18.287 152.062 18.3007 152.027 18.3007H149.296C149.277 18.3002 149.259 18.2959 149.243 18.288C149.226 18.2801 149.211 18.2687 149.199 18.2546L145.903 14.3519C145.886 14.3311 145.863 14.3161 145.837 14.3089C145.811 14.3018 145.784 14.3029 145.759 14.3121C145.733 14.3213 145.711 14.3381 145.696 14.3602C145.681 14.3823 145.673 14.4087 145.673 14.4356Z" fill="#141616" style="fill:#141616;fill:color(display-p3 0.0784 0.0863 0.0863);fill-opacity:1;"/>
<path d="M124.758 16.6275L125.829 18.0622C125.946 18.2212 125.906 18.3007 125.708 18.3007H123.524C123.462 18.3008 123.4 18.2861 123.345 18.2577C123.289 18.2294 123.24 18.1882 123.202 18.1375L122.257 16.8408C122.154 16.6986 122.014 16.6275 121.838 16.6275H119.935C119.906 16.6274 119.876 16.6333 119.849 16.6449C119.822 16.6565 119.798 16.6734 119.778 16.6946C119.758 16.7158 119.743 16.7409 119.733 16.7682C119.723 16.7955 119.72 16.8245 119.722 16.8533L119.789 18.0078C119.791 18.0455 119.786 18.0832 119.773 18.1186C119.76 18.1541 119.74 18.1865 119.714 18.214C119.688 18.2414 119.657 18.2633 119.622 18.2782C119.588 18.2931 119.55 18.3007 119.513 18.3007H117.588C117.427 18.3007 117.344 18.2198 117.342 18.058L117.3 12.001C117.3 11.8811 117.358 11.8212 117.476 11.8212C119.161 11.8128 123.913 11.3736 125.151 12.365C126.268 13.2559 126.431 15.6152 124.842 16.3179C124.814 16.3302 124.788 16.3486 124.768 16.3719C124.748 16.3952 124.733 16.4228 124.725 16.4525C124.717 16.4823 124.716 16.5134 124.722 16.5437C124.727 16.574 124.74 16.6026 124.758 16.6275ZM123.474 13.8416C123.474 13.8092 123.468 13.7771 123.455 13.7471C123.443 13.7172 123.425 13.69 123.402 13.6671C123.379 13.6441 123.352 13.626 123.322 13.6136C123.292 13.6012 123.26 13.5948 123.227 13.5948H119.99C119.924 13.5948 119.861 13.6208 119.815 13.6671C119.769 13.7133 119.743 13.7761 119.743 13.8416V14.6029C119.743 14.6353 119.749 14.6674 119.762 14.6973C119.774 14.7273 119.792 14.7545 119.815 14.7774C119.838 14.8003 119.865 14.8185 119.895 14.8309C119.925 14.8433 119.957 14.8497 119.99 14.8497H123.227C123.26 14.8497 123.292 14.8433 123.322 14.8309C123.352 14.8185 123.379 14.8003 123.402 14.7774C123.425 14.7545 123.443 14.7273 123.455 14.6973C123.468 14.6674 123.474 14.6353 123.474 14.6029V13.8416Z" fill="#141616" style="fill:#141616;fill:color(display-p3 0.0784 0.0863 0.0863);fill-opacity:1;"/>
<path d="M129.244 11.8173L127.035 11.8251C126.975 11.8253 126.926 11.8741 126.927 11.9342L126.948 18.1919C126.949 18.252 126.998 18.3005 127.058 18.3003L129.266 18.2926C129.326 18.2924 129.375 18.2435 129.375 18.1835L129.353 11.9257C129.353 11.8657 129.304 11.8171 129.244 11.8173Z" fill="#141616" style="fill:#141616;fill:color(display-p3 0.0784 0.0863 0.0863);fill-opacity:1;"/>
<path d="M141.781 11.8135L139.556 11.829C139.496 11.8294 139.448 11.8785 139.448 11.9385L139.492 18.1962C139.492 18.2562 139.541 18.3046 139.601 18.3042L141.826 18.2886C141.887 18.2882 141.935 18.2392 141.934 18.1791L141.891 11.9215C141.89 11.8614 141.841 11.8131 141.781 11.8135Z" fill="#141616" style="fill:#141616;fill:color(display-p3 0.0784 0.0863 0.0863);fill-opacity:1;"/>
<path d="M217.345 16.2092H222.172C222.209 16.2091 222.245 16.2235 222.271 16.2493C222.298 16.2751 222.313 16.3102 222.314 16.3472L222.369 18.1542C222.369 18.1733 222.366 18.1922 222.359 18.21C222.352 18.2277 222.342 18.2439 222.328 18.2575C222.315 18.2712 222.299 18.282 222.282 18.2894C222.264 18.2969 222.245 18.3007 222.226 18.3007H214.935C214.898 18.3007 214.862 18.2857 214.835 18.259C214.808 18.2323 214.793 18.1962 214.793 18.1584L214.785 11.9592C214.785 11.9215 214.8 11.8853 214.826 11.8587C214.853 11.832 214.889 11.817 214.927 11.817H217.06C217.098 11.817 217.134 11.832 217.161 11.8587C217.188 11.8853 217.203 11.9215 217.203 11.9592V16.0669C217.203 16.0856 217.206 16.1041 217.213 16.1214C217.221 16.1386 217.231 16.1543 217.244 16.1675C217.257 16.1807 217.273 16.1912 217.29 16.1983C217.308 16.2055 217.326 16.2092 217.345 16.2092Z" fill="#141616" style="fill:#141616;fill:color(display-p3 0.0784 0.0863 0.0863);fill-opacity:1;"/>
<path d="M123.227 13.5948H119.99C119.853 13.5948 119.743 13.7053 119.743 13.8416V14.6029C119.743 14.7392 119.853 14.8497 119.99 14.8497H123.227C123.363 14.8497 123.474 14.7392 123.474 14.6029V13.8416C123.474 13.7053 123.363 13.5948 123.227 13.5948Z" fill="white" style="fill:white;fill-opacity:1;"/>
<path d="M199.972 16.5019C201.117 16.4899 202.039 15.821 202.031 15.0078C202.022 14.1947 201.086 13.5452 199.941 13.5572C198.795 13.5692 197.873 14.2381 197.881 15.0513C197.89 15.8644 198.826 16.5139 199.972 16.5019Z" fill="white" style="fill:white;fill-opacity:1;"/>
<path d="M110.134 14.0173C110.135 13.9761 110.145 13.9355 110.161 13.8978C110.178 13.8602 110.202 13.8262 110.232 13.7978C110.262 13.7695 110.297 13.7473 110.336 13.7325C110.374 13.7178 110.415 13.7108 110.457 13.7119L112.845 13.7746C113.183 13.7839 113.505 13.9193 113.738 14.1514C113.972 14.3834 114.099 14.6932 114.092 15.0128V15.0714C114.087 15.2303 114.05 15.3868 113.982 15.5319C113.914 15.6771 113.816 15.808 113.694 15.9171C113.572 16.0263 113.428 16.1116 113.271 16.1682C113.114 16.2248 112.946 16.2515 112.778 16.2468L110.39 16.1841C110.348 16.183 110.308 16.1738 110.27 16.157C110.232 16.1402 110.199 16.1162 110.17 16.0863C110.142 16.0564 110.12 16.0212 110.105 15.9827C110.09 15.9442 110.083 15.9032 110.084 15.862L110.134 14.0173Z" fill="white" style="fill:white;fill-opacity:1;"/>
<path d="M209.571 16.4978C210.722 16.4958 211.653 15.8424 211.652 15.0385C211.65 14.2345 210.717 13.5844 209.566 13.5864C208.416 13.5884 207.484 14.2418 207.485 15.0457C207.487 15.8497 208.421 16.4998 209.571 16.4978Z" fill="white" style="fill:white;fill-opacity:1;"/>
<path d="M220.854 27.428L222.586 27.4823C229.944 28.3482 235.859 30.4105 236.114 39.0065C236.117 39.146 236.05 39.2157 235.913 39.2157H231.107C230.82 39.2157 230.804 39.2812 231.061 39.4123C232.998 40.412 235.303 41.9263 235.717 43.9216C237.98 54.8016 224.945 56.3911 217.558 56.228C209.937 56.0606 202.173 55.7971 199.918 46.8539C199.871 46.6559 199.817 46.6545 199.755 46.8497C196.806 56.5668 184.333 56.914 176.339 55.8097C170.181 54.9563 165.781 51.8651 164.25 46.0005C164.186 45.7551 164.123 45.7565 164.062 46.0047C162.46 52.4214 157.34 55.1739 151.186 55.8975C143.297 56.822 132.141 56.3744 128.732 47.4771C128.515 46.9082 128.268 45.6896 127.992 43.8212C127.955 43.5786 127.882 43.566 127.77 43.7835C126.998 45.2671 125.946 46.5192 124.616 47.5399C124.592 47.5581 124.572 47.5811 124.556 47.6074C124.541 47.6336 124.531 47.6628 124.527 47.6931C124.524 47.7234 124.526 47.7543 124.534 47.784C124.542 47.8137 124.555 47.8416 124.574 47.8661L130.276 55.3077C130.435 55.5169 130.383 55.6228 130.121 55.6256L116.735 55.7302C116.61 55.7302 116.509 55.6814 116.434 55.5838L112 49.8405C111.914 49.729 111.799 49.6732 111.657 49.6732H106.207C106.112 49.6732 106.022 49.7107 105.955 49.7773C105.888 49.844 105.851 49.9345 105.851 50.0288L105.788 55.5001C105.788 55.6591 105.707 55.7386 105.546 55.7386H93.3982C93.2644 55.7386 93.1974 55.673 93.1974 55.542L93.0887 39.224C93.0887 39.079 93.0162 39.0065 92.8712 39.0065H82.0915C81.9521 39.0065 81.8824 39.0763 81.8824 39.2157V55.3203C81.8824 55.5322 81.7764 55.6382 81.5645 55.6382L69.4463 55.6549C69.3013 55.6549 69.2288 55.581 69.2288 55.4332V39.2157C69.2288 39.0763 69.1591 39.0065 69.0196 39.0065H58.3572C58.2177 39.0065 58.148 39.0749 58.148 39.2115L58.1355 55.383C58.1355 55.5587 58.0476 55.6465 57.8719 55.6465L45.6994 55.6382C45.56 55.6382 45.4902 55.5671 45.4902 55.4248V28.5448C45.4902 28.1349 45.6952 27.9313 46.1051 27.9341C69.8395 28.0401 93.1723 28.0666 116.104 28.0136C122.11 27.9969 126.544 29.7956 128.573 35.9948C128.623 36.1537 128.68 36.1565 128.745 36.0031C132.196 27.6915 142.176 26.834 150.07 27.6288C155.963 28.2186 161.075 30.0298 163.514 35.6894C163.627 35.9529 163.606 36.2708 163.727 36.526C163.735 36.5407 163.747 36.5525 163.762 36.5597C163.776 36.5668 163.793 36.5689 163.809 36.5656C163.826 36.5623 163.84 36.5537 163.851 36.5413C163.862 36.5288 163.868 36.5132 163.869 36.4967V28.3482C163.869 28.268 163.901 28.1909 163.959 28.1338C164.016 28.0766 164.093 28.044 164.175 28.0429L176.314 27.9508C176.439 27.9508 176.502 28.0136 176.502 28.1391C176.53 32.6512 176.572 37.1632 176.627 41.6753C176.639 42.6876 176.774 43.3973 177.033 43.8044C178.234 45.7161 183.588 45.348 185.617 44.8586C187.244 44.4695 187.6 43.3987 187.604 41.7757C187.609 37.2357 187.611 32.7069 187.608 28.1893C187.608 28.1416 187.627 28.0958 187.661 28.0621C187.694 28.0284 187.74 28.0094 187.788 28.0094L199.931 28.0345C200.143 28.0345 200.25 28.1405 200.253 28.3524L200.287 34.2965C200.287 34.4331 200.321 34.4415 200.391 34.3216C201.734 31.9289 203.152 30.3352 205.846 29.2685C210.577 27.3945 216.153 27.2356 220.854 27.428ZM217.512 44.5407L223.615 45.1597C223.832 45.1808 224.036 45.2832 224.194 45.4498C224.351 45.6164 224.453 45.8373 224.481 46.0758C224.816 48.9161 215.801 48.2468 214.488 48.0167C213.58 47.8536 212.94 47.4646 212.154 46.9752L211.434 46.1762C211.337 46.0674 211.215 46.0131 211.07 46.0131H201.726C201.564 46.0131 201.493 46.0925 201.512 46.2515C202.102 51.3882 206.222 53.5132 210.836 54.195C217.06 54.9689 236.147 56.1067 234.215 44.641C233.345 39.4583 220.959 39.0902 217.052 39.0233L212.392 38.4795C212.146 38.4497 211.919 38.3341 211.752 38.1532C211.194 37.5397 211.299 36.9346 212.066 36.3378C213.794 35.0034 218.353 35.0954 220.516 35.4259C222.069 35.5569 223.414 36.2597 224.552 37.5341C224.578 37.5643 224.611 37.5884 224.647 37.605C224.683 37.6216 224.722 37.6302 224.761 37.6303L233.847 37.6554C233.908 37.6552 233.968 37.6422 234.023 37.6174C234.078 37.5926 234.128 37.5566 234.168 37.5115C234.208 37.4665 234.238 37.4136 234.257 37.3562C234.275 37.2988 234.281 37.2383 234.274 37.1786C233.483 30.4857 226.468 29.2267 221.072 29.1095C216.111 28.7874 209.309 28.9004 204.892 31.5022C201.349 33.5854 199.76 39.2659 203.746 41.8091C207.398 44.1391 213.137 44.3608 217.512 44.5407ZM141.98 29.281C136.098 29.6324 130.518 32.5689 129.774 38.9814C128.581 49.2214 133.693 54.2912 143.711 54.5004C151.329 55.1027 162.409 53.6931 162.723 43.6078C162.81 40.8777 162.761 39.0735 162.577 38.195C160.648 28.9171 149.312 28.4821 141.98 29.281ZM52.2625 54.0612L56.1318 54.0779C56.3521 54.0779 56.4623 53.9664 56.4623 53.7433L56.4748 29.9963C56.4748 29.8151 56.3828 29.7244 56.1987 29.7244L52.388 29.7161L47.2596 29.7119C47.1258 29.7119 47.0589 29.7788 47.0589 29.9127V53.852C47.0589 53.9887 47.1272 54.057 47.2638 54.057L52.2625 54.0612ZM70.6008 37.3542C70.653 37.3542 70.703 37.375 70.7398 37.4118C70.7767 37.4487 70.7974 37.4987 70.7974 37.5508V53.8688C70.7974 53.9209 70.8181 53.9709 70.855 54.0078C70.8919 54.0446 70.9419 54.0654 70.994 54.0654H80.0377C80.0898 54.0654 80.1398 54.0446 80.1767 54.0078C80.2136 53.9709 80.2343 53.9209 80.2343 53.8688L80.2928 37.5299C80.2928 37.4778 80.3136 37.4278 80.3504 37.3909C80.3873 37.354 80.4373 37.3333 80.4894 37.3333H91.3067C91.3588 37.3333 91.4089 37.3126 91.4457 37.2757C91.4826 37.2389 91.5033 37.1889 91.5033 37.1367V29.8959C91.5033 29.8438 91.4826 29.7938 91.4457 29.7569C91.4089 29.7201 91.3588 29.6993 91.3067 29.6993H59.6832C59.631 29.6993 59.581 29.7201 59.5442 29.7569C59.5073 29.7938 59.4866 29.8438 59.4866 29.8959L59.5368 37.1242C59.5368 37.1763 59.5575 37.2263 59.5944 37.2632C59.6312 37.3001 59.6812 37.3208 59.7334 37.3208L70.6008 37.3542ZM107.897 48.1004L112.519 48.1297C112.582 48.1295 112.645 48.1442 112.703 48.1725C112.76 48.2008 112.81 48.2419 112.849 48.2928L117.124 53.898C117.211 54.0096 117.325 54.0654 117.467 54.0654H126.875C126.915 54.0658 126.954 54.0549 126.988 54.0341C127.022 54.0132 127.05 53.9832 127.068 53.9474C127.086 53.9117 127.093 53.8716 127.089 53.8318C127.086 53.792 127.071 53.7541 127.046 53.7223L122.219 47.4102C122.13 47.2931 122.148 47.1983 122.274 47.1258C129.146 43.2314 128.996 33.1169 121.395 30.239C118.362 29.0886 113.025 29.6993 109.72 29.7035L94.9501 29.7077C94.8135 29.7077 94.7451 29.776 94.7451 29.9127V53.8646C94.7451 53.9212 94.7681 53.9754 94.8088 54.0154C94.8496 54.0554 94.905 54.0779 94.9627 54.0779L103.952 54.057C104.089 54.057 104.157 53.9887 104.157 53.852V48.6651C104.158 48.5161 104.218 48.3735 104.323 48.2685C104.428 48.1635 104.569 48.1046 104.717 48.1046L107.897 48.1004ZM186.717 54.2829C193.297 53.7265 198.726 50.1082 198.739 42.8674C198.747 38.5701 198.719 34.2463 198.655 29.8959C198.652 29.7649 198.587 29.6993 198.459 29.6993H189.503C189.349 29.6993 189.273 29.7746 189.273 29.9252C189.27 32.6135 189.248 35.3018 189.206 37.9901C189.156 41.257 190.151 45.5069 185.813 46.4607C182.178 47.2471 174.988 47.6152 174.971 42.1438C174.96 38.0695 174.953 33.9925 174.95 29.9127C174.95 29.7705 174.88 29.6993 174.741 29.6993H165.764C165.608 29.6993 165.529 29.7774 165.526 29.9336C165.473 33.2103 165.457 36.4925 165.48 39.7804C165.505 43.4893 165.77 46.0173 166.275 47.3642C168.989 54.6217 180.078 55.2659 186.717 54.2829ZM222.105 37.3903C222.109 37.3039 221.725 37.2013 221.037 37.1052C220.349 37.0091 219.414 36.9273 218.436 36.8778C217.953 36.8533 217.473 36.8374 217.025 36.8312C216.577 36.8249 216.17 36.8283 215.826 36.8413C215.482 36.8542 215.209 36.8764 215.022 36.9065C214.835 36.9367 214.737 36.9742 214.735 37.017C214.731 37.1034 215.115 37.206 215.803 37.3021C216.491 37.3982 217.426 37.48 218.403 37.5295C218.887 37.554 219.367 37.5699 219.815 37.5761C220.263 37.5824 220.67 37.579 221.014 37.5661C221.357 37.5531 221.631 37.531 221.818 37.5008C222.005 37.4706 222.102 37.4331 222.105 37.3903ZM200.366 40.7508L200.274 44.1349C200.273 44.1754 200.281 44.2155 200.296 44.253C200.311 44.2906 200.334 44.3247 200.362 44.3535C200.39 44.3823 200.424 44.4052 200.462 44.4208C200.499 44.4364 200.539 44.4444 200.579 44.4444H204.026C205.094 44.4444 205.136 44.2367 204.152 43.8212C202.61 43.1714 201.417 42.1298 200.575 40.6965C200.441 40.4678 200.372 40.4859 200.366 40.7508ZM221.114 46.2808C218.939 45.9294 216.228 46.0256 214.019 45.9461C213.986 45.9466 213.954 45.9588 213.929 45.9805C213.903 46.0022 213.887 46.0321 213.881 46.065C213.876 46.0978 213.882 46.1316 213.899 46.1603C213.916 46.1891 213.942 46.211 213.973 46.2222C216.33 46.9668 218.713 47.0505 221.122 46.4732C221.443 46.3951 221.44 46.331 221.114 46.2808Z" fill="white" style="fill:white;fill-opacity:1;"/>
<path d="M221.072 29.1095L221.465 29.2225C221.47 29.2236 221.475 29.2267 221.479 29.231C221.482 29.2353 221.484 29.2405 221.484 29.2455C221.484 29.2505 221.482 29.2549 221.479 29.2576C221.475 29.2603 221.47 29.2612 221.465 29.2601L221.277 29.2852C221.238 29.2905 221.203 29.3103 221.179 29.3407C221.155 29.3711 221.144 29.4097 221.147 29.4484C221.331 31.459 221.121 33.4515 220.516 35.4259C218.353 35.0954 213.793 35.0034 212.066 36.3378C211.299 36.9346 211.194 37.5397 211.752 38.1532C211.919 38.3341 212.146 38.4497 212.392 38.4795L217.052 39.0233L217.349 43.9676C217.357 44.1098 217.43 44.2032 217.567 44.2478C217.603 44.2618 217.633 44.2869 217.659 44.3231C217.692 44.3761 217.679 44.4152 217.621 44.4403C217.557 44.4681 217.521 44.5016 217.512 44.5407C213.137 44.3608 207.398 44.1391 203.746 41.8091C199.759 39.2659 201.349 33.5854 204.892 31.5022C209.309 28.9004 216.111 28.7874 221.072 29.1095Z" fill="#1973C7" style="fill:#1973C7;fill:color(display-p3 0.0980 0.4510 0.7804);fill-opacity:1;"/>
<path d="M143.711 54.5004C144.091 54.6231 144.347 54.3623 144.481 53.7182C144.489 53.668 144.468 53.6443 144.418 53.6471C144.385 53.6471 144.346 53.6498 144.301 53.6554C144.237 53.661 144.206 53.6303 144.209 53.5634L144.368 49.0876C144.371 49.0278 144.361 48.9682 144.34 48.9122C144.32 48.8561 144.288 48.8048 144.247 48.7613C143.664 48.1394 143.432 47.4409 143.552 46.6656C146.317 47.1299 152.261 47.2261 153.077 43.6204C154.775 36.1203 147.083 36.1077 142.398 37.1953C141.938 36.8718 141.784 36.4772 141.938 36.0115C141.966 35.9223 141.934 35.8763 141.842 35.8735C141.758 35.8735 141.727 35.8442 141.75 35.7856C142.62 33.7276 142.696 31.5594 141.98 29.281C149.312 28.4821 160.648 28.9171 162.577 38.195C162.761 39.0735 162.81 40.8777 162.723 43.6078C162.409 53.6931 151.329 55.1027 143.711 54.5004Z" fill="#4A88C3" style="fill:#4A88C3;fill:color(display-p3 0.2902 0.5333 0.7647);fill-opacity:1;"/>
<path d="M221.072 29.1095C226.468 29.2267 233.483 30.4858 234.273 37.1786C234.281 37.2383 234.275 37.2988 234.257 37.3562C234.238 37.4136 234.208 37.4665 234.168 37.5115C234.128 37.5566 234.078 37.5926 234.023 37.6174C233.968 37.6422 233.908 37.6552 233.847 37.6554L224.761 37.6303C224.722 37.6302 224.683 37.6216 224.647 37.605C224.611 37.5884 224.578 37.5643 224.552 37.5341C223.414 36.2597 222.069 35.557 220.516 35.4259C221.121 33.4515 221.331 31.459 221.147 29.4484C221.144 29.4097 221.155 29.3711 221.179 29.3407C221.203 29.3103 221.238 29.2905 221.277 29.2852L221.465 29.2601C221.47 29.2613 221.475 29.2603 221.479 29.2576C221.482 29.2549 221.484 29.2505 221.484 29.2455C221.484 29.2405 221.482 29.2353 221.479 29.231C221.475 29.2267 221.47 29.2236 221.465 29.2225L221.072 29.1095Z" fill="#4A88C3" style="fill:#4A88C3;fill:color(display-p3 0.2902 0.5333 0.7647);fill-opacity:1;"/>
<path d="M141.98 29.281C142.696 31.5594 142.62 33.7276 141.75 35.7856C141.727 35.8442 141.758 35.8735 141.842 35.8735C141.934 35.8763 141.966 35.9223 141.938 36.0115C141.784 36.4772 141.938 36.8718 142.398 37.1953C140.739 37.6024 139.739 38.4502 139.399 39.7386C138.339 43.7682 139.724 46.0772 143.552 46.6656C143.432 47.4409 143.664 48.1394 144.247 48.7613C144.288 48.8048 144.32 48.8561 144.34 48.9122C144.361 48.9682 144.371 49.0278 144.368 49.0876L144.209 53.5634C144.206 53.6303 144.237 53.661 144.301 53.6554C144.346 53.6498 144.385 53.6471 144.418 53.6471C144.468 53.6443 144.489 53.668 144.481 53.7182C144.347 54.3624 144.091 54.6231 143.711 54.5004C133.693 54.2912 128.581 49.2214 129.774 38.9814C130.518 32.5689 136.098 29.6324 141.98 29.281Z" fill="#1973C7" style="fill:#1973C7;fill:color(display-p3 0.0980 0.4510 0.7804);fill-opacity:1;"/>
<path d="M52.388 29.7161C52.6194 30.1037 52.6041 30.483 52.342 30.8539C52.2667 30.957 52.2444 31.07 52.275 31.1927L52.5511 32.3095C52.5679 32.3793 52.6111 32.4155 52.6808 32.4183C52.7171 32.4183 52.7561 32.4183 52.7979 32.4183C52.8844 32.4127 52.9262 32.4532 52.9234 32.5396C52.9067 33.7401 52.7017 34.9574 52.7017 36.091C52.7073 40.5333 52.7073 44.9729 52.7017 49.4097C52.7017 49.5017 52.6543 49.7889 52.5595 50.2714C52.4842 50.6562 52.5804 50.995 52.8481 51.2878C52.9485 51.3994 52.9834 51.5277 52.9527 51.6727L52.7352 52.7059C52.7017 52.8648 52.6153 52.9848 52.4758 53.0656C51.9348 53.3891 51.8637 53.721 52.2625 54.0612L47.2638 54.057C47.1272 54.057 47.0588 53.9887 47.0588 53.852V29.9127C47.0588 29.7788 47.1258 29.7119 47.2596 29.7119L52.388 29.7161Z" fill="#1973C7" style="fill:#1973C7;fill:color(display-p3 0.0980 0.4510 0.7804);fill-opacity:1;"/>
<path d="M52.388 29.7161L56.1987 29.7244C56.3828 29.7244 56.4748 29.8151 56.4748 29.9963L56.4622 53.7433C56.4622 53.9664 56.3521 54.0779 56.1318 54.0779L52.2625 54.0612C51.8637 53.721 51.9348 53.3891 52.4758 53.0656C52.6153 52.9848 52.7017 52.8648 52.7352 52.7059L52.9527 51.6727C52.9834 51.5277 52.9485 51.3994 52.8481 51.2878C52.5804 50.995 52.4842 50.6562 52.5595 50.2714C52.6543 49.7889 52.7017 49.5017 52.7017 49.4097C52.7073 44.9729 52.7073 40.5333 52.7017 36.091C52.7017 34.9574 52.9067 33.7401 52.9234 32.5396C52.9262 32.4532 52.8844 32.4127 52.7979 32.4183C52.7561 32.4183 52.717 32.4183 52.6808 32.4183C52.6111 32.4155 52.5678 32.3793 52.5511 32.3095L52.275 31.1927C52.2444 31.07 52.2667 30.957 52.342 30.8539C52.6041 30.483 52.6194 30.1037 52.388 29.7161Z" fill="#4A88C3" style="fill:#4A88C3;fill:color(display-p3 0.2902 0.5333 0.7647);fill-opacity:1;"/>
<path d="M70.6008 37.3543L59.7334 37.3208C59.6812 37.3208 59.6312 37.3001 59.5944 37.2632C59.5575 37.2263 59.5368 37.1763 59.5368 37.1242L59.4866 29.896C59.4866 29.8438 59.5073 29.7938 59.5442 29.7569C59.581 29.7201 59.631 29.6993 59.6832 29.6993H91.3067C91.3588 29.6993 91.4088 29.7201 91.4457 29.7569C91.4826 29.7938 91.5033 29.8438 91.5033 29.896V37.1367C91.5033 37.1889 91.4826 37.2389 91.4457 37.2758C91.4088 37.3126 91.3588 37.3333 91.3067 37.3333H80.4894C80.4373 37.3333 80.3873 37.354 80.3504 37.3909C80.3136 37.4278 80.2928 37.4778 80.2928 37.5299L80.2343 53.8688C80.2343 53.9209 80.2136 53.9709 80.1767 54.0078C80.1398 54.0446 80.0898 54.0654 80.0377 54.0654H70.994C70.9419 54.0654 70.8919 54.0446 70.855 54.0078C70.8181 53.9709 70.7974 53.9209 70.7974 53.8688V37.5509C70.7974 37.4987 70.7767 37.4487 70.7398 37.4118C70.703 37.375 70.653 37.3543 70.6008 37.3543Z" fill="#347EC5" style="fill:#347EC5;fill:color(display-p3 0.2039 0.4941 0.7725);fill-opacity:1;"/>
<path d="M109.72 29.7035L109.591 30.5192C109.579 30.584 109.588 30.6509 109.614 30.7118C109.641 30.7727 109.685 30.825 109.741 30.8622C110.979 31.6779 110.406 34.9992 110.62 36.2708C110.634 36.3434 110.608 36.3977 110.544 36.434L110.423 36.5093C110.317 36.5706 110.325 36.6013 110.448 36.6013H111.586C111.661 36.6013 111.675 36.6292 111.628 36.685C111.619 36.6933 107.219 36.7393 106.767 36.7561L104.496 36.777C104.303 36.7798 104.207 36.876 104.207 37.0656L104.199 40.7299C104.199 40.9028 104.285 40.9893 104.458 40.9893L110.381 40.9935C110.571 42.3348 110.576 43.7319 110.398 45.1848C110.302 45.9629 110.703 46.9208 109.833 47.7072C109.727 47.802 109.605 47.8369 109.465 47.8118C108.852 47.703 108.329 47.7992 107.896 48.1004L104.717 48.1046C104.569 48.1046 104.428 48.1635 104.323 48.2685C104.218 48.3735 104.158 48.5161 104.157 48.6651V53.852C104.157 53.9887 104.089 54.057 103.952 54.057L94.9626 54.0779C94.9049 54.0779 94.8496 54.0554 94.8088 54.0154C94.768 53.9754 94.7451 53.9212 94.7451 53.8646V29.9127C94.7451 29.776 94.8134 29.7077 94.9501 29.7077L109.72 29.7035Z" fill="#1973C7" style="fill:#1973C7;fill:color(display-p3 0.0980 0.4510 0.7804);fill-opacity:1;"/>
<path d="M109.72 29.7035C113.025 29.6993 118.362 29.0886 121.395 30.239C128.996 33.1169 129.146 43.2314 122.273 47.1258C122.148 47.1983 122.13 47.2931 122.219 47.4102L127.046 53.7223C127.071 53.7541 127.085 53.792 127.089 53.8318C127.093 53.8716 127.086 53.9117 127.068 53.9474C127.05 53.9832 127.022 54.0132 126.988 54.0341C126.954 54.0549 126.915 54.0658 126.875 54.0654H117.467C117.325 54.0654 117.211 54.0096 117.124 53.898L112.849 48.2928C112.81 48.2419 112.76 48.2008 112.703 48.1725C112.645 48.1442 112.582 48.1295 112.519 48.1297L107.896 48.1004C108.329 47.7992 108.852 47.703 109.465 47.8118C109.605 47.8369 109.727 47.802 109.833 47.7072C110.703 46.9208 110.302 45.9629 110.398 45.1848C110.576 43.7319 110.571 42.3348 110.381 40.9935C112.226 41.0018 117.94 41.8928 117.819 38.8267C117.714 36.1956 114.962 36.8356 113.326 36.8314C111.134 36.8258 108.948 36.8007 106.767 36.7561C107.219 36.7393 111.619 36.6933 111.628 36.685C111.675 36.6292 111.661 36.6013 111.586 36.6013H110.448C110.325 36.6013 110.317 36.5706 110.423 36.5093L110.544 36.434C110.608 36.3977 110.634 36.3434 110.62 36.2708C110.406 34.9992 110.979 31.6779 109.741 30.8622C109.685 30.825 109.641 30.7727 109.614 30.7118C109.588 30.6509 109.579 30.584 109.591 30.5192L109.72 29.7035Z" fill="#4A88C3" style="fill:#4A88C3;fill:color(display-p3 0.2902 0.5333 0.7647);fill-opacity:1;"/>
<path d="M185.813 46.4607L186.186 53.8144C186.194 53.9705 186.272 54.0235 186.42 53.9733C186.478 53.951 186.536 53.951 186.591 53.9733C186.675 54.004 186.717 54.064 186.717 54.1532C186.72 54.1922 186.72 54.2355 186.717 54.2829C180.078 55.2659 168.989 54.6217 166.275 47.3642C165.77 46.0173 165.505 43.4893 165.48 39.7804C165.457 36.4926 165.473 33.2103 165.526 29.9336C165.529 29.7774 165.608 29.6993 165.764 29.6993H174.741C174.88 29.6993 174.95 29.7705 174.95 29.9127C174.953 33.9925 174.96 38.0695 174.971 42.1438C174.988 47.6152 182.178 47.2471 185.813 46.4607Z" fill="#1973C7" style="fill:#1973C7;fill:color(display-p3 0.0980 0.4510 0.7804);fill-opacity:1;"/>
<path d="M186.717 54.2829C186.72 54.2355 186.72 54.1922 186.717 54.1532C186.717 54.064 186.675 54.004 186.591 53.9733C186.536 53.951 186.478 53.951 186.42 53.9733C186.272 54.0235 186.194 53.9705 186.186 53.8144L185.813 46.4607C190.151 45.5069 189.156 41.257 189.206 37.9901C189.248 35.3018 189.27 32.6135 189.273 29.9252C189.273 29.7746 189.349 29.6993 189.503 29.6993H198.459C198.587 29.6993 198.652 29.7649 198.655 29.896C198.719 34.2463 198.747 38.5701 198.739 42.8675C198.726 50.1082 193.297 53.7265 186.717 54.2829Z" fill="#4A88C3" style="fill:#4A88C3;fill:color(display-p3 0.2902 0.5333 0.7647);fill-opacity:1;"/>
<path d="M106.767 36.7561C108.948 36.8007 111.134 36.8258 113.326 36.8314C114.962 36.8356 117.714 36.1955 117.819 38.8267C117.94 41.8928 112.226 41.0018 110.381 40.9935L104.458 40.9893C104.285 40.9893 104.199 40.9028 104.199 40.7299L104.207 37.0656C104.207 36.876 104.303 36.7798 104.496 36.777L106.767 36.7561ZM116.183 38.6552C116.183 38.5819 116.154 38.5117 116.102 38.4599C116.05 38.4082 115.98 38.3791 115.907 38.3791H106.102C106.029 38.3791 105.958 38.4082 105.907 38.4599C105.855 38.5117 105.826 38.5819 105.826 38.6552V39.0484C105.826 39.1216 105.855 39.1918 105.907 39.2436C105.958 39.2954 106.029 39.3244 106.102 39.3244H115.907C115.98 39.3244 116.05 39.2954 116.102 39.2436C116.154 39.1918 116.183 39.1216 116.183 39.0484V38.6552Z" fill="white" style="fill:white;fill-opacity:1;"/>
<path d="M143.552 46.6656C139.724 46.0772 138.339 43.7682 139.399 39.7386C139.739 38.4502 140.739 37.6024 142.398 37.1953C147.083 36.1077 154.775 36.1203 153.077 43.6204C152.261 47.2261 146.317 47.1299 143.552 46.6656ZM141.896 39.0818C140.616 39.521 140.582 41.7506 140.746 42.7587C141.277 46.0507 147.53 45.3522 149.643 44.8418C152.747 44.0931 152.563 39.4206 149.258 38.6719C146.771 38.1114 144.317 38.248 141.896 39.0818Z" fill="white" style="fill:white;fill-opacity:1;"/>
<path d="M218.403 37.5295C220.438 37.6326 222.095 37.5703 222.105 37.3903C222.114 37.2104 220.471 36.9809 218.436 36.8778C216.401 36.7747 214.744 36.837 214.735 37.017C214.726 37.197 216.368 37.4264 218.403 37.5295Z" fill="#276BA2" style="fill:#276BA2;fill:color(display-p3 0.1529 0.4196 0.6353);fill-opacity:1;"/>
<path d="M115.907 38.3791H106.102C105.949 38.3791 105.826 38.5027 105.826 38.6552V39.0484C105.826 39.2008 105.949 39.3244 106.102 39.3244H115.907C116.059 39.3244 116.183 39.2008 116.183 39.0484V38.6552C116.183 38.5027 116.059 38.3791 115.907 38.3791Z" fill="#141616" style="fill:#141616;fill:color(display-p3 0.0784 0.0863 0.0863);fill-opacity:1;"/>
<path d="M140.746 42.7587C140.582 41.7506 140.616 39.521 141.896 39.0818C144.316 38.248 146.771 38.1114 149.258 38.6719C152.563 39.4206 152.747 44.0931 149.643 44.8418C147.53 45.3521 141.277 46.0507 140.746 42.7587Z" fill="#141616" style="fill:#141616;fill:color(display-p3 0.0784 0.0863 0.0863);fill-opacity:1;"/>
<path d="M217.052 39.0233C220.959 39.0902 233.345 39.4583 234.215 44.641C236.147 56.1067 217.06 54.9689 210.836 54.195C210.808 51.6629 211.247 49.2563 212.154 46.9752C212.94 47.4646 213.58 47.8536 214.488 48.0167C215.801 48.2468 224.816 48.9161 224.481 46.0758C224.453 45.8373 224.351 45.6164 224.194 45.4498C224.036 45.2832 223.832 45.1808 223.615 45.1597L217.512 44.5407C217.521 44.5016 217.557 44.4681 217.621 44.4403C217.679 44.4152 217.692 44.3761 217.659 44.3231C217.633 44.2869 217.603 44.2618 217.567 44.2478C217.43 44.2032 217.357 44.1098 217.349 43.9676L217.052 39.0233Z" fill="#4A88C3" style="fill:#4A88C3;fill:color(display-p3 0.2902 0.5333 0.7647);fill-opacity:1;"/>
<path d="M200.366 40.7509C200.372 40.4859 200.441 40.4678 200.575 40.6965C201.417 42.1299 202.609 43.1714 204.152 43.8212C205.136 44.2367 205.094 44.4444 204.026 44.4444H200.579C200.539 44.4445 200.499 44.4364 200.461 44.4208C200.424 44.4052 200.39 44.3823 200.362 44.3535C200.333 44.3247 200.311 44.2906 200.296 44.253C200.281 44.2155 200.273 44.1754 200.274 44.1349L200.366 40.7509Z" fill="#141616" style="fill:#141616;fill:color(display-p3 0.0784 0.0863 0.0863);fill-opacity:1;"/>
<path d="M214.019 45.9461C216.228 46.0256 218.939 45.9294 221.114 46.2808C221.44 46.331 221.443 46.3951 221.122 46.4732C218.713 47.0505 216.33 46.9668 213.973 46.2222C213.942 46.211 213.916 46.1891 213.899 46.1603C213.882 46.1316 213.876 46.0978 213.881 46.065C213.887 46.0321 213.903 46.0022 213.929 45.9805C213.954 45.9588 213.986 45.9466 214.019 45.9461Z" fill="#276BA2" style="fill:#276BA2;fill:color(display-p3 0.1529 0.4196 0.6353);fill-opacity:1;"/>
<path d="M212.154 46.9752C211.247 49.2563 210.808 51.6629 210.836 54.195C206.222 53.5132 202.102 51.3882 201.512 46.2515C201.493 46.0926 201.564 46.0131 201.725 46.0131H211.07C211.215 46.0131 211.337 46.0675 211.434 46.1762L212.154 46.9752Z" fill="#1973C7" style="fill:#1973C7;fill:color(display-p3 0.0980 0.4510 0.7804);fill-opacity:1;"/>
</svg>
