<?xml version="1.0" encoding="UTF-8" standalone="no"?>
<!DOCTYPE svg PUBLIC "-//W3C//DTD SVG 1.1//EN" "http://www.w3.org/Graphics/SVG/1.1/DTD/svg11.dtd">
<svg xmlns="http://www.w3.org/2000/svg" version="1.1" viewBox="0.00 0.00 584.00 153.00">
<g stroke-width="2.00" fill="none" stroke-linecap="butt">
<path stroke="#8a8b8b" vector-effect="non-scaling-stroke" d="
  M 93.44 153.00
  Q 100.19 152.52 107.00 152.80
  Q 107.36 152.81 107.54 152.59
  Q 107.81 152.25 107.38 152.25
  L 64.75 152.25
  Q 64.58 152.25 64.56 152.31
  Q 64.52 152.44 64.48 152.57
  Q 64.41 152.79 64.64 152.79
  L 76.20 153.00"
/>
<path stroke="#1e415c" vector-effect="non-scaling-stroke" d="
  M 317.25 22.91
  C 300.46 22.72 283.64 23.00 266.86 22.63
  C 261.94 22.52 255.81 22.92 252.07 22.91
  Q 163.28 22.60 74.50 22.80
  C 72.73 22.80 70.80 23.48 68.87 23.22
  A 0.76 0.76 0.0 0 0 68.00 23.97
  L 68.00 62.72
  A 0.33 0.33 0.0 0 1 67.38 62.86
  L 48.11 23.46
  Q 47.85 22.92 47.25 22.92
  L 12.62 22.77
  Q 12.00 22.76 12.00 23.39
  L 12.01 132.00
  Q 12.01 133.24 13.25 133.24
  L 46.04 133.27
  Q 46.59 133.27 46.59 132.72
  L 46.55 92.97
  A 0.43 0.43 0.0 0 1 47.36 92.78
  L 66.87 132.32
  A 1.67 1.66 76.7 0 0 68.36 133.25
  L 101.96 133.25
  Q 102.36 133.25 102.37 132.84
  C 103.04 105.58 102.14 78.37 102.84 51.11
  A 0.63 0.63 0.0 0 1 103.47 50.50
  L 292.02 50.50"
/>
<path stroke="#354d5f" vector-effect="non-scaling-stroke" d="
  M 292.02 50.50
  L 527.44 50.52
  Q 527.99 50.52 527.99 51.08
  L 527.98 65.57"
/>
<path stroke="#8a8b8b" vector-effect="non-scaling-stroke" d="
  M 527.98 65.57
  C 516.74 65.11 503.41 65.49 492.10 69.97
  C 485.66 72.52 482.27 76.33 479.06 82.05
  Q 478.81 82.48 478.81 81.99
  L 478.73 67.78
  Q 478.72 67.02 477.96 67.02
  L 448.93 66.96
  A 0.43 0.43 0.0 0 0 448.50 67.39
  Q 448.51 83.59 448.49 99.87
  C 448.48 103.75 447.63 106.31 443.74 107.24
  C 438.89 108.41 426.09 109.29 423.22 104.72
  Q 422.29 103.26 422.25 99.63
  Q 422.05 83.45 421.95 67.27
  Q 421.95 66.82 421.50 66.82
  L 392.48 67.04
  A 0.74 0.73 -0.4 0 0 391.75 67.77
  L 391.75 87.25
  A 0.18 0.18 0.0 0 1 391.41 87.32
  C 391.12 86.71 391.17 85.95 390.90 85.32
  C 385.07 71.79 372.85 67.46 358.76 66.05
  C 339.89 64.15 316.03 66.20 307.78 86.07
  Q 307.55 86.62 307.37 86.05
  C 302.52 71.23 291.92 66.93 277.56 66.97
  Q 195.33 67.16 110.22 66.78
  Q 108.75 66.77 108.75 68.24
  L 108.75 132.50
  Q 108.75 133.01 109.25 133.01
  L 138.35 133.03
  Q 138.98 133.03 138.98 132.40
  L 139.01 93.74
  Q 139.01 93.25 139.51 93.25
  L 165.00 93.25
  Q 165.50 93.25 165.50 93.75
  L 165.50 132.52
  Q 165.50 133.05 166.02 133.05
  L 194.99 133.01
  Q 195.75 133.01 195.75 132.25
  L 195.75 93.75
  Q 195.75 93.25 196.25 93.25
  L 222.02 93.25
  Q 222.54 93.25 222.54 93.77
  L 222.80 132.78
  Q 222.80 133.25 223.28 133.25
  L 252.32 133.25
  Q 252.90 133.25 252.90 132.68
  L 253.05 119.60
  A 0.85 0.85 0.0 0 1 253.90 118.75
  L 266.93 118.75
  Q 267.44 118.75 267.75 119.15
  L 278.35 132.88
  Q 278.62 133.23 279.07 133.23
  L 311.07 132.98
  Q 312.01 132.97 311.44 132.22
  L 297.81 114.43
  A 0.56 0.55 53.0 0 1 297.91 113.65
  Q 302.68 109.99 305.45 104.67
  Q 305.85 103.89 305.98 104.76
  Q 306.97 111.46 307.75 113.50
  C 315.90 134.77 342.57 135.84 361.43 133.63
  C 376.14 131.90 388.38 125.32 392.21 109.98
  Q 392.43 109.09 392.66 109.97
  C 396.32 123.99 406.84 131.38 421.56 133.42
  C 440.67 136.06 470.49 135.23 477.54 112.00
  Q 477.76 111.30 477.93 112.01
  C 483.32 133.39 501.88 134.02 520.10 134.42
  C 537.76 134.81 568.92 131.01 563.51 105.00
  C 562.52 100.23 557.01 96.61 552.38 94.22
  Q 551.46 93.75 552.49 93.75
  L 563.98 93.75
  Q 564.47 93.75 564.46 93.25
  C 563.85 72.70 549.71 67.77 532.12 65.70"
/>
<path stroke="#354d5f" vector-effect="non-scaling-stroke" d="
  M 532.12 65.70
  L 562.33 37.00
  A 0.57 0.57 0.0 0 0 562.33 36.18
  L 528.42 3.83
  A 0.25 0.25 0.0 0 0 528.00 4.01
  L 528.00 22.27
  A 0.66 0.66 0.0 0 1 527.34 22.93
  L 317.25 22.91"
/>
<path stroke="#abc2d3" vector-effect="non-scaling-stroke" d="
  M 532.12 65.70
  L 527.98 65.57"
/>
<path stroke="#3f78a5" vector-effect="non-scaling-stroke" d="
  M 292.02 50.50
  L 287.52 48.55
  Q 287.00 48.32 287.31 47.84
  L 288.00 46.77"
/>
<path stroke="#abc2d3" vector-effect="non-scaling-stroke" d="
  M 288.00 46.77
  L 531.24 46.76
  Q 531.75 46.76 531.75 47.27
  L 531.75 60.02
  A 0.31 0.31 0.0 0 0 532.27 60.24
  L 556.68 36.94
  A 0.59 0.59 0.0 0 0 556.68 36.09
  L 532.25 12.88
  Q 531.75 12.40 531.75 13.09
  L 531.75 26.24
  Q 531.75 26.79 531.19 26.79
  L 248.30 26.74"
/>
<path stroke="#3f78a5" vector-effect="non-scaling-stroke" d="
  M 248.30 26.74
  Q 249.81 23.36 252.00 23.33
  Q 271.98 23.09 317.25 22.91"
/>
<path stroke="#93b5d1" vector-effect="non-scaling-stroke" d="
  M 288.00 46.77
  L 100.46 46.54
  Q 98.75 46.54 98.75 48.25
  L 98.75 128.75
  Q 98.75 129.25 98.25 129.25
  L 70.16 129.25
  Q 69.60 129.25 69.35 128.75
  L 43.47 76.33
  A 0.30 0.30 0.0 0 0 42.90 76.46
  L 42.74 128.76
  A 0.50 0.50 0.0 0 1 42.24 129.25
  L 17.00 129.25
  Q 15.76 129.25 15.76 128.00
  L 15.76 28.47
  Q 15.76 26.95 17.28 26.95
  L 44.98 26.91
  Q 45.44 26.91 45.64 27.31
  L 71.47 79.80
  A 0.15 0.15 0.0 0 0 71.75 79.74
  L 71.75 27.28
  Q 71.75 26.81 72.21 26.81
  L 248.30 26.74"
/>
<path stroke="#8a8b8b" vector-effect="non-scaling-stroke" d="
  M 250.6596 152.3977
  A 6.90 0.30 -0.6 0 0 243.7569 152.1700
  A 6.90 0.30 -0.6 0 0 236.8604 152.5423
  A 6.90 0.30 -0.6 0 0 243.7631 152.7700
  A 6.90 0.30 -0.6 0 0 250.6596 152.3977"
/>
<path stroke="#8a8b8b" vector-effect="non-scaling-stroke" d="
  M 40.93 152.50
  A 0.25 0.25 0.0 0 0 40.68 152.25
  L 28.08 152.25
  A 0.25 0.25 0.0 0 0 27.83 152.50
  L 27.83 152.50
  A 0.25 0.25 0.0 0 0 28.08 152.75
  L 40.68 152.75
  A 0.25 0.25 0.0 0 0 40.93 152.50
  L 40.93 152.50"
/>
<path stroke="#8a8b8b" vector-effect="non-scaling-stroke" d="
  M 143.6398 152.4428
  A 6.56 0.30 -0.5 0 0 137.0774 152.2000
  A 6.56 0.30 -0.5 0 0 130.5202 152.5572
  A 6.56 0.30 -0.5 0 0 137.0826 152.8000
  A 6.56 0.30 -0.5 0 0 143.6398 152.4428"
/>
<path stroke="#8a8b8b" vector-effect="non-scaling-stroke" d="
  M 208.76 152.50
  A 0.25 0.25 0.0 0 0 208.51 152.25
  L 174.25 152.25
  A 0.25 0.25 0.0 0 0 174.00 152.50
  L 174.00 152.50
  A 0.25 0.25 0.0 0 0 174.25 152.75
  L 208.51 152.75
  A 0.25 0.25 0.0 0 0 208.76 152.50
  L 208.76 152.50"
/>
<path stroke="#8a8b8b" vector-effect="non-scaling-stroke" d="
  M 301.93 152.50
  A 0.25 0.25 0.0 0 0 301.68 152.25
  L 288.82 152.25
  A 0.25 0.25 0.0 0 0 288.57 152.50
  L 288.57 152.50
  A 0.25 0.25 0.0 0 0 288.82 152.75
  L 301.68 152.75
  A 0.25 0.25 0.0 0 0 301.93 152.50
  L 301.93 152.50"
/>
<path stroke="#8a8b8b" vector-effect="non-scaling-stroke" d="
  M 353.6500 152.4675
  A 0.24 0.24 0.0 0 0 353.4091 152.2283
  L 340.9892 152.2717
  A 0.24 0.24 0.0 0 0 340.7500 152.5125
  L 340.7500 152.5125
  A 0.24 0.24 0.0 0 0 340.9909 152.7517
  L 353.4108 152.7083
  A 0.24 0.24 0.0 0 0 353.6500 152.4675
  L 353.6500 152.4675"
/>
<path stroke="#8a8b8b" vector-effect="non-scaling-stroke" d="
  M 405.9000 152.4777
  A 0.24 0.24 0.0 0 0 405.6591 152.2385
  L 393.3392 152.2815
  A 0.24 0.24 0.0 0 0 393.1000 152.5223
  L 393.1000 152.5223
  A 0.24 0.24 0.0 0 0 393.3409 152.7615
  L 405.6608 152.7185
  A 0.24 0.24 0.0 0 0 405.9000 152.4777
  L 405.9000 152.4777"
/>
<path stroke="#8a8b8b" vector-effect="non-scaling-stroke" d="
  M 459.93 152.50
  A 0.25 0.25 0.0 0 0 459.68 152.25
  L 446.08 152.25
  A 0.25 0.25 0.0 0 0 445.83 152.50
  L 445.83 152.50
  A 0.25 0.25 0.0 0 0 446.08 152.75
  L 459.68 152.75
  A 0.25 0.25 0.0 0 0 459.93 152.50
  L 459.93 152.50"
/>
<path stroke="#8a8b8b" vector-effect="non-scaling-stroke" d="
  M 511.68 152.50
  A 0.25 0.25 0.0 0 0 511.43 152.25
  L 500.25 152.25
  A 0.25 0.25 0.0 0 0 500.00 152.50
  L 500.00 152.50
  A 0.25 0.25 0.0 0 0 500.25 152.75
  L 511.43 152.75
  A 0.25 0.25 0.0 0 0 511.68 152.50
  L 511.68 152.50"
/>
<path stroke="#8a8b8b" vector-effect="non-scaling-stroke" d="
  M 563.68 152.50
  A 0.25 0.25 0.0 0 0 563.43 152.25
  L 552.25 152.25
  A 0.25 0.25 0.0 0 0 552.00 152.50
  L 552.00 152.50
  A 0.25 0.25 0.0 0 0 552.25 152.75
  L 563.43 152.75
  A 0.25 0.25 0.0 0 0 563.68 152.50
  L 563.68 152.50"
/>
<path stroke="#8a8b8b" vector-effect="non-scaling-stroke" d="
  M 380.50 38.38
  Q 380.21 39.13 379.16 39.18
  C 376.06 39.35 369.45 40.01 371.55 34.21
  Q 371.72 33.73 372.16 33.49
  Q 375.38 31.69 378.63 32.88
  C 381.64 33.97 383.14 33.81 386.03 33.73
  Q 386.60 33.72 386.44 33.17
  C 384.11 24.71 359.38 24.72 366.48 41.20
  A 1.60 1.59 -87.7 0 0 367.18 41.96
  Q 374.92 46.12 382.85 42.39
  Q 383.72 41.99 383.77 42.94
  Q 383.86 44.75 386.02 44.19
  Q 386.48 44.07 386.49 43.60
  L 386.53 35.86
  Q 386.53 35.25 385.93 35.25
  L 376.71 35.24
  Q 376.04 35.24 376.02 35.91
  L 375.99 37.11
  Q 375.98 37.75 376.61 37.75
  L 380.07 37.75
  Q 380.74 37.75 380.50 38.38"
/>
<path stroke="#8a8b8b" vector-effect="non-scaling-stroke" d="
  M 412.45 37.91
  A 0.85 0.85 0.0 0 1 412.68 39.53
  Q 408.32 41.48 404.31 39.00
  Q 403.92 38.75 403.45 38.75
  L 398.99 38.75
  Q 398.39 38.75 398.52 39.34
  C 399.94 45.73 410.87 44.20 415.44 43.39
  Q 417.58 43.02 418.79 41.17
  C 423.35 34.21 408.52 34.17 405.74 34.04
  A 0.86 0.86 0.0 0 1 404.93 33.25
  Q 404.86 32.33 405.93 31.97
  Q 410.06 30.58 413.55 32.69
  Q 413.93 32.92 414.38 32.96
  L 418.76 33.30
  A 0.68 0.68 0.0 0 0 419.47 32.42
  C 417.63 26.18 405.97 27.44 401.57 28.84
  C 398.33 29.86 397.18 33.87 399.92 36.06
  C 402.35 38.01 409.09 37.44 412.45 37.91"
/>
<path stroke="#8a8b8b" vector-effect="non-scaling-stroke" d="
  M 425.43 28.93
  C 419.26 31.24 419.92 42.29 426.76 43.58
  C 432.15 44.60 441.28 45.10 442.53 37.85
  Q 442.62 37.35 442.11 37.36
  L 436.76 37.49
  Q 436.29 37.50 436.05 37.91
  C 435.58 38.74 435.27 38.98 434.25 39.09
  C 432.56 39.27 430.49 39.79 429.02 38.97
  C 426.58 37.61 426.50 33.25 429.76 32.72
  Q 432.17 32.33 434.59 32.80
  Q 435.16 32.91 435.49 33.22
  Q 435.82 33.54 436.01 34.01
  A 0.78 0.78 0.0 0 0 436.72 34.50
  L 442.24 34.51
  Q 442.81 34.51 442.69 33.96
  C 441.10 26.68 430.66 26.97 425.43 28.93"
/>
<path stroke="#8a8b8b" vector-effect="non-scaling-stroke" d="
  M 458.76 33.19
  A 0.31 0.31 0.0 0 1 458.45 33.50
  L 449.50 33.50
  A 0.31 0.31 0.0 0 1 449.19 33.18
  L 449.40 28.62
  A 0.31 0.31 0.0 0 0 449.10 28.29
  L 443.68 28.17
  A 0.31 0.31 0.0 0 0 443.36 28.48
  L 443.48 43.44
  A 0.31 0.31 0.0 0 0 443.79 43.75
  L 449.02 43.75
  A 0.31 0.31 0.0 0 0 449.33 43.43
  L 449.22 38.75
  A 0.31 0.31 0.0 0 1 449.53 38.43
  L 458.44 38.51
  A 0.31 0.31 0.0 0 1 458.75 38.82
  L 458.75 43.44
  A 0.31 0.31 0.0 0 0 459.06 43.75
  L 464.44 43.75
  A 0.31 0.31 0.0 0 0 464.75 43.44
  L 464.75 28.56
  A 0.31 0.31 0.0 0 0 464.44 28.25
  L 459.05 28.25
  A 0.31 0.31 0.0 0 0 458.74 28.56
  L 458.76 33.19"
/>
<path stroke="#8a8b8b" vector-effect="non-scaling-stroke" d="
  M 488.6148 35.0254
  A 7.05 7.05 0.0 0 0 481.6018 27.9385
  L 474.5619 27.9017
  A 7.05 7.05 0.0 0 0 467.4751 34.9147
  L 467.4652 36.8146
  A 7.05 7.05 0.0 0 0 474.4782 43.9015
  L 481.5181 43.9383
  A 7.05 7.05 0.0 0 0 488.6049 36.9253
  L 488.6148 35.0254"
/>
<path stroke="#8a8b8b" vector-effect="non-scaling-stroke" d="
  M 511.6341 35.1555
  A 7.20 7.20 0.0 0 0 504.4719 27.9179
  L 497.6920 27.8824
  A 7.20 7.20 0.0 0 0 490.4544 35.0446
  L 490.4459 36.6845
  A 7.20 7.20 0.0 0 0 497.6081 43.9221
  L 504.3880 43.9576
  A 7.20 7.20 0.0 0 0 511.6256 36.7954
  L 511.6341 35.1555"
/>
<path stroke="#8a8b8b" vector-effect="non-scaling-stroke" d="
  M 257.51 28.38
  L 257.41 43.48
  A 0.26 0.26 0.0 0 0 257.67 43.74
  L 270.68 43.83
  A 7.97 7.79 0.4 0 0 278.70 36.09
  L 278.70 36.05
  A 7.97 7.79 0.4 0 0 270.78 28.21
  L 257.77 28.12
  A 0.26 0.26 0.0 0 0 257.51 28.38"
/>
<path stroke="#8a8b8b" vector-effect="non-scaling-stroke" d="
  M 321.31 38.39
  A 0.34 0.34 0.0 0 1 320.69 38.39
  L 316.35 28.45
  A 0.34 0.34 0.0 0 0 316.04 28.25
  L 310.19 28.25
  A 0.34 0.34 0.0 0 0 309.89 28.74
  L 317.29 43.56
  A 0.34 0.34 0.0 0 0 317.59 43.75
  L 324.41 43.75
  A 0.34 0.34 0.0 0 0 324.71 43.56
  L 332.25 28.66
  A 0.34 0.34 0.0 0 0 331.94 28.17
  L 325.90 28.29
  A 0.34 0.34 0.0 0 0 325.59 28.49
  L 321.31 38.39"
/>
<path stroke="#8a8b8b" vector-effect="non-scaling-stroke" d="
  M 348.25 34.51
  A 0.31 0.31 0.0 0 1 348.80 34.31
  L 356.68 43.64
  A 0.31 0.31 0.0 0 0 356.91 43.75
  L 363.44 43.75
  A 0.31 0.31 0.0 0 0 363.75 43.44
  L 363.75 28.51
  A 0.31 0.31 0.0 0 0 363.44 28.20
  L 358.06 28.27
  A 0.31 0.31 0.0 0 0 357.75 28.58
  L 357.75 35.70
  A 0.31 0.31 0.0 0 1 357.20 35.89
  L 350.99 28.36
  A 0.31 0.31 0.0 0 0 350.75 28.25
  L 342.73 28.25
  A 0.31 0.31 0.0 0 0 342.42 28.56
  L 342.54 43.44
  A 0.31 0.31 0.0 0 0 342.85 43.75
  L 347.94 43.75
  A 0.31 0.31 0.0 0 0 348.25 43.44
  L 348.25 34.51"
/>
<path stroke="#8a8b8b" vector-effect="non-scaling-stroke" d="
  M 298.45 39.01
  C 302.25 37.33 301.86 31.69 299.19 29.56
  C 296.23 27.19 284.87 28.24 280.84 28.26
  Q 280.42 28.26 280.42 28.69
  L 280.52 43.17
  Q 280.53 43.75 281.11 43.75
  L 285.71 43.75
  A 0.66 0.66 0.0 0 0 286.37 43.05
  L 286.21 40.29
  A 0.51 0.50 -2.1 0 1 286.72 39.75
  L 291.27 39.75
  Q 291.90 39.75 292.27 40.26
  L 294.53 43.36
  A 0.97 0.95 71.4 0 0 295.30 43.75
  L 300.52 43.75
  Q 301.23 43.75 300.81 43.18
  L 298.25 39.75
  A 0.49 0.49 0.0 0 1 298.45 39.01"
/>
<path stroke="#8a8b8b" vector-effect="non-scaling-stroke" d="
  M 309.2339 28.5099
  A 0.26 0.26 0.0 0 0 308.9730 28.2508
  L 303.6930 28.2693
  A 0.26 0.26 0.0 0 0 303.4339 28.5302
  L 303.4861 43.4901
  A 0.26 0.26 0.0 0 0 303.7470 43.7492
  L 309.0270 43.7307
  A 0.26 0.26 0.0 0 0 309.2861 43.4698
  L 309.2339 28.5099"
/>
<path stroke="#8a8b8b" vector-effect="non-scaling-stroke" d="
  M 339.2077 28.4998
  A 0.26 0.26 0.0 0 0 338.9459 28.2416
  L 333.6260 28.2788
  A 0.26 0.26 0.0 0 0 333.3679 28.5406
  L 333.4723 43.5002
  A 0.26 0.26 0.0 0 0 333.7341 43.7584
  L 339.0540 43.7212
  A 0.26 0.26 0.0 0 0 339.3121 43.4594
  L 339.2077 28.4998"
/>
<path stroke="#8a8b8b" vector-effect="non-scaling-stroke" d="
  M 519.59 38.75
  A 0.34 0.34 0.0 0 1 519.25 38.41
  L 519.25 28.59
  A 0.34 0.34 0.0 0 0 518.91 28.25
  L 513.81 28.25
  A 0.34 0.34 0.0 0 0 513.47 28.59
  L 513.49 43.41
  A 0.34 0.34 0.0 0 0 513.83 43.75
  L 531.26 43.75
  A 0.34 0.34 0.0 0 0 531.60 43.40
  L 531.47 39.08
  A 0.34 0.34 0.0 0 0 531.13 38.75
  L 519.59 38.75"
/>
<path stroke="#8a8b8b" vector-effect="non-scaling-stroke" d="
  M 482.9797 35.8781
  A 4.96 3.52 -0.6 0 0 477.9831 32.4102
  A 4.96 3.52 -0.6 0 0 473.0603 35.9819
  A 4.96 3.52 -0.6 0 0 478.0569 39.4498
  A 4.96 3.52 -0.6 0 0 482.9797 35.8781"
/>
<path stroke="#8a8b8b" vector-effect="non-scaling-stroke" d="
  M 505.9800 35.9513
  A 4.98 3.48 -0.1 0 0 500.9939 32.4800
  A 4.98 3.48 -0.1 0 0 496.0200 35.9687
  A 4.98 3.48 -0.1 0 0 501.0061 39.4400
  A 4.98 3.48 -0.1 0 0 505.9800 35.9513"
/>
<path stroke="#8a8b8b" vector-effect="non-scaling-stroke" d="
  M 263.29 33.51
  L 263.17 37.92
  A 0.75 0.75 0.0 0 0 263.90 38.69
  L 269.61 38.84
  A 3.06 2.89 1.5 0 0 272.75 36.03
  L 272.75 35.89
  A 3.06 2.89 1.5 0 0 269.77 32.93
  L 264.06 32.78
  A 0.75 0.75 0.0 0 0 263.29 33.51"
/>
<path stroke="#8a8b8b" vector-effect="non-scaling-stroke" d="
  M 295.18 33.09
  A 0.59 0.59 0.0 0 0 294.59 32.50
  L 286.85 32.50
  A 0.59 0.59 0.0 0 0 286.26 33.09
  L 286.26 34.91
  A 0.59 0.59 0.0 0 0 286.85 35.50
  L 294.59 35.50
  A 0.59 0.59 0.0 0 0 295.18 34.91
  L 295.18 33.09"
/>
<path stroke="#a5c4e1" vector-effect="non-scaling-stroke" d="
  M 519.99 106.48
  L 534.58 107.96
  A 2.52 2.28 88.8 0 1 536.65 110.15
  C 537.45 116.94 515.90 115.34 512.76 114.79
  C 510.59 114.40 509.06 113.47 507.18 112.30"
/>
<path stroke="#8cb9e3" vector-effect="non-scaling-stroke" d="
  M 507.18 112.30
  L 505.46 110.39
  Q 505.11 110.00 504.59 110.00
  L 482.25 110.00
  Q 481.67 110.00 481.74 110.57
  C 483.15 122.85 493.00 127.93 504.03 129.56"
/>
<path stroke="#a5c4e1" vector-effect="non-scaling-stroke" d="
  M 504.03 129.56
  C 518.91 131.41 564.54 134.13 559.92 106.72
  C 557.84 94.33 528.23 93.45 518.89 93.29"
/>
<path stroke="#8cb9e3" vector-effect="non-scaling-stroke" d="
  M 518.89 93.29
  L 507.75 91.99
  A 2.50 2.48 -17.8 0 1 506.22 91.21
  Q 504.22 89.01 506.97 86.87
  C 511.10 83.68 522.00 83.90 527.17 84.69"
/>
<path stroke="#a5c4e1" vector-effect="non-scaling-stroke" d="
  M 527.17 84.69
  Q 532.74 85.16 536.82 89.73
  A 0.67 0.66 69.1 0 0 537.32 89.96
  L 559.04 90.02
  A 1.03 1.02 -3.2 0 0 560.06 88.88
  C 558.17 72.88 541.40 69.87 528.50 69.59"
/>
<path stroke="#8cb9e3" vector-effect="non-scaling-stroke" d="
  M 528.50 69.59
  C 516.64 68.82 500.38 69.09 489.82 75.31
  C 481.35 80.29 477.55 93.87 487.08 99.95
  C 495.81 105.52 509.53 106.05 519.99 106.48"
/>
<path stroke="#327ec5" vector-effect="non-scaling-stroke" d="
  M 528.50 69.59
  L 529.44 69.86
  A 0.05 0.04 47.0 0 1 529.44 69.95
  L 528.99 70.01
  A 0.36 0.36 0.0 0 0 528.68 70.40
  Q 529.34 77.61 527.17 84.69"
/>
<path stroke="#327ec5" vector-effect="non-scaling-stroke" d="
  M 518.89 93.29
  L 519.60 105.11
  Q 519.63 105.62 520.12 105.78
  Q 520.25 105.83 520.34 105.96
  Q 520.46 106.15 520.25 106.24
  Q 520.02 106.34 519.99 106.48"
/>
<path stroke="#327ec5" vector-effect="non-scaling-stroke" d="
  M 504.03 129.56
  Q 503.93 120.48 507.18 112.30"
/>
<path stroke="#8cb9e3" vector-effect="non-scaling-stroke" d="
  M 339.42 70.00
  C 325.36 70.84 312.02 77.86 310.24 93.19
  C 307.39 117.67 319.61 129.79 343.56 130.29"
/>
<path stroke="#a5c4e1" vector-effect="non-scaling-stroke" d="
  M 343.56 130.29
  C 361.77 131.73 388.26 128.36 389.01 104.25
  Q 389.32 94.46 388.66 91.31
  C 384.05 69.13 356.95 68.09 339.42 70.00"
/>
<path stroke="#327ec5" vector-effect="non-scaling-stroke" d="
  M 343.56 130.29
  Q 344.92 130.73 345.40 128.42
  Q 345.43 128.24 345.25 128.25
  Q 345.13 128.25 344.97 128.27
  Q 344.74 128.29 344.75 128.05
  L 345.13 117.35
  A 1.07 1.07 0.0 0 0 344.84 116.57
  Q 342.75 114.34 343.18 111.56"
/>
<path stroke="#a5c4e1" vector-effect="non-scaling-stroke" d="
  M 343.18 111.56
  C 349.79 112.67 364.00 112.90 365.95 104.28
  C 370.01 86.35 351.62 86.32 340.42 88.92"
/>
<path stroke="#327ec5" vector-effect="non-scaling-stroke" d="
  M 340.42 88.92
  Q 338.77 87.76 339.32 86.09
  Q 339.42 85.77 339.09 85.76
  Q 338.79 85.76 338.87 85.55
  Q 341.99 78.17 339.42 70.00"
/>
<path stroke="#8cb9e3" vector-effect="non-scaling-stroke" d="
  M 340.42 88.92
  Q 334.47 90.38 333.25 95.00
  Q 329.45 109.45 343.18 111.56"
/>
<path stroke="#a5c4e1" vector-effect="non-scaling-stroke" d="
  M 124.94 129.24
  L 134.19 129.28
  Q 134.98 129.28 134.98 128.48
  L 135.01 71.71
  Q 135.01 71.06 134.35 71.06
  L 125.24 71.04"
/>
<path stroke="#8cb9e3" vector-effect="non-scaling-stroke" d="
  M 125.24 71.04
  L 112.98 71.03
  Q 112.50 71.03 112.50 71.51
  L 112.50 128.74
  Q 112.50 129.23 112.99 129.23
  L 124.94 129.24"
/>
<path stroke="#327ec5" vector-effect="non-scaling-stroke" d="
  M 125.24 71.04
  Q 126.07 72.43 125.13 73.76
  Q 124.86 74.13 124.97 74.57
  L 125.63 77.24
  Q 125.69 77.49 125.94 77.50
  Q 126.07 77.50 126.22 77.50
  Q 126.53 77.48 126.52 77.79
  C 126.48 80.66 125.99 83.57 125.99 86.28
  Q 126.01 102.21 125.99 118.12
  Q 125.99 118.45 125.65 120.18
  Q 125.38 121.56 126.34 122.61
  Q 126.70 123.01 126.59 123.53
  L 126.07 126.00
  Q 125.95 126.57 125.45 126.86
  Q 123.51 128.02 124.94 129.24"
/>
<path stroke="#9abfe2" vector-effect="non-scaling-stroke" d="
  M 168.78 89.30
  A 0.47 0.47 0.0 0 1 169.25 89.77
  L 169.25 128.78
  A 0.47 0.47 0.0 0 0 169.72 129.25
  L 191.34 129.25
  A 0.47 0.47 0.0 0 0 191.81 128.78
  L 191.95 89.72
  A 0.47 0.47 0.0 0 1 192.42 89.25
  L 218.28 89.25
  A 0.47 0.47 0.0 0 0 218.75 88.78
  L 218.75 71.47
  A 0.47 0.47 0.0 0 0 218.28 71.00
  L 142.68 71.00
  A 0.47 0.47 0.0 0 0 142.21 71.47
  L 142.33 88.75
  A 0.47 0.47 0.0 0 0 142.80 89.22
  L 168.78 89.30"
/>
<path stroke="#a5c4e1" vector-effect="non-scaling-stroke" d="
  M 257.94 114.99
  L 268.99 115.06
  A 1.00 0.99 71.1 0 1 269.78 115.45
  L 280.00 128.85
  Q 280.31 129.25 280.82 129.25
  L 303.31 129.25
  A 0.51 0.51 0.0 0 0 303.72 128.43
  L 292.18 113.34
  Q 291.86 112.92 292.31 112.66
  C 308.74 103.35 308.38 79.17 290.21 72.29
  C 282.96 69.54 270.20 71.00 262.30 71.01"
/>
<path stroke="#8cb9e3" vector-effect="non-scaling-stroke" d="
  M 262.30 71.01
  L 226.99 71.02
  Q 226.50 71.02 226.50 71.51
  L 226.50 128.77
  A 0.52 0.51 0.0 0 0 227.02 129.28
  L 248.51 129.23
  Q 249.00 129.23 249.00 128.74
  L 249.00 116.34
  A 1.35 1.34 -89.8 0 1 250.34 115.00
  L 257.94 114.99"
/>
<path stroke="#327ec5" vector-effect="non-scaling-stroke" d="
  M 262.30 71.01
  L 261.99 72.96
  A 0.83 0.81 22.1 0 0 262.35 73.78
  C 265.31 75.73 263.94 83.67 264.45 86.71
  Q 264.50 86.97 264.27 87.10
  L 263.98 87.28
  Q 263.60 87.50 264.04 87.50
  L 266.76 87.50
  Q 267.03 87.50 266.86 87.70
  C 266.84 87.72 256.32 87.83 255.24 87.87"
/>
<path stroke="#8cb9e3" vector-effect="non-scaling-stroke" d="
  M 255.24 87.87
  L 249.81 87.92
  Q 249.12 87.93 249.12 88.61
  L 249.10 97.37
  Q 249.10 97.99 249.72 97.99
  L 263.88 98.00"
/>
<path stroke="#327ec5" vector-effect="non-scaling-stroke" d="
  M 263.88 98.00
  Q 264.56 102.81 263.92 108.02
  C 263.69 109.88 264.65 112.17 262.57 114.05
  Q 262.19 114.39 261.69 114.30
  Q 259.49 113.91 257.94 114.99"
/>
<path stroke="#a5c4e1" vector-effect="non-scaling-stroke" d="
  M 263.88 98.00
  C 268.29 98.02 281.95 100.15 281.66 92.82
  C 281.41 86.53 274.83 88.06 270.92 88.05
  Q 263.06 88.03 255.24 87.87"
/>
<path stroke="#a5c4e1" vector-effect="non-scaling-stroke" d="
  M 446.37 129.77
  C 462.10 128.44 475.08 119.79 475.11 102.48
  Q 475.14 87.07 474.91 71.47
  Q 474.90 71.00 474.44 71.00
  L 453.03 71.00
  Q 452.48 71.00 452.48 71.54
  Q 452.47 81.18 452.32 90.82
  C 452.20 98.63 454.58 108.79 444.21 111.07"
/>
<path stroke="#8cb9e3" vector-effect="non-scaling-stroke" d="
  M 444.21 111.07
  C 435.52 112.95 418.33 113.83 418.29 100.75
  Q 418.25 86.14 418.24 71.51
  Q 418.24 71.00 417.74 71.00
  L 396.28 71.00
  Q 395.72 71.00 395.71 71.56
  Q 395.52 83.31 395.60 95.10
  Q 395.69 108.40 397.50 113.23
  C 403.99 130.58 430.50 132.12 446.37 129.77"
/>
<path stroke="#327ec5" vector-effect="non-scaling-stroke" d="
  M 444.21 111.07
  L 445.10 128.65
  Q 445.13 129.21 445.66 129.03
  Q 445.87 128.95 446.07 129.03
  Q 446.37 129.14 446.37 129.46
  Q 446.38 129.60 446.37 129.77"
/>
<path stroke="#93b5d1" vector-effect="non-scaling-stroke" d="
  M 530.9687 89.3862
  A 8.82 0.78 2.9 0 0 522.1995 88.1610
  A 8.82 0.78 2.9 0 0 513.3513 88.4938
  A 8.82 0.78 2.9 0 0 522.1205 89.7190
  A 8.82 0.78 2.9 0 0 530.9687 89.3862"
/>
<path stroke="#8a8b8b" vector-effect="non-scaling-stroke" d="
  M 479.00 97.42
  L 478.78 105.51
  A 0.73 0.73 0.0 0 0 479.51 106.25
  L 487.75 106.25
  Q 491.58 106.25 488.05 104.76
  Q 482.52 102.43 479.50 97.29
  Q 479.02 96.47 479.00 97.42"
/>
<path stroke="#93b5d1" vector-effect="non-scaling-stroke" d="
  M 528.60 110.64
  C 523.40 109.80 516.92 110.03 511.64 109.84
  A 0.34 0.34 0.0 0 0 511.53 110.50
  Q 519.98 113.17 528.62 111.10
  Q 529.77 110.82 528.60 110.64"
/>
<path stroke="#8a8b8b" vector-effect="non-scaling-stroke" d="
  M 277.75 92.41
  A 0.66 0.66 0.0 0 0 277.09 91.75
  L 253.65 91.75
  A 0.66 0.66 0.0 0 0 252.99 92.41
  L 252.99 93.35
  A 0.66 0.66 0.0 0 0 253.65 94.01
  L 277.09 94.01
  A 0.66 0.66 0.0 0 0 277.75 93.35
  L 277.75 92.41"
/>
<path stroke="#8a8b8b" vector-effect="non-scaling-stroke" d="
  M 339.22 93.43
  C 336.16 94.48 336.08 99.81 336.47 102.22
  C 337.74 110.09 352.69 108.42 357.74 107.20
  C 365.16 105.41 364.72 94.24 356.82 92.45
  Q 347.90 90.44 339.22 93.43"
/>
</g>
<path fill="#141616" d="
  M 0.00 0.00
  L 584.00 0.00
  L 584.00 153.00
  L 93.44 153.00
  Q 100.19 152.52 107.00 152.80
  Q 107.36 152.81 107.54 152.59
  Q 107.81 152.25 107.38 152.25
  L 64.75 152.25
  Q 64.58 152.25 64.56 152.31
  Q 64.52 152.44 64.48 152.57
  Q 64.41 152.79 64.64 152.79
  L 76.20 153.00
  L 0.00 153.00
  L 0.00 0.00
  Z
  M 317.25 22.91
  C 300.46 22.72 283.64 23.00 266.86 22.63
  C 261.94 22.52 255.81 22.92 252.07 22.91
  Q 163.28 22.60 74.50 22.80
  C 72.73 22.80 70.80 23.48 68.87 23.22
  A 0.76 0.76 0.0 0 0 68.00 23.97
  L 68.00 62.72
  A 0.33 0.33 0.0 0 1 67.38 62.86
  L 48.11 23.46
  Q 47.85 22.92 47.25 22.92
  L 12.62 22.77
  Q 12.00 22.76 12.00 23.39
  L 12.01 132.00
  Q 12.01 133.24 13.25 133.24
  L 46.04 133.27
  Q 46.59 133.27 46.59 132.72
  L 46.55 92.97
  A 0.43 0.43 0.0 0 1 47.36 92.78
  L 66.87 132.32
  A 1.67 1.66 76.7 0 0 68.36 133.25
  L 101.96 133.25
  Q 102.36 133.25 102.37 132.84
  C 103.04 105.58 102.14 78.37 102.84 51.11
  A 0.63 0.63 0.0 0 1 103.47 50.50
  L 292.02 50.50
  L 527.44 50.52
  Q 527.99 50.52 527.99 51.08
  L 527.98 65.57
  C 516.74 65.11 503.41 65.49 492.10 69.97
  C 485.66 72.52 482.27 76.33 479.06 82.05
  Q 478.81 82.48 478.81 81.99
  L 478.73 67.78
  Q 478.72 67.02 477.96 67.02
  L 448.93 66.96
  A 0.43 0.43 0.0 0 0 448.50 67.39
  Q 448.51 83.59 448.49 99.87
  C 448.48 103.75 447.63 106.31 443.74 107.24
  C 438.89 108.41 426.09 109.29 423.22 104.72
  Q 422.29 103.26 422.25 99.63
  Q 422.05 83.45 421.95 67.27
  Q 421.95 66.82 421.50 66.82
  L 392.48 67.04
  A 0.74 0.73 -0.4 0 0 391.75 67.77
  L 391.75 87.25
  A 0.18 0.18 0.0 0 1 391.41 87.32
  C 391.12 86.71 391.17 85.95 390.90 85.32
  C 385.07 71.79 372.85 67.46 358.76 66.05
  C 339.89 64.15 316.03 66.20 307.78 86.07
  Q 307.55 86.62 307.37 86.05
  C 302.52 71.23 291.92 66.93 277.56 66.97
  Q 195.33 67.16 110.22 66.78
  Q 108.75 66.77 108.75 68.24
  L 108.75 132.50
  Q 108.75 133.01 109.25 133.01
  L 138.35 133.03
  Q 138.98 133.03 138.98 132.40
  L 139.01 93.74
  Q 139.01 93.25 139.51 93.25
  L 165.00 93.25
  Q 165.50 93.25 165.50 93.75
  L 165.50 132.52
  Q 165.50 133.05 166.02 133.05
  L 194.99 133.01
  Q 195.75 133.01 195.75 132.25
  L 195.75 93.75
  Q 195.75 93.25 196.25 93.25
  L 222.02 93.25
  Q 222.54 93.25 222.54 93.77
  L 222.80 132.78
  Q 222.80 133.25 223.28 133.25
  L 252.32 133.25
  Q 252.90 133.25 252.90 132.68
  L 253.05 119.60
  A 0.85 0.85 0.0 0 1 253.90 118.75
  L 266.93 118.75
  Q 267.44 118.75 267.75 119.15
  L 278.35 132.88
  Q 278.62 133.23 279.07 133.23
  L 311.07 132.98
  Q 312.01 132.97 311.44 132.22
  L 297.81 114.43
  A 0.56 0.55 53.0 0 1 297.91 113.65
  Q 302.68 109.99 305.45 104.67
  Q 305.85 103.89 305.98 104.76
  Q 306.97 111.46 307.75 113.50
  C 315.90 134.77 342.57 135.84 361.43 133.63
  C 376.14 131.90 388.38 125.32 392.21 109.98
  Q 392.43 109.09 392.66 109.97
  C 396.32 123.99 406.84 131.38 421.56 133.42
  C 440.67 136.06 470.49 135.23 477.54 112.00
  Q 477.76 111.30 477.93 112.01
  C 483.32 133.39 501.88 134.02 520.10 134.42
  C 537.76 134.81 568.92 131.01 563.51 105.00
  C 562.52 100.23 557.01 96.61 552.38 94.22
  Q 551.46 93.75 552.49 93.75
  L 563.98 93.75
  Q 564.47 93.75 564.46 93.25
  C 563.85 72.70 549.71 67.77 532.12 65.70
  L 562.33 37.00
  A 0.57 0.57 0.0 0 0 562.33 36.18
  L 528.42 3.83
  A 0.25 0.25 0.0 0 0 528.00 4.01
  L 528.00 22.27
  A 0.66 0.66 0.0 0 1 527.34 22.93
  L 317.25 22.91
  Z
  M 250.6596 152.3977
  A 6.90 0.30 -0.6 0 0 243.7569 152.1700
  A 6.90 0.30 -0.6 0 0 236.8604 152.5423
  A 6.90 0.30 -0.6 0 0 243.7631 152.7700
  A 6.90 0.30 -0.6 0 0 250.6596 152.3977
  Z
  M 40.93 152.50
  A 0.25 0.25 0.0 0 0 40.68 152.25
  L 28.08 152.25
  A 0.25 0.25 0.0 0 0 27.83 152.50
  L 27.83 152.50
  A 0.25 0.25 0.0 0 0 28.08 152.75
  L 40.68 152.75
  A 0.25 0.25 0.0 0 0 40.93 152.50
  L 40.93 152.50
  Z
  M 143.6398 152.4428
  A 6.56 0.30 -0.5 0 0 137.0774 152.2000
  A 6.56 0.30 -0.5 0 0 130.5202 152.5572
  A 6.56 0.30 -0.5 0 0 137.0826 152.8000
  A 6.56 0.30 -0.5 0 0 143.6398 152.4428
  Z
  M 208.76 152.50
  A 0.25 0.25 0.0 0 0 208.51 152.25
  L 174.25 152.25
  A 0.25 0.25 0.0 0 0 174.00 152.50
  L 174.00 152.50
  A 0.25 0.25 0.0 0 0 174.25 152.75
  L 208.51 152.75
  A 0.25 0.25 0.0 0 0 208.76 152.50
  L 208.76 152.50
  Z
  M 301.93 152.50
  A 0.25 0.25 0.0 0 0 301.68 152.25
  L 288.82 152.25
  A 0.25 0.25 0.0 0 0 288.57 152.50
  L 288.57 152.50
  A 0.25 0.25 0.0 0 0 288.82 152.75
  L 301.68 152.75
  A 0.25 0.25 0.0 0 0 301.93 152.50
  L 301.93 152.50
  Z
  M 353.6500 152.4675
  A 0.24 0.24 0.0 0 0 353.4091 152.2283
  L 340.9892 152.2717
  A 0.24 0.24 0.0 0 0 340.7500 152.5125
  L 340.7500 152.5125
  A 0.24 0.24 0.0 0 0 340.9909 152.7517
  L 353.4108 152.7083
  A 0.24 0.24 0.0 0 0 353.6500 152.4675
  L 353.6500 152.4675
  Z
  M 405.9000 152.4777
  A 0.24 0.24 0.0 0 0 405.6591 152.2385
  L 393.3392 152.2815
  A 0.24 0.24 0.0 0 0 393.1000 152.5223
  L 393.1000 152.5223
  A 0.24 0.24 0.0 0 0 393.3409 152.7615
  L 405.6608 152.7185
  A 0.24 0.24 0.0 0 0 405.9000 152.4777
  L 405.9000 152.4777
  Z
  M 459.93 152.50
  A 0.25 0.25 0.0 0 0 459.68 152.25
  L 446.08 152.25
  A 0.25 0.25 0.0 0 0 445.83 152.50
  L 445.83 152.50
  A 0.25 0.25 0.0 0 0 446.08 152.75
  L 459.68 152.75
  A 0.25 0.25 0.0 0 0 459.93 152.50
  L 459.93 152.50
  Z
  M 511.68 152.50
  A 0.25 0.25 0.0 0 0 511.43 152.25
  L 500.25 152.25
  A 0.25 0.25 0.0 0 0 500.00 152.50
  L 500.00 152.50
  A 0.25 0.25 0.0 0 0 500.25 152.75
  L 511.43 152.75
  A 0.25 0.25 0.0 0 0 511.68 152.50
  L 511.68 152.50
  Z
  M 563.68 152.50
  A 0.25 0.25 0.0 0 0 563.43 152.25
  L 552.25 152.25
  A 0.25 0.25 0.0 0 0 552.00 152.50
  L 552.00 152.50
  A 0.25 0.25 0.0 0 0 552.25 152.75
  L 563.43 152.75
  A 0.25 0.25 0.0 0 0 563.68 152.50
  L 563.68 152.50
  Z"
/>
<path fill="#5684a7" d="
  M 532.12 65.70
  L 527.98 65.57
  L 527.99 51.08
  Q 527.99 50.52 527.44 50.52
  L 292.02 50.50
  L 287.52 48.55
  Q 287.00 48.32 287.31 47.84
  L 288.00 46.77
  L 531.24 46.76
  Q 531.75 46.76 531.75 47.27
  L 531.75 60.02
  A 0.31 0.31 0.0 0 0 532.27 60.24
  L 556.68 36.94
  A 0.59 0.59 0.0 0 0 556.68 36.09
  L 532.25 12.88
  Q 531.75 12.40 531.75 13.09
  L 531.75 26.24
  Q 531.75 26.79 531.19 26.79
  L 248.30 26.74
  Q 249.81 23.36 252.00 23.33
  Q 271.98 23.09 317.25 22.91
  L 527.34 22.93
  A 0.66 0.66 0.0 0 0 528.00 22.27
  L 528.00 4.01
  A 0.25 0.25 0.0 0 1 528.42 3.83
  L 562.33 36.18
  A 0.57 0.57 0.0 0 1 562.33 37.00
  L 532.12 65.70
  Z"
/>
<path fill="#ffffff" d="
  M 288.00 46.77
  L 100.46 46.54
  Q 98.75 46.54 98.75 48.25
  L 98.75 128.75
  Q 98.75 129.25 98.25 129.25
  L 70.16 129.25
  Q 69.60 129.25 69.35 128.75
  L 43.47 76.33
  A 0.30 0.30 0.0 0 0 42.90 76.46
  L 42.74 128.76
  A 0.50 0.50 0.0 0 1 42.24 129.25
  L 17.00 129.25
  Q 15.76 129.25 15.76 128.00
  L 15.76 28.47
  Q 15.76 26.95 17.28 26.95
  L 44.98 26.91
  Q 45.44 26.91 45.64 27.31
  L 71.47 79.80
  A 0.15 0.15 0.0 0 0 71.75 79.74
  L 71.75 27.28
  Q 71.75 26.81 72.21 26.81
  L 248.30 26.74
  L 531.19 26.79
  Q 531.75 26.79 531.75 26.24
  L 531.75 13.09
  Q 531.75 12.40 532.25 12.88
  L 556.68 36.09
  A 0.59 0.59 0.0 0 1 556.68 36.94
  L 532.27 60.24
  A 0.31 0.31 0.0 0 1 531.75 60.02
  L 531.75 47.27
  Q 531.75 46.76 531.24 46.76
  L 288.00 46.77
  Z
  M 380.50 38.38
  Q 380.21 39.13 379.16 39.18
  C 376.06 39.35 369.45 40.01 371.55 34.21
  Q 371.72 33.73 372.16 33.49
  Q 375.38 31.69 378.63 32.88
  C 381.64 33.97 383.14 33.81 386.03 33.73
  Q 386.60 33.72 386.44 33.17
  C 384.11 24.71 359.38 24.72 366.48 41.20
  A 1.60 1.59 -87.7 0 0 367.18 41.96
  Q 374.92 46.12 382.85 42.39
  Q 383.72 41.99 383.77 42.94
  Q 383.86 44.75 386.02 44.19
  Q 386.48 44.07 386.49 43.60
  L 386.53 35.86
  Q 386.53 35.25 385.93 35.25
  L 376.71 35.24
  Q 376.04 35.24 376.02 35.91
  L 375.99 37.11
  Q 375.98 37.75 376.61 37.75
  L 380.07 37.75
  Q 380.74 37.75 380.50 38.38
  Z
  M 412.45 37.91
  A 0.85 0.85 0.0 0 1 412.68 39.53
  Q 408.32 41.48 404.31 39.00
  Q 403.92 38.75 403.45 38.75
  L 398.99 38.75
  Q 398.39 38.75 398.52 39.34
  C 399.94 45.73 410.87 44.20 415.44 43.39
  Q 417.58 43.02 418.79 41.17
  C 423.35 34.21 408.52 34.17 405.74 34.04
  A 0.86 0.86 0.0 0 1 404.93 33.25
  Q 404.86 32.33 405.93 31.97
  Q 410.06 30.58 413.55 32.69
  Q 413.93 32.92 414.38 32.96
  L 418.76 33.30
  A 0.68 0.68 0.0 0 0 419.47 32.42
  C 417.63 26.18 405.97 27.44 401.57 28.84
  C 398.33 29.86 397.18 33.87 399.92 36.06
  C 402.35 38.01 409.09 37.44 412.45 37.91
  Z
  M 425.43 28.93
  C 419.26 31.24 419.92 42.29 426.76 43.58
  C 432.15 44.60 441.28 45.10 442.53 37.85
  Q 442.62 37.35 442.11 37.36
  L 436.76 37.49
  Q 436.29 37.50 436.05 37.91
  C 435.58 38.74 435.27 38.98 434.25 39.09
  C 432.56 39.27 430.49 39.79 429.02 38.97
  C 426.58 37.61 426.50 33.25 429.76 32.72
  Q 432.17 32.33 434.59 32.80
  Q 435.16 32.91 435.49 33.22
  Q 435.82 33.54 436.01 34.01
  A 0.78 0.78 0.0 0 0 436.72 34.50
  L 442.24 34.51
  Q 442.81 34.51 442.69 33.96
  C 441.10 26.68 430.66 26.97 425.43 28.93
  Z
  M 458.76 33.19
  A 0.31 0.31 0.0 0 1 458.45 33.50
  L 449.50 33.50
  A 0.31 0.31 0.0 0 1 449.19 33.18
  L 449.40 28.62
  A 0.31 0.31 0.0 0 0 449.10 28.29
  L 443.68 28.17
  A 0.31 0.31 0.0 0 0 443.36 28.48
  L 443.48 43.44
  A 0.31 0.31 0.0 0 0 443.79 43.75
  L 449.02 43.75
  A 0.31 0.31 0.0 0 0 449.33 43.43
  L 449.22 38.75
  A 0.31 0.31 0.0 0 1 449.53 38.43
  L 458.44 38.51
  A 0.31 0.31 0.0 0 1 458.75 38.82
  L 458.75 43.44
  A 0.31 0.31 0.0 0 0 459.06 43.75
  L 464.44 43.75
  A 0.31 0.31 0.0 0 0 464.75 43.44
  L 464.75 28.56
  A 0.31 0.31 0.0 0 0 464.44 28.25
  L 459.05 28.25
  A 0.31 0.31 0.0 0 0 458.74 28.56
  L 458.76 33.19
  Z
  M 488.6148 35.0254
  A 7.05 7.05 0.0 0 0 481.6018 27.9385
  L 474.5619 27.9017
  A 7.05 7.05 0.0 0 0 467.4751 34.9147
  L 467.4652 36.8146
  A 7.05 7.05 0.0 0 0 474.4782 43.9015
  L 481.5181 43.9383
  A 7.05 7.05 0.0 0 0 488.6049 36.9253
  L 488.6148 35.0254
  Z
  M 511.6341 35.1555
  A 7.20 7.20 0.0 0 0 504.4719 27.9179
  L 497.6920 27.8824
  A 7.20 7.20 0.0 0 0 490.4544 35.0446
  L 490.4459 36.6845
  A 7.20 7.20 0.0 0 0 497.6081 43.9221
  L 504.3880 43.9576
  A 7.20 7.20 0.0 0 0 511.6256 36.7954
  L 511.6341 35.1555
  Z
  M 257.51 28.38
  L 257.41 43.48
  A 0.26 0.26 0.0 0 0 257.67 43.74
  L 270.68 43.83
  A 7.97 7.79 0.4 0 0 278.70 36.09
  L 278.70 36.05
  A 7.97 7.79 0.4 0 0 270.78 28.21
  L 257.77 28.12
  A 0.26 0.26 0.0 0 0 257.51 28.38
  Z
  M 321.31 38.39
  A 0.34 0.34 0.0 0 1 320.69 38.39
  L 316.35 28.45
  A 0.34 0.34 0.0 0 0 316.04 28.25
  L 310.19 28.25
  A 0.34 0.34 0.0 0 0 309.89 28.74
  L 317.29 43.56
  A 0.34 0.34 0.0 0 0 317.59 43.75
  L 324.41 43.75
  A 0.34 0.34 0.0 0 0 324.71 43.56
  L 332.25 28.66
  A 0.34 0.34 0.0 0 0 331.94 28.17
  L 325.90 28.29
  A 0.34 0.34 0.0 0 0 325.59 28.49
  L 321.31 38.39
  Z
  M 348.25 34.51
  A 0.31 0.31 0.0 0 1 348.80 34.31
  L 356.68 43.64
  A 0.31 0.31 0.0 0 0 356.91 43.75
  L 363.44 43.75
  A 0.31 0.31 0.0 0 0 363.75 43.44
  L 363.75 28.51
  A 0.31 0.31 0.0 0 0 363.44 28.20
  L 358.06 28.27
  A 0.31 0.31 0.0 0 0 357.75 28.58
  L 357.75 35.70
  A 0.31 0.31 0.0 0 1 357.20 35.89
  L 350.99 28.36
  A 0.31 0.31 0.0 0 0 350.75 28.25
  L 342.73 28.25
  A 0.31 0.31 0.0 0 0 342.42 28.56
  L 342.54 43.44
  A 0.31 0.31 0.0 0 0 342.85 43.75
  L 347.94 43.75
  A 0.31 0.31 0.0 0 0 348.25 43.44
  L 348.25 34.51
  Z
  M 298.45 39.01
  C 302.25 37.33 301.86 31.69 299.19 29.56
  C 296.23 27.19 284.87 28.24 280.84 28.26
  Q 280.42 28.26 280.42 28.69
  L 280.52 43.17
  Q 280.53 43.75 281.11 43.75
  L 285.71 43.75
  A 0.66 0.66 0.0 0 0 286.37 43.05
  L 286.21 40.29
  A 0.51 0.50 -2.1 0 1 286.72 39.75
  L 291.27 39.75
  Q 291.90 39.75 292.27 40.26
  L 294.53 43.36
  A 0.97 0.95 71.4 0 0 295.30 43.75
  L 300.52 43.75
  Q 301.23 43.75 300.81 43.18
  L 298.25 39.75
  A 0.49 0.49 0.0 0 1 298.45 39.01
  Z
  M 309.2339 28.5099
  A 0.26 0.26 0.0 0 0 308.9730 28.2508
  L 303.6930 28.2693
  A 0.26 0.26 0.0 0 0 303.4339 28.5302
  L 303.4861 43.4901
  A 0.26 0.26 0.0 0 0 303.7470 43.7492
  L 309.0270 43.7307
  A 0.26 0.26 0.0 0 0 309.2861 43.4698
  L 309.2339 28.5099
  Z
  M 339.2077 28.4998
  A 0.26 0.26 0.0 0 0 338.9459 28.2416
  L 333.6260 28.2788
  A 0.26 0.26 0.0 0 0 333.3679 28.5406
  L 333.4723 43.5002
  A 0.26 0.26 0.0 0 0 333.7341 43.7584
  L 339.0540 43.7212
  A 0.26 0.26 0.0 0 0 339.3121 43.4594
  L 339.2077 28.4998
  Z
  M 519.59 38.75
  A 0.34 0.34 0.0 0 1 519.25 38.41
  L 519.25 28.59
  A 0.34 0.34 0.0 0 0 518.91 28.25
  L 513.81 28.25
  A 0.34 0.34 0.0 0 0 513.47 28.59
  L 513.49 43.41
  A 0.34 0.34 0.0 0 0 513.83 43.75
  L 531.26 43.75
  A 0.34 0.34 0.0 0 0 531.60 43.40
  L 531.47 39.08
  A 0.34 0.34 0.0 0 0 531.13 38.75
  L 519.59 38.75
  Z"
/>
<path fill="#276ba2" d="
  M 317.25 22.91
  Q 271.98 23.09 252.00 23.33
  Q 249.81 23.36 248.30 26.74
  L 72.21 26.81
  Q 71.75 26.81 71.75 27.28
  L 71.75 79.74
  A 0.15 0.15 0.0 0 1 71.47 79.80
  L 45.64 27.31
  Q 45.44 26.91 44.98 26.91
  L 17.28 26.95
  Q 15.76 26.95 15.76 28.47
  L 15.76 128.00
  Q 15.76 129.25 17.00 129.25
  L 42.24 129.25
  A 0.50 0.50 0.0 0 0 42.74 128.76
  L 42.90 76.46
  A 0.30 0.30 0.0 0 1 43.47 76.33
  L 69.35 128.75
  Q 69.60 129.25 70.16 129.25
  L 98.25 129.25
  Q 98.75 129.25 98.75 128.75
  L 98.75 48.25
  Q 98.75 46.54 100.46 46.54
  L 288.00 46.77
  L 287.31 47.84
  Q 287.00 48.32 287.52 48.55
  L 292.02 50.50
  L 103.47 50.50
  A 0.63 0.63 0.0 0 0 102.84 51.11
  C 102.14 78.37 103.04 105.58 102.37 132.84
  Q 102.36 133.25 101.96 133.25
  L 68.36 133.25
  A 1.67 1.66 76.7 0 1 66.87 132.32
  L 47.36 92.78
  A 0.43 0.43 0.0 0 0 46.55 92.97
  L 46.59 132.72
  Q 46.59 133.27 46.04 133.27
  L 13.25 133.24
  Q 12.01 133.24 12.01 132.00
  L 12.00 23.39
  Q 12.00 22.76 12.62 22.77
  L 47.25 22.92
  Q 47.85 22.92 48.11 23.46
  L 67.38 62.86
  A 0.33 0.33 0.0 0 0 68.00 62.72
  L 68.00 23.97
  A 0.76 0.76 0.0 0 1 68.87 23.22
  C 70.80 23.48 72.73 22.80 74.50 22.80
  Q 163.28 22.60 252.07 22.91
  C 255.81 22.92 261.94 22.52 266.86 22.63
  C 283.64 23.00 300.46 22.72 317.25 22.91
  Z"
/>
<path fill="#141616" d="
  M 380.07 37.75
  L 376.61 37.75
  Q 375.98 37.75 375.99 37.11
  L 376.02 35.91
  Q 376.04 35.24 376.71 35.24
  L 385.93 35.25
  Q 386.53 35.25 386.53 35.86
  L 386.49 43.60
  Q 386.48 44.07 386.02 44.19
  Q 383.86 44.75 383.77 42.94
  Q 383.72 41.99 382.85 42.39
  Q 374.92 46.12 367.18 41.96
  A 1.60 1.59 -87.7 0 1 366.48 41.20
  C 359.38 24.72 384.11 24.71 386.44 33.17
  Q 386.60 33.72 386.03 33.73
  C 383.14 33.81 381.64 33.97 378.63 32.88
  Q 375.38 31.69 372.16 33.49
  Q 371.72 33.73 371.55 34.21
  C 369.45 40.01 376.06 39.35 379.16 39.18
  Q 380.21 39.13 380.50 38.38
  Q 380.74 37.75 380.07 37.75
  Z"
/>
<path fill="#141616" d="
  M 412.45 37.91
  C 409.09 37.44 402.35 38.01 399.92 36.06
  C 397.18 33.87 398.33 29.86 401.57 28.84
  C 405.97 27.44 417.63 26.18 419.47 32.42
  A 0.68 0.68 0.0 0 1 418.76 33.30
  L 414.38 32.96
  Q 413.93 32.92 413.55 32.69
  Q 410.06 30.58 405.93 31.97
  Q 404.86 32.33 404.93 33.25
  A 0.86 0.86 0.0 0 0 405.74 34.04
  C 408.52 34.17 423.35 34.21 418.79 41.17
  Q 417.58 43.02 415.44 43.39
  C 410.87 44.20 399.94 45.73 398.52 39.34
  Q 398.39 38.75 398.99 38.75
  L 403.45 38.75
  Q 403.92 38.75 404.31 39.00
  Q 408.32 41.48 412.68 39.53
  A 0.85 0.85 0.0 0 0 412.45 37.91
  Z"
/>
<path fill="#141616" d="
  M 426.76 43.58
  C 419.92 42.29 419.26 31.24 425.43 28.93
  C 430.66 26.97 441.10 26.68 442.69 33.96
  Q 442.81 34.51 442.24 34.51
  L 436.72 34.50
  A 0.78 0.78 0.0 0 1 436.01 34.01
  Q 435.82 33.54 435.49 33.22
  Q 435.16 32.91 434.59 32.80
  Q 432.17 32.33 429.76 32.72
  C 426.50 33.25 426.58 37.61 429.02 38.97
  C 430.49 39.79 432.56 39.27 434.25 39.09
  C 435.27 38.98 435.58 38.74 436.05 37.91
  Q 436.29 37.50 436.76 37.49
  L 442.11 37.36
  Q 442.62 37.35 442.53 37.85
  C 441.28 45.10 432.15 44.60 426.76 43.58
  Z"
/>
<path fill="#141616" d="
  M 458.76 33.19
  L 458.74 28.56
  A 0.31 0.31 0.0 0 1 459.05 28.25
  L 464.44 28.25
  A 0.31 0.31 0.0 0 1 464.75 28.56
  L 464.75 43.44
  A 0.31 0.31 0.0 0 1 464.44 43.75
  L 459.06 43.75
  A 0.31 0.31 0.0 0 1 458.75 43.44
  L 458.75 38.82
  A 0.31 0.31 0.0 0 0 458.44 38.51
  L 449.53 38.43
  A 0.31 0.31 0.0 0 0 449.22 38.75
  L 449.33 43.43
  A 0.31 0.31 0.0 0 1 449.02 43.75
  L 443.79 43.75
  A 0.31 0.31 0.0 0 1 443.48 43.44
  L 443.36 28.48
  A 0.31 0.31 0.0 0 1 443.68 28.17
  L 449.10 28.29
  A 0.31 0.31 0.0 0 1 449.40 28.62
  L 449.19 33.18
  A 0.31 0.31 0.0 0 0 449.50 33.50
  L 458.45 33.50
  A 0.31 0.31 0.0 0 0 458.76 33.19
  Z"
/>
<path fill="#141616" d="
  M 488.6049 36.9253
  A 7.05 7.05 0.0 0 1 481.5181 43.9383
  L 474.4782 43.9015
  A 7.05 7.05 0.0 0 1 467.4652 36.8146
  L 467.4751 34.9147
  A 7.05 7.05 0.0 0 1 474.5619 27.9017
  L 481.6018 27.9385
  A 7.05 7.05 0.0 0 1 488.6148 35.0254
  L 488.6049 36.9253
  Z
  M 482.9797 35.8781
  A 4.96 3.52 -0.6 0 0 477.9831 32.4102
  A 4.96 3.52 -0.6 0 0 473.0603 35.9819
  A 4.96 3.52 -0.6 0 0 478.0569 39.4498
  A 4.96 3.52 -0.6 0 0 482.9797 35.8781
  Z"
/>
<path fill="#141616" d="
  M 511.6256 36.7954
  A 7.20 7.20 0.0 0 1 504.3880 43.9576
  L 497.6081 43.9221
  A 7.20 7.20 0.0 0 1 490.4459 36.6845
  L 490.4544 35.0446
  A 7.20 7.20 0.0 0 1 497.6920 27.8824
  L 504.4719 27.9179
  A 7.20 7.20 0.0 0 1 511.6341 35.1555
  L 511.6256 36.7954
  Z
  M 505.9800 35.9513
  A 4.98 3.48 -0.1 0 0 500.9939 32.4800
  A 4.98 3.48 -0.1 0 0 496.0200 35.9687
  A 4.98 3.48 -0.1 0 0 501.0061 39.4400
  A 4.98 3.48 -0.1 0 0 505.9800 35.9513
  Z"
/>
<path fill="#141616" d="
  M 257.51 28.38
  A 0.26 0.26 0.0 0 1 257.77 28.12
  L 270.78 28.21
  A 7.97 7.79 0.4 0 1 278.70 36.05
  L 278.70 36.09
  A 7.97 7.79 0.4 0 1 270.68 43.83
  L 257.67 43.74
  A 0.26 0.26 0.0 0 1 257.41 43.48
  L 257.51 28.38
  Z
  M 263.29 33.51
  L 263.17 37.92
  A 0.75 0.75 0.0 0 0 263.90 38.69
  L 269.61 38.84
  A 3.06 2.89 1.5 0 0 272.75 36.03
  L 272.75 35.89
  A 3.06 2.89 1.5 0 0 269.77 32.93
  L 264.06 32.78
  A 0.75 0.75 0.0 0 0 263.29 33.51
  Z"
/>
<path fill="#141616" d="
  M 321.31 38.39
  L 325.59 28.49
  A 0.34 0.34 0.0 0 1 325.90 28.29
  L 331.94 28.17
  A 0.34 0.34 0.0 0 1 332.25 28.66
  L 324.71 43.56
  A 0.34 0.34 0.0 0 1 324.41 43.75
  L 317.59 43.75
  A 0.34 0.34 0.0 0 1 317.29 43.56
  L 309.89 28.74
  A 0.34 0.34 0.0 0 1 310.19 28.25
  L 316.04 28.25
  A 0.34 0.34 0.0 0 1 316.35 28.45
  L 320.69 38.39
  A 0.34 0.34 0.0 0 0 321.31 38.39
  Z"
/>
<path fill="#141616" d="
  M 348.25 34.51
  L 348.25 43.44
  A 0.31 0.31 0.0 0 1 347.94 43.75
  L 342.85 43.75
  A 0.31 0.31 0.0 0 1 342.54 43.44
  L 342.42 28.56
  A 0.31 0.31 0.0 0 1 342.73 28.25
  L 350.75 28.25
  A 0.31 0.31 0.0 0 1 350.99 28.36
  L 357.20 35.89
  A 0.31 0.31 0.0 0 0 357.75 35.70
  L 357.75 28.58
  A 0.31 0.31 0.0 0 1 358.06 28.27
  L 363.44 28.20
  A 0.31 0.31 0.0 0 1 363.75 28.51
  L 363.75 43.44
  A 0.31 0.31 0.0 0 1 363.44 43.75
  L 356.91 43.75
  A 0.31 0.31 0.0 0 1 356.68 43.64
  L 348.80 34.31
  A 0.31 0.31 0.0 0 0 348.25 34.51
  Z"
/>
<path fill="#141616" d="
  M 298.25 39.75
  L 300.81 43.18
  Q 301.23 43.75 300.52 43.75
  L 295.30 43.75
  A 0.97 0.95 71.4 0 1 294.53 43.36
  L 292.27 40.26
  Q 291.90 39.75 291.27 39.75
  L 286.72 39.75
  A 0.51 0.50 -2.1 0 0 286.21 40.29
  L 286.37 43.05
  A 0.66 0.66 0.0 0 1 285.71 43.75
  L 281.11 43.75
  Q 280.53 43.75 280.52 43.17
  L 280.42 28.69
  Q 280.42 28.26 280.84 28.26
  C 284.87 28.24 296.23 27.19 299.19 29.56
  C 301.86 31.69 302.25 37.33 298.45 39.01
  A 0.49 0.49 0.0 0 0 298.25 39.75
  Z
  M 295.18 33.09
  A 0.59 0.59 0.0 0 0 294.59 32.50
  L 286.85 32.50
  A 0.59 0.59 0.0 0 0 286.26 33.09
  L 286.26 34.91
  A 0.59 0.59 0.0 0 0 286.85 35.50
  L 294.59 35.50
  A 0.59 0.59 0.0 0 0 295.18 34.91
  L 295.18 33.09
  Z"
/>
<rect fill="#141616" x="-2.90" y="-7.74" transform="translate(306.36,36.00) rotate(-0.2)" width="5.80" height="15.48" rx="0.26"/>
<rect fill="#141616" x="-2.92" y="-7.74" transform="translate(336.34,36.00) rotate(-0.4)" width="5.84" height="15.48" rx="0.26"/>
<path fill="#141616" d="
  M 519.59 38.75
  L 531.13 38.75
  A 0.34 0.34 0.0 0 1 531.47 39.08
  L 531.60 43.40
  A 0.34 0.34 0.0 0 1 531.26 43.75
  L 513.83 43.75
  A 0.34 0.34 0.0 0 1 513.49 43.41
  L 513.47 28.59
  A 0.34 0.34 0.0 0 1 513.81 28.25
  L 518.91 28.25
  A 0.34 0.34 0.0 0 1 519.25 28.59
  L 519.25 38.41
  A 0.34 0.34 0.0 0 0 519.59 38.75
  Z"
/>
<rect fill="#ffffff" x="286.26" y="32.50" width="8.92" height="3.00" rx="0.59"/>
<ellipse fill="#ffffff" cx="0.00" cy="0.00" transform="translate(478.02,35.93) rotate(-0.6)" rx="4.96" ry="3.52"/>
<path fill="#ffffff" d="
  M 263.29 33.51
  A 0.75 0.75 0.0 0 1 264.06 32.78
  L 269.77 32.93
  A 3.06 2.89 1.5 0 1 272.75 35.89
  L 272.75 36.03
  A 3.06 2.89 1.5 0 1 269.61 38.84
  L 263.90 38.69
  A 0.75 0.75 0.0 0 1 263.17 37.92
  L 263.29 33.51
  Z"
/>
<ellipse fill="#ffffff" cx="0.00" cy="0.00" transform="translate(501.00,35.96) rotate(-0.1)" rx="4.98" ry="3.48"/>
<path fill="#ffffff" d="
  M 527.98 65.57
  L 532.12 65.70
  C 549.71 67.77 563.85 72.70 564.46 93.25
  Q 564.47 93.75 563.98 93.75
  L 552.49 93.75
  Q 551.46 93.75 552.38 94.22
  C 557.01 96.61 562.52 100.23 563.51 105.00
  C 568.92 131.01 537.76 134.81 520.10 134.42
  C 501.88 134.02 483.32 133.39 477.93 112.01
  Q 477.76 111.30 477.54 112.00
  C 470.49 135.23 440.67 136.06 421.56 133.42
  C 406.84 131.38 396.32 123.99 392.66 109.97
  Q 392.43 109.09 392.21 109.98
  C 388.38 125.32 376.14 131.90 361.43 133.63
  C 342.57 135.84 315.90 134.77 307.75 113.50
  Q 306.97 111.46 305.98 104.76
  Q 305.85 103.89 305.45 104.67
  Q 302.68 109.99 297.91 113.65
  A 0.56 0.55 53.0 0 0 297.81 114.43
  L 311.44 132.22
  Q 312.01 132.97 311.07 132.98
  L 279.07 133.23
  Q 278.62 133.23 278.35 132.88
  L 267.75 119.15
  Q 267.44 118.75 266.93 118.75
  L 253.90 118.75
  A 0.85 0.85 0.0 0 0 253.05 119.60
  L 252.90 132.68
  Q 252.90 133.25 252.32 133.25
  L 223.28 133.25
  Q 222.80 133.25 222.80 132.78
  L 222.54 93.77
  Q 222.54 93.25 222.02 93.25
  L 196.25 93.25
  Q 195.75 93.25 195.75 93.75
  L 195.75 132.25
  Q 195.75 133.01 194.99 133.01
  L 166.02 133.05
  Q 165.50 133.05 165.50 132.52
  L 165.50 93.75
  Q 165.50 93.25 165.00 93.25
  L 139.51 93.25
  Q 139.01 93.25 139.01 93.74
  L 138.98 132.40
  Q 138.98 133.03 138.35 133.03
  L 109.25 133.01
  Q 108.75 133.01 108.75 132.50
  L 108.75 68.24
  Q 108.75 66.77 110.22 66.78
  Q 195.33 67.16 277.56 66.97
  C 291.92 66.93 302.52 71.23 307.37 86.05
  Q 307.55 86.62 307.78 86.07
  C 316.03 66.20 339.89 64.15 358.76 66.05
  C 372.85 67.46 385.07 71.79 390.90 85.32
  C 391.17 85.95 391.12 86.71 391.41 87.32
  A 0.18 0.18 0.0 0 0 391.75 87.25
  L 391.75 67.77
  A 0.74 0.73 -0.4 0 1 392.48 67.04
  L 421.50 66.82
  Q 421.95 66.82 421.95 67.27
  Q 422.05 83.45 422.25 99.63
  Q 422.29 103.26 423.22 104.72
  C 426.09 109.29 438.89 108.41 443.74 107.24
  C 447.63 106.31 448.48 103.75 448.49 99.87
  Q 448.51 83.59 448.50 67.39
  A 0.43 0.43 0.0 0 1 448.93 66.96
  L 477.96 67.02
  Q 478.72 67.02 478.73 67.78
  L 478.81 81.99
  Q 478.81 82.48 479.06 82.05
  C 482.27 76.33 485.66 72.52 492.10 69.97
  C 503.41 65.49 516.74 65.11 527.98 65.57
  Z
  M 519.99 106.48
  L 534.58 107.96
  A 2.52 2.28 88.8 0 1 536.65 110.15
  C 537.45 116.94 515.90 115.34 512.76 114.79
  C 510.59 114.40 509.06 113.47 507.18 112.30
  L 505.46 110.39
  Q 505.11 110.00 504.59 110.00
  L 482.25 110.00
  Q 481.67 110.00 481.74 110.57
  C 483.15 122.85 493.00 127.93 504.03 129.56
  C 518.91 131.41 564.54 134.13 559.92 106.72
  C 557.84 94.33 528.23 93.45 518.89 93.29
  L 507.75 91.99
  A 2.50 2.48 -17.8 0 1 506.22 91.21
  Q 504.22 89.01 506.97 86.87
  C 511.10 83.68 522.00 83.90 527.17 84.69
  Q 532.74 85.16 536.82 89.73
  A 0.67 0.66 69.1 0 0 537.32 89.96
  L 559.04 90.02
  A 1.03 1.02 -3.2 0 0 560.06 88.88
  C 558.17 72.88 541.40 69.87 528.50 69.59
  C 516.64 68.82 500.38 69.09 489.82 75.31
  C 481.35 80.29 477.55 93.87 487.08 99.95
  C 495.81 105.52 509.53 106.05 519.99 106.48
  Z
  M 339.42 70.00
  C 325.36 70.84 312.02 77.86 310.24 93.19
  C 307.39 117.67 319.61 129.79 343.56 130.29
  C 361.77 131.73 388.26 128.36 389.01 104.25
  Q 389.32 94.46 388.66 91.31
  C 384.05 69.13 356.95 68.09 339.42 70.00
  Z
  M 124.94 129.24
  L 134.19 129.28
  Q 134.98 129.28 134.98 128.48
  L 135.01 71.71
  Q 135.01 71.06 134.35 71.06
  L 125.24 71.04
  L 112.98 71.03
  Q 112.50 71.03 112.50 71.51
  L 112.50 128.74
  Q 112.50 129.23 112.99 129.23
  L 124.94 129.24
  Z
  M 168.78 89.30
  A 0.47 0.47 0.0 0 1 169.25 89.77
  L 169.25 128.78
  A 0.47 0.47 0.0 0 0 169.72 129.25
  L 191.34 129.25
  A 0.47 0.47 0.0 0 0 191.81 128.78
  L 191.95 89.72
  A 0.47 0.47 0.0 0 1 192.42 89.25
  L 218.28 89.25
  A 0.47 0.47 0.0 0 0 218.75 88.78
  L 218.75 71.47
  A 0.47 0.47 0.0 0 0 218.28 71.00
  L 142.68 71.00
  A 0.47 0.47 0.0 0 0 142.21 71.47
  L 142.33 88.75
  A 0.47 0.47 0.0 0 0 142.80 89.22
  L 168.78 89.30
  Z
  M 257.94 114.99
  L 268.99 115.06
  A 1.00 0.99 71.1 0 1 269.78 115.45
  L 280.00 128.85
  Q 280.31 129.25 280.82 129.25
  L 303.31 129.25
  A 0.51 0.51 0.0 0 0 303.72 128.43
  L 292.18 113.34
  Q 291.86 112.92 292.31 112.66
  C 308.74 103.35 308.38 79.17 290.21 72.29
  C 282.96 69.54 270.20 71.00 262.30 71.01
  L 226.99 71.02
  Q 226.50 71.02 226.50 71.51
  L 226.50 128.77
  A 0.52 0.51 0.0 0 0 227.02 129.28
  L 248.51 129.23
  Q 249.00 129.23 249.00 128.74
  L 249.00 116.34
  A 1.35 1.34 -89.8 0 1 250.34 115.00
  L 257.94 114.99
  Z
  M 446.37 129.77
  C 462.10 128.44 475.08 119.79 475.11 102.48
  Q 475.14 87.07 474.91 71.47
  Q 474.90 71.00 474.44 71.00
  L 453.03 71.00
  Q 452.48 71.00 452.48 71.54
  Q 452.47 81.18 452.32 90.82
  C 452.20 98.63 454.58 108.79 444.21 111.07
  C 435.52 112.95 418.33 113.83 418.29 100.75
  Q 418.25 86.14 418.24 71.51
  Q 418.24 71.00 417.74 71.00
  L 396.28 71.00
  Q 395.72 71.00 395.71 71.56
  Q 395.52 83.31 395.60 95.10
  Q 395.69 108.40 397.50 113.23
  C 403.99 130.58 430.50 132.12 446.37 129.77
  Z
  M 530.9687 89.3862
  A 8.82 0.78 2.9 0 0 522.1995 88.1610
  A 8.82 0.78 2.9 0 0 513.3513 88.4938
  A 8.82 0.78 2.9 0 0 522.1205 89.7190
  A 8.82 0.78 2.9 0 0 530.9687 89.3862
  Z
  M 479.00 97.42
  L 478.78 105.51
  A 0.73 0.73 0.0 0 0 479.51 106.25
  L 487.75 106.25
  Q 491.58 106.25 488.05 104.76
  Q 482.52 102.43 479.50 97.29
  Q 479.02 96.47 479.00 97.42
  Z
  M 528.60 110.64
  C 523.40 109.80 516.92 110.03 511.64 109.84
  A 0.34 0.34 0.0 0 0 511.53 110.50
  Q 519.98 113.17 528.62 111.10
  Q 529.77 110.82 528.60 110.64
  Z"
/>
<path fill="#1973c7" d="
  M 528.50 69.59
  L 529.44 69.86
  A 0.05 0.04 47.0 0 1 529.44 69.95
  L 528.99 70.01
  A 0.36 0.36 0.0 0 0 528.68 70.40
  Q 529.34 77.61 527.17 84.69
  C 522.00 83.90 511.10 83.68 506.97 86.87
  Q 504.22 89.01 506.22 91.21
  A 2.50 2.48 -17.8 0 0 507.75 91.99
  L 518.89 93.29
  L 519.60 105.11
  Q 519.63 105.62 520.12 105.78
  Q 520.25 105.83 520.34 105.96
  Q 520.46 106.15 520.25 106.24
  Q 520.02 106.34 519.99 106.48
  C 509.53 106.05 495.81 105.52 487.08 99.95
  C 477.55 93.87 481.35 80.29 489.82 75.31
  C 500.38 69.09 516.64 68.82 528.50 69.59
  Z"
/>
<path fill="#4a88c3" d="
  M 343.56 130.29
  Q 344.92 130.73 345.40 128.42
  Q 345.43 128.24 345.25 128.25
  Q 345.13 128.25 344.97 128.27
  Q 344.74 128.29 344.75 128.05
  L 345.13 117.35
  A 1.07 1.07 0.0 0 0 344.84 116.57
  Q 342.75 114.34 343.18 111.56
  C 349.79 112.67 364.00 112.90 365.95 104.28
  C 370.01 86.35 351.62 86.32 340.42 88.92
  Q 338.77 87.76 339.32 86.09
  Q 339.42 85.77 339.09 85.76
  Q 338.79 85.76 338.87 85.55
  Q 341.99 78.17 339.42 70.00
  C 356.95 68.09 384.05 69.13 388.66 91.31
  Q 389.32 94.46 389.01 104.25
  C 388.26 128.36 361.77 131.73 343.56 130.29
  Z"
/>
<path fill="#4a88c3" d="
  M 528.50 69.59
  C 541.40 69.87 558.17 72.88 560.06 88.88
  A 1.03 1.02 -3.2 0 1 559.04 90.02
  L 537.32 89.96
  A 0.67 0.66 69.1 0 1 536.82 89.73
  Q 532.74 85.16 527.17 84.69
  Q 529.34 77.61 528.68 70.40
  A 0.36 0.36 0.0 0 1 528.99 70.01
  L 529.44 69.95
  A 0.05 0.04 47.0 0 0 529.44 69.86
  L 528.50 69.59
  Z"
/>
<path fill="#1973c7" d="
  M 339.42 70.00
  Q 341.99 78.17 338.87 85.55
  Q 338.79 85.76 339.09 85.76
  Q 339.42 85.77 339.32 86.09
  Q 338.77 87.76 340.42 88.92
  Q 334.47 90.38 333.25 95.00
  Q 329.45 109.45 343.18 111.56
  Q 342.75 114.34 344.84 116.57
  A 1.07 1.07 0.0 0 1 345.13 117.35
  L 344.75 128.05
  Q 344.74 128.29 344.97 128.27
  Q 345.13 128.25 345.25 128.25
  Q 345.43 128.24 345.40 128.42
  Q 344.92 130.73 343.56 130.29
  C 319.61 129.79 307.39 117.67 310.24 93.19
  C 312.02 77.86 325.36 70.84 339.42 70.00
  Z"
/>
<path fill="#1973c7" d="
  M 125.24 71.04
  Q 126.07 72.43 125.13 73.76
  Q 124.86 74.13 124.97 74.57
  L 125.63 77.24
  Q 125.69 77.49 125.94 77.50
  Q 126.07 77.50 126.22 77.50
  Q 126.53 77.48 126.52 77.79
  C 126.48 80.66 125.99 83.57 125.99 86.28
  Q 126.01 102.21 125.99 118.12
  Q 125.99 118.45 125.65 120.18
  Q 125.38 121.56 126.34 122.61
  Q 126.70 123.01 126.59 123.53
  L 126.07 126.00
  Q 125.95 126.57 125.45 126.86
  Q 123.51 128.02 124.94 129.24
  L 112.99 129.23
  Q 112.50 129.23 112.50 128.74
  L 112.50 71.51
  Q 112.50 71.03 112.98 71.03
  L 125.24 71.04
  Z"
/>
<path fill="#4a88c3" d="
  M 125.24 71.04
  L 134.35 71.06
  Q 135.01 71.06 135.01 71.71
  L 134.98 128.48
  Q 134.98 129.28 134.19 129.28
  L 124.94 129.24
  Q 123.51 128.02 125.45 126.86
  Q 125.95 126.57 126.07 126.00
  L 126.59 123.53
  Q 126.70 123.01 126.34 122.61
  Q 125.38 121.56 125.65 120.18
  Q 125.99 118.45 125.99 118.12
  Q 126.01 102.21 125.99 86.28
  C 125.99 83.57 126.48 80.66 126.52 77.79
  Q 126.53 77.48 126.22 77.50
  Q 126.07 77.50 125.94 77.50
  Q 125.69 77.49 125.63 77.24
  L 124.97 74.57
  Q 124.86 74.13 125.13 73.76
  Q 126.07 72.43 125.24 71.04
  Z"
/>
<path fill="#347ec5" d="
  M 168.78 89.30
  L 142.80 89.22
  A 0.47 0.47 0.0 0 1 142.33 88.75
  L 142.21 71.47
  A 0.47 0.47 0.0 0 1 142.68 71.00
  L 218.28 71.00
  A 0.47 0.47 0.0 0 1 218.75 71.47
  L 218.75 88.78
  A 0.47 0.47 0.0 0 1 218.28 89.25
  L 192.42 89.25
  A 0.47 0.47 0.0 0 0 191.95 89.72
  L 191.81 128.78
  A 0.47 0.47 0.0 0 1 191.34 129.25
  L 169.72 129.25
  A 0.47 0.47 0.0 0 1 169.25 128.78
  L 169.25 89.77
  A 0.47 0.47 0.0 0 0 168.78 89.30
  Z"
/>
<path fill="#1973c7" d="
  M 262.30 71.01
  L 261.99 72.96
  A 0.83 0.81 22.1 0 0 262.35 73.78
  C 265.31 75.73 263.94 83.67 264.45 86.71
  Q 264.50 86.97 264.27 87.10
  L 263.98 87.28
  Q 263.60 87.50 264.04 87.50
  L 266.76 87.50
  Q 267.03 87.50 266.86 87.70
  C 266.84 87.72 256.32 87.83 255.24 87.87
  L 249.81 87.92
  Q 249.12 87.93 249.12 88.61
  L 249.10 97.37
  Q 249.10 97.99 249.72 97.99
  L 263.88 98.00
  Q 264.56 102.81 263.92 108.02
  C 263.69 109.88 264.65 112.17 262.57 114.05
  Q 262.19 114.39 261.69 114.30
  Q 259.49 113.91 257.94 114.99
  L 250.34 115.00
  A 1.35 1.34 -89.8 0 0 249.00 116.34
  L 249.00 128.74
  Q 249.00 129.23 248.51 129.23
  L 227.02 129.28
  A 0.52 0.51 -0.0 0 1 226.50 128.77
  L 226.50 71.51
  Q 226.50 71.02 226.99 71.02
  L 262.30 71.01
  Z"
/>
<path fill="#4a88c3" d="
  M 262.30 71.01
  C 270.20 71.00 282.96 69.54 290.21 72.29
  C 308.38 79.17 308.74 103.35 292.31 112.66
  Q 291.86 112.92 292.18 113.34
  L 303.72 128.43
  A 0.51 0.51 0.0 0 1 303.31 129.25
  L 280.82 129.25
  Q 280.31 129.25 280.00 128.85
  L 269.78 115.45
  A 1.00 0.99 71.1 0 0 268.99 115.06
  L 257.94 114.99
  Q 259.49 113.91 261.69 114.30
  Q 262.19 114.39 262.57 114.05
  C 264.65 112.17 263.69 109.88 263.92 108.02
  Q 264.56 102.81 263.88 98.00
  C 268.29 98.02 281.95 100.15 281.66 92.82
  C 281.41 86.53 274.83 88.06 270.92 88.05
  Q 263.06 88.03 255.24 87.87
  C 256.32 87.83 266.84 87.72 266.86 87.70
  Q 267.03 87.50 266.76 87.50
  L 264.04 87.50
  Q 263.60 87.50 263.98 87.28
  L 264.27 87.10
  Q 264.50 86.97 264.45 86.71
  C 263.94 83.67 265.31 75.73 262.35 73.78
  A 0.83 0.81 22.1 0 1 261.99 72.96
  L 262.30 71.01
  Z"
/>
<path fill="#1973c7" d="
  M 444.21 111.07
  L 445.10 128.65
  Q 445.13 129.21 445.66 129.03
  Q 445.87 128.95 446.07 129.03
  Q 446.37 129.14 446.37 129.46
  Q 446.38 129.60 446.37 129.77
  C 430.50 132.12 403.99 130.58 397.50 113.23
  Q 395.69 108.40 395.60 95.10
  Q 395.52 83.31 395.71 71.56
  Q 395.72 71.00 396.28 71.00
  L 417.74 71.00
  Q 418.24 71.00 418.24 71.51
  Q 418.25 86.14 418.29 100.75
  C 418.33 113.83 435.52 112.95 444.21 111.07
  Z"
/>
<path fill="#4a88c3" d="
  M 446.37 129.77
  Q 446.38 129.60 446.37 129.46
  Q 446.37 129.14 446.07 129.03
  Q 445.87 128.95 445.66 129.03
  Q 445.13 129.21 445.10 128.65
  L 444.21 111.07
  C 454.58 108.79 452.20 98.63 452.32 90.82
  Q 452.47 81.18 452.48 71.54
  Q 452.48 71.00 453.03 71.00
  L 474.44 71.00
  Q 474.90 71.00 474.91 71.47
  Q 475.14 87.07 475.11 102.48
  C 475.08 119.79 462.10 128.44 446.37 129.77
  Z"
/>
<path fill="#ffffff" d="
  M 255.24 87.87
  Q 263.06 88.03 270.92 88.05
  C 274.83 88.06 281.41 86.53 281.66 92.82
  C 281.95 100.15 268.29 98.02 263.88 98.00
  L 249.72 97.99
  Q 249.10 97.99 249.10 97.37
  L 249.12 88.61
  Q 249.12 87.93 249.81 87.92
  L 255.24 87.87
  Z
  M 277.75 92.41
  A 0.66 0.66 0.0 0 0 277.09 91.75
  L 253.65 91.75
  A 0.66 0.66 0.0 0 0 252.99 92.41
  L 252.99 93.35
  A 0.66 0.66 0.0 0 0 253.65 94.01
  L 277.09 94.01
  A 0.66 0.66 0.0 0 0 277.75 93.35
  L 277.75 92.41
  Z"
/>
<path fill="#ffffff" d="
  M 343.18 111.56
  Q 329.45 109.45 333.25 95.00
  Q 334.47 90.38 340.42 88.92
  C 351.62 86.32 370.01 86.35 365.95 104.28
  C 364.00 112.90 349.79 112.67 343.18 111.56
  Z
  M 339.22 93.43
  C 336.16 94.48 336.08 99.81 336.47 102.22
  C 337.74 110.09 352.69 108.42 357.74 107.20
  C 365.16 105.41 364.72 94.24 356.82 92.45
  Q 347.90 90.44 339.22 93.43
  Z"
/>
<ellipse fill="#276ba2" cx="0.00" cy="0.00" transform="translate(522.16,88.94) rotate(2.9)" rx="8.82" ry="0.78"/>
<rect fill="#141616" x="252.99" y="91.75" width="24.76" height="2.26" rx="0.66"/>
<path fill="#141616" d="
  M 336.47 102.22
  C 336.08 99.81 336.16 94.48 339.22 93.43
  Q 347.90 90.44 356.82 92.45
  C 364.72 94.24 365.16 105.41 357.74 107.20
  C 352.69 108.42 337.74 110.09 336.47 102.22
  Z"
/>
<path fill="#4a88c3" d="
  M 518.89 93.29
  C 528.23 93.45 557.84 94.33 559.92 106.72
  C 564.54 134.13 518.91 131.41 504.03 129.56
  Q 503.93 120.48 507.18 112.30
  C 509.06 113.47 510.59 114.40 512.76 114.79
  C 515.90 115.34 537.45 116.94 536.65 110.15
  A 2.52 2.28 88.8 0 0 534.58 107.96
  L 519.99 106.48
  Q 520.02 106.34 520.25 106.24
  Q 520.46 106.15 520.34 105.96
  Q 520.25 105.83 520.12 105.78
  Q 519.63 105.62 519.60 105.11
  L 518.89 93.29
  Z"
/>
<path fill="#141616" d="
  M 479.00 97.42
  Q 479.02 96.47 479.50 97.29
  Q 482.52 102.43 488.05 104.76
  Q 491.58 106.25 487.75 106.25
  L 479.51 106.25
  A 0.73 0.73 0.0 0 1 478.78 105.51
  L 479.00 97.42
  Z"
/>
<path fill="#276ba2" d="
  M 511.64 109.84
  C 516.92 110.03 523.40 109.80 528.60 110.64
  Q 529.77 110.82 528.62 111.10
  Q 519.98 113.17 511.53 110.50
  A 0.34 0.34 0.0 0 1 511.64 109.84
  Z"
/>
<path fill="#1973c7" d="
  M 507.18 112.30
  Q 503.93 120.48 504.03 129.56
  C 493.00 127.93 483.15 122.85 481.74 110.57
  Q 481.67 110.00 482.25 110.00
  L 504.59 110.00
  Q 505.11 110.00 505.46 110.39
  L 507.18 112.30
  Z"
/>
<ellipse fill="#ffffff" cx="0.00" cy="0.00" transform="translate(243.76,152.47) rotate(-0.6)" rx="6.90" ry="0.30"/>
<rect fill="#ffffff" x="27.83" y="152.25" width="13.10" height="0.50" rx="0.25"/>
<path fill="#ffffff" d="
  M 93.44 153.00
  L 76.20 153.00
  L 64.64 152.79
  Q 64.41 152.79 64.48 152.57
  Q 64.52 152.44 64.56 152.31
  Q 64.58 152.25 64.75 152.25
  L 107.38 152.25
  Q 107.81 152.25 107.54 152.59
  Q 107.36 152.81 107.00 152.80
  Q 100.19 152.52 93.44 153.00
  Z"
/>
<ellipse fill="#ffffff" cx="0.00" cy="0.00" transform="translate(137.08,152.50) rotate(-0.5)" rx="6.56" ry="0.30"/>
<rect fill="#ffffff" x="174.00" y="152.25" width="34.76" height="0.50" rx="0.25"/>
<rect fill="#ffffff" x="288.57" y="152.25" width="13.36" height="0.50" rx="0.25"/>
<rect fill="#ffffff" x="-6.45" y="-0.24" transform="translate(347.20,152.49) rotate(-0.2)" width="12.90" height="0.48" rx="0.24"/>
<rect fill="#ffffff" x="-6.40" y="-0.24" transform="translate(399.50,152.50) rotate(-0.2)" width="12.80" height="0.48" rx="0.24"/>
<rect fill="#ffffff" x="445.83" y="152.25" width="14.10" height="0.50" rx="0.25"/>
<rect fill="#ffffff" x="500.00" y="152.25" width="11.68" height="0.50" rx="0.25"/>
<rect fill="#ffffff" x="552.00" y="152.25" width="11.68" height="0.50" rx="0.25"/>
</svg>
